SplineFontDB: 3.2
FontName: KawkabMono-Bold
FullName: Kawkab Mono Bold
FamilyName: Kawkab Mono
Weight: Bold
Copyright: Copyright \\(c\\) 2015, Abdullah Arif \\(abdullah.a@gmail.com\\).  Copyright 2010, 2012, 2014 Adobe Systems Incorporated \\(http://www.adobe.com/\\), with Reserved Font Name 'Source'. All Rights Reserved. Source is a trademark of Adobe Systems Incorporated in the United States and/or other countries.
Version: 000.501
ItalicAngle: 0
UnderlinePosition: -100
UnderlineWidth: 50
Ascent: 800
Descent: 200
InvalidEm: 0
sfntRevision: 0x00010000
LayerCount: 2
Layer: 0 0 "Back" 1
Layer: 1 0 "Fore" 0
XUID: [1021 503 -925390817 15968247]
StyleMap: 0x0020
FSType: 8
OS2Version: 3
OS2_WeightWidthSlopeOnly: 0
OS2_UseTypoMetrics: 0
CreationTime: 1452892837
ModificationTime: 1643340759
PfmFamily: 81
TTFWeight: 700
TTFWidth: 5
LineGap: 0
VLineGap: 0
Panose: 0 0 8 9 0 0 0 0 0 0
OS2TypoAscent: 1300
OS2TypoAOffset: 0
OS2TypoDescent: -650
OS2TypoDOffset: 0
OS2TypoLinegap: 0
OS2WinAscent: 1300
OS2WinAOffset: 0
OS2WinDescent: 650
OS2WinDOffset: 0
HheadAscent: 1300
HheadAOffset: 0
HheadDescent: -650
HheadDOffset: 0
OS2SubXSize: 650
OS2SubYSize: 600
OS2SubXOff: 0
OS2SubYOff: 75
OS2SupXSize: 650
OS2SupYSize: 600
OS2SupXOff: 0
OS2SupYOff: 350
OS2StrikeYSize: 50
OS2StrikeYPos: 258
OS2CapHeight: 890
OS2XHeight: 430
OS2Vendor: 'ADBE'
OS2CodePages: 600001df.00000000
OS2UnicodeRanges: 200022d7.02001802.00000008.00000000
Lookup: 1 0 0 "'aalt' Access All Alternates lookup 0" { "'aalt' Access All Alternates lookup 0 subtable"  } ['aalt' ('DFLT' <'dflt' > 'arab' <'URD ' 'dflt' > 'cyrl' <'SRB ' 'dflt' > 'grek' <'dflt' > 'latn' <'NSM ' 'SKS ' 'dflt' > ) ]
Lookup: 3 0 0 "'aalt' Access All Alternates lookup 1" { "'aalt' Access All Alternates lookup 1 subtable"  } ['aalt' ('DFLT' <'dflt' > 'arab' <'URD ' 'dflt' > 'cyrl' <'SRB ' 'dflt' > 'grek' <'dflt' > 'latn' <'NSM ' 'SKS ' 'dflt' > ) ]
Lookup: 1 0 0 "Single Substitution lookup 2" { "Single Substitution lookup 2 subtable"  } []

StartChar: .notdef
Encoding: 1114112 -1 0
Width: 525
VWidth: 750
Flags: HMW
HStem: 0 71.25<177.75 345 177.75 488.25> 504.75 72.75<185.25 339.75 185.25 185.25>
VStem: 37.5 78<123.75 471.75 123.75 577.5> 408.75 79.5<123.75 471.75 471.75 471.75>
LayerCount: 2
Fore
SplineSet
37.5 577.5 m 1
 488.25 577.5 l 1
 488.25 0 l 1
 37.5 0 l 1
 37.5 577.5 l 1
264 354.75 m 1
 303 438 l 1
 339.75 504.75 l 1
 185.25 504.75 l 1
 221.25 438 l 1
 260.25 354.75 l 1
 264 354.75 l 1
206.25 297 m 1
 115.5 471.75 l 1
 115.5 123.75 l 1
 206.25 297 l 1
408.75 123.75 m 1
 408.75 471.75 l 1
 318 297 l 1
 408.75 123.75 l 1
345 71.25 m 1
 302.25 153 l 1
 264 239.25 l 1
 260.25 239.25 l 1
 221.25 153 l 1
 177.75 71.25 l 1
 345 71.25 l 1
EndSplineSet
EndChar

StartChar: uni0621
Encoding: 1569 1569 1
Width: 525
VWidth: 750
GlyphClass: 2
Flags: HMW
HStem: 253.5 82.5<276.375 300>
VStem: 179.25 66<195 229.125>
AnchorPoint: "Anchor-1" 270 480 basechar 0
AnchorPoint: "Anchor-0" 330 -60 basechar 0
LayerCount: 2
Fore
SplineSet
187.5 -11.25 m 0
 169.5 -17.25 162 -15 156 -3.75 c 0
 152.25 3 149.25 13.5 149.25 19.5 c 0
 149.25 40.5 180 62.25 256.5 93.75 c 1
 198 105.75 179.25 141 179.25 187.5 c 0
 179.25 270.75 239.25 336 313.5 336 c 0
 367.5 336 404.25 302.25 404.25 264.75 c 0
 404.25 238.5 387 225 372 225 c 0
 351 225 323.25 253.5 276.75 253.5 c 0
 252 253.5 245.25 245.25 245.25 222 c 0
 245.25 168 280.5 127.5 333 127.5 c 0
 343.5 127.5 379.5 129 397.5 129 c 0
 444 129 467.25 119.25 467.25 93.75 c 0
 467.25 76.5 456 69.75 431.25 63 c 0
 330.75 35.25 312 30 187.5 -11.25 c 0
EndSplineSet
EndChar

StartChar: uni0627
Encoding: 1575 1575 2
Width: 525
VWidth: 750
GlyphClass: 2
Flags: HMW
HStem: 652.5 15G<300 300>
VStem: 196.5 104.25
AnchorPoint: "Anchor-1" 238.5 708 basechar 0
AnchorPoint: "Anchor-0" 300 -92.25 basechar 0
LayerCount: 2
Fore
SplineSet
226.5 -30 m 1
 196.5 571.5 l 1
 300 667.5 l 1
 301.5 105 l 1
 241.5 -30 l 1
 226.5 -30 l 1
EndSplineSet
Substitution2: "'fina' Terminal Forms lookup 31 subtable" uniFE8E
Substitution2: "'aalt' Access All Alternates lookup 0 subtable" uniFE8E
EndChar

StartChar: uniFE8E
Encoding: 65166 65166 3
Width: 525
VWidth: 750
GlyphClass: 2
Flags: HMW
HStem: 0 105<252.375 525 300 525 300 525>
VStem: 131.25 93.75<567 567>
AnchorPoint: "Anchor-1" 189 679.5 basechar 0
AnchorPoint: "Anchor-0" 288.75 -112.5 basechar 0
LayerCount: 2
Fore
SplineSet
287.25 0 m 2
 217.5 0 151.5 39 148.5 146.25 c 0
 141.75 396 142.5 407.25 131.25 567 c 1
 225 638.25 l 1
 225 189.75 l 2
 225 130.5 242.25 105 300 105 c 2
 525 105 l 1
 525 0 l 1
 287.25 0 l 2
EndSplineSet
EndChar

StartChar: uni0627.short
Encoding: 1114203 -1 4
Width: 525
VWidth: 750
GlyphClass: 2
Flags: HMW
HStem: 652.5 15G<300 300>
VStem: 196.5 104.25
AnchorPoint: "Anchor-1" 247.5 712.5 basechar 0
AnchorPoint: "Anchor-0" 285 -82.5 basechar 0
LayerCount: 2
Fore
SplineSet
226.5 -30 m 1
 196.5 571.5 l 1
 300 667.5 l 1
 301.5 105 l 1
 241.5 -30 l 1
 226.5 -30 l 1
EndSplineSet
EndChar

StartChar: uniFE8E.short
Encoding: 1114204 -1 5
Width: 525
VWidth: 750
GlyphClass: 2
Flags: HMW
HStem: 0 105<253.875 525 300 525 300 525>
VStem: 156 69<94.125 189.75>
AnchorPoint: "Anchor-1" 180 600 basechar 0
AnchorPoint: "Anchor-0" 288.75 -112.5 basechar 0
LayerCount: 2
Fore
SplineSet
287.25 0 m 2
 220.5 0 156 42 156 146.25 c 1
 150.75 279.75 139.5 382.5 131.25 447 c 1
 225 518.25 l 1
 225 189.75 l 2
 225 133.5 242.25 105 300 105 c 2
 525 105 l 1
 525 0 l 1
 287.25 0 l 2
EndSplineSet
EndChar

StartChar: uni0623
Encoding: 1571 1571 6
Width: 525
VWidth: 750
GlyphClass: 2
Flags: HMW
HStem: 652.5 15G<300 300> 902.25 58.5<225 239.25>
VStem: 156.75 39.75<865.5 868.875> 196.5 104.25
AnchorPoint: "Anchor-1" 232.5 1072.5 basechar 0
AnchorPoint: "Anchor-0" 285 -82.5 basechar 0
LayerCount: 2
Fore
SplineSet
160.5 703.5 m 0xe0
 153.75 699.75 151.5 710.25 150.75 714 c 0
 146.25 729 144.75 732 144.75 736.5 c 0
 144.75 744 150 748.5 159 753.75 c 2
 204.75 780 l 1
 168.75 792.75 156.75 816.75 156.75 843.75 c 0
 156.75 894 198 960.75 252 960.75 c 0
 284.25 960.75 296.25 938.25 298.5 898.5 c 0
 298.5 887.25 293.25 882 288 882 c 0
 284.25 882 251.25 902.25 227.25 902.25 c 0
 204 902.25 196.5 891.75 196.5 877.5 c 0
 196.5 853.5 210 804 261 804 c 0
 271.5 804 292.5 805.5 308.25 805.5 c 0
 327.75 805.5 332.25 803.25 339 792 c 2
 347.25 778.5 l 2
 352.5 768 341.25 761.25 332.25 759 c 0
 218.25 732.75 211.5 731.25 160.5 703.5 c 0xe0
226.5 -30 m 1xd0
 196.5 571.5 l 1
 300 667.5 l 1
 301.5 105 l 1
 241.5 -30 l 1
 226.5 -30 l 1xd0
EndSplineSet
Substitution2: "'fina' Terminal Forms lookup 31 subtable" uniFE84
Substitution2: "'aalt' Access All Alternates lookup 0 subtable" uniFE84
EndChar

StartChar: uniFE84
Encoding: 65156 65156 7
Width: 525
VWidth: 750
GlyphClass: 2
Flags: HMW
HStem: 0 105<252.375 525 300 525 300 525> 857.25 58.5<150 164.25>
VStem: 81.75 39.75<820.5 823.875> 131.25 93.75<567 567>
AnchorPoint: "Anchor-1" 172.5 997.5 basechar 0
AnchorPoint: "Anchor-0" 315 -90 basechar 0
LayerCount: 2
Fore
SplineSet
85.5 658.5 m 0
 78.75 654.75 76.5 665.25 75.75 669 c 0
 71.25 684 69.75 687 69.75 691.5 c 0
 69.75 699 75 703.5 84 708.75 c 2
 129.75 735 l 1
 93.75 747.75 81.75 771.75 81.75 798.75 c 0
 81.75 849 123 915.75 177 915.75 c 0
 209.25 915.75 221.25 893.25 223.5 853.5 c 0
 223.5 842.25 218.25 837 213 837 c 0
 209.25 837 176.25 857.25 152.25 857.25 c 0
 129 857.25 121.5 846.75 121.5 832.5 c 0
 121.5 808.5 135 759 186 759 c 0xf0
 196.5 759 217.5 760.5 233.25 760.5 c 0
 252.75 760.5 257.25 758.25 264 747 c 2
 272.25 733.5 l 2
 277.5 723 266.25 716.25 257.25 714 c 0
 143.25 687.75 136.5 686.25 85.5 658.5 c 0
287.25 0 m 2
 217.5 0 151.5 39 148.5 146.25 c 0
 141.75 396 142.5 407.25 131.25 567 c 1
 225 638.25 l 1
 225 189.75 l 2
 225 130.5 242.25 105 300 105 c 2
 525 105 l 1
 525 0 l 1
 287.25 0 l 2
EndSplineSet
EndChar

StartChar: uni0625
Encoding: 1573 1573 8
Width: 525
VWidth: 750
GlyphClass: 2
Flags: HMW
HStem: -149.25 58.5<248.25 262.5> 652.5 15G<300 300>
VStem: 180 39.75<-186.375 -183> 196.5 104.25
AnchorPoint: "Anchor-1" 228 783.75 basechar 0
AnchorPoint: "Anchor-0" 300 -375 basechar 0
LayerCount: 2
Fore
SplineSet
226.5 -30 m 1xd0
 196.5 571.5 l 1
 300 667.5 l 1
 301.5 105 l 1
 241.5 -30 l 1
 226.5 -30 l 1xd0
183.75 -348.75 m 0
 177 -351.75 174.75 -342 174 -337.5 c 0
 169.5 -323.25 168 -319.5 168 -315.75 c 0
 168 -308.25 173.25 -303 182.25 -297.75 c 2
 228 -271.5 l 1
 192 -258.75 180 -235.5 180 -208.5 c 0
 180 -157.5 221.25 -90.75 275.25 -90.75 c 0
 307.5 -90.75 319.5 -114 321.75 -153.75 c 0
 321.75 -164.25 316.5 -169.5 311.25 -169.5 c 0
 307.5 -169.5 274.5 -149.25 250.5 -149.25 c 0
 227.25 -149.25 219.75 -160.5 219.75 -174.75 c 0
 219.75 -198 233.25 -248.25 284.25 -248.25 c 0xe0
 294.75 -248.25 315.75 -246.75 331.5 -246.75 c 0
 351 -246.75 355.5 -249 362.25 -259.5 c 2
 370.5 -273.75 l 2
 375.75 -283.5 364.5 -290.25 355.5 -292.5 c 0
 241.5 -318.75 234.75 -320.25 183.75 -348.75 c 0
EndSplineSet
Substitution2: "'fina' Terminal Forms lookup 31 subtable" uniFE88
Substitution2: "'aalt' Access All Alternates lookup 0 subtable" uniFE88
EndChar

StartChar: uniFE88
Encoding: 65160 65160 9
Width: 525
VWidth: 750
GlyphClass: 2
Flags: HMW
HStem: -167.25 58.5<237 251.25> 0 105<252.375 525 300 525 300 525>
VStem: 131.25 93.75<567 567> 168.75 39.75<-204.375 -201>
AnchorPoint: "Anchor-1" 193.5 750 basechar 0
AnchorPoint: "Anchor-0" 307.5 -375 basechar 0
LayerCount: 2
Fore
SplineSet
287.25 0 m 2x60
 217.5 0 151.5 39 148.5 146.25 c 0
 141.75 396 142.5 407.25 131.25 567 c 1
 225 638.25 l 1
 225 189.75 l 2
 225 130.5 242.25 105 300 105 c 2
 525 105 l 1
 525 0 l 1
 287.25 0 l 2x60
172.5 -366.75 m 0
 165.75 -369.75 163.5 -360 162.75 -355.5 c 0
 158.25 -341.25 156.75 -337.5 156.75 -333.75 c 0
 156.75 -326.25 162 -321 171 -315.75 c 2
 216.75 -289.5 l 1
 180.75 -276.75 168.75 -253.5 168.75 -226.5 c 0
 168.75 -175.5 210 -108.75 264 -108.75 c 0
 296.25 -108.75 308.25 -132 310.5 -171.75 c 0
 310.5 -182.25 305.25 -187.5 300 -187.5 c 0
 296.25 -187.5 263.25 -167.25 239.25 -167.25 c 0
 216 -167.25 208.5 -178.5 208.5 -192.75 c 0
 208.5 -216 222 -266.25 273 -266.25 c 0xd0
 283.5 -266.25 304.5 -264.75 320.25 -264.75 c 0
 339.75 -264.75 344.25 -267 351 -277.5 c 2
 359.25 -291.75 l 2
 364.5 -301.5 353.25 -308.25 344.25 -310.5 c 0
 230.25 -336.75 223.5 -338.25 172.5 -366.75 c 0
EndSplineSet
EndChar

StartChar: uni0622
Encoding: 1570 1570 10
Width: 525
VWidth: 750
GlyphClass: 2
Flags: HMW
HStem: 652.5 15G<300 300> 724.5 74.25<269.25 302.625 259.5 313.875>
VStem: 196.5 104.25
AnchorPoint: "Anchor-1" 262.5 960 basechar 0
AnchorPoint: "Anchor-0" 285 -82.5 basechar 0
LayerCount: 2
Fore
SplineSet
122.25 720.75 m 1
 96 747.75 l 1
 114.75 809.25 159 843 188.25 843 c 0
 221.25 843 229.5 798.75 289.5 798.75 c 0
 315.75 798.75 345.75 807 417.75 843 c 1
 431.25 843 436.5 804.75 415.5 782.25 c 0
 398.25 763.5 336 724.5 291.75 724.5 c 0
 246.75 724.5 198 763.5 174.75 804.75 c 1
 155.25 795 138 771 122.25 720.75 c 1
226.5 -30 m 1
 196.5 571.5 l 1
 300 667.5 l 1
 301.5 105 l 1
 241.5 -30 l 1
 226.5 -30 l 1
EndSplineSet
Substitution2: "'fina' Terminal Forms lookup 31 subtable" uniFE82
Substitution2: "'aalt' Access All Alternates lookup 0 subtable" uniFE82
EndChar

StartChar: uniFE82
Encoding: 65154 65154 11
Width: 525
VWidth: 750
GlyphClass: 2
Flags: HMW
HStem: 0 105<252.375 525 300 525 300 525> 687 74.25<186.75 220.125 177 231.375>
VStem: 131.25 93.75<567 567>
AnchorPoint: "Anchor-1" 217.5 915 basechar 0
AnchorPoint: "Anchor-0" 315 -90 basechar 0
LayerCount: 2
Fore
SplineSet
39.75 683.25 m 1
 13.5 710.25 l 1
 32.25 771.75 76.5 805.5 105.75 805.5 c 0
 138.75 805.5 147 761.25 207 761.25 c 0
 233.25 761.25 263.25 769.5 335.25 805.5 c 1
 348.75 805.5 354 767.25 333 744.75 c 0
 315.75 726 253.5 687 209.25 687 c 0
 164.25 687 115.5 726 92.25 767.25 c 1
 72.75 757.5 55.5 733.5 39.75 683.25 c 1
287.25 0 m 2
 217.5 0 151.5 39 148.5 146.25 c 0
 141.75 396 142.5 407.25 131.25 567 c 1
 225 638.25 l 1
 225 189.75 l 2
 225 130.5 242.25 105 300 105 c 2
 525 105 l 1
 525 0 l 1
 287.25 0 l 2
EndSplineSet
EndChar

StartChar: uni0671
Encoding: 1649 1649 12
Width: 525
VWidth: 750
GlyphClass: 2
Flags: HMW
HStem: 670.5 32.25<96 96> 670.5 48.75<289.5 322.125> 798 54<321.75 348.375>
VStem: 174 29.25<742.5 786 767.25 786> 196.5 104.25 377.25 34.5<745.125 762.375>
AnchorPoint: "Anchor-1" 262.5 937.5 basechar 0
AnchorPoint: "Anchor-0" 285 -82.5 basechar 0
LayerCount: 2
Fore
SplineSet
96 670.5 m 1xb4
 96 702.75 l 1
 153 714.75 174 723.75 174 742.5 c 2
 174 767.25 l 1
 203.25 786 l 1
 200.25 767.25 200.25 748.5 201.75 738 c 0
 202.5 732 204 729 205.5 729 c 0xb4
 216.75 729 290.25 852 353.25 852 c 0
 389.25 852 411.75 813 411.75 760.5 c 0
 411.75 678.75 359.25 670.5 285 670.5 c 0x74
 228 670.5 200.25 675.75 192 693.75 c 1
 154.5 671.25 145.5 669.75 96 670.5 c 1xb4
297 719.25 m 0x6c
 348 719.25 377.25 735 377.25 755.25 c 0
 377.25 769.5 362.25 798 334.5 798 c 0
 303.75 798 269.25 759.75 241.5 728.25 c 1
 258 720.75 282 719.25 297 719.25 c 0x6c
226.5 -27.75 m 1
 196.5 525.75 l 1
 300 614.25 l 1
 301.5 96.75 l 1
 241.5 -27.75 l 1
 226.5 -27.75 l 1
EndSplineSet
Substitution2: "'fina' Terminal Forms lookup 31 subtable" uniFB51
Substitution2: "'aalt' Access All Alternates lookup 0 subtable" uniFB51
EndChar

StartChar: uniFB51
Encoding: 64337 64337 13
Width: 525
VWidth: 750
GlyphClass: 2
Flags: HMW
HStem: 0 105<252.375 525 300 525 300 525> 685.5 32.25<59.25 59.25> 685.5 48.75<252.75 285.375> 813 54<285 311.625>
VStem: 131.25 93.75<567 567> 137.25 29.25<757.5 801 782.25 801> 340.5 34.5<760.125 777.375>
AnchorPoint: "Anchor-1" 225 937.5 basechar 0
AnchorPoint: "Anchor-0" 315 -90 basechar 0
LayerCount: 2
Fore
SplineSet
59.25 685.5 m 1xda
 59.25 717.75 l 1
 116.25 729.75 137.25 738.75 137.25 757.5 c 2
 137.25 782.25 l 1
 166.5 801 l 1
 163.5 782.25 163.5 763.5 165 753 c 0
 165.75 747 167.25 744 168.75 744 c 0xd6
 180 744 253.5 867 316.5 867 c 0
 352.5 867 375 828 375 775.5 c 0
 375 693.75 322.5 685.5 248.25 685.5 c 0xba
 191.25 685.5 163.5 690.75 155.25 708.75 c 1
 117.75 686.25 108.75 684.75 59.25 685.5 c 1xda
260.25 734.25 m 0xba
 311.25 734.25 340.5 750 340.5 770.25 c 0
 340.5 784.5 325.5 813 297.75 813 c 0
 267 813 232.5 774.75 204.75 743.25 c 1
 221.25 735.75 245.25 734.25 260.25 734.25 c 0xba
287.25 0 m 2
 217.5 0 151.5 39 148.5 146.25 c 0
 141.75 396 142.5 407.25 131.25 567 c 1
 225 638.25 l 1
 225 189.75 l 2
 225 130.5 242.25 105 300 105 c 2
 525 105 l 1
 525 0 l 1
 287.25 0 l 2
EndSplineSet
EndChar

StartChar: uni066E
Encoding: 1646 1646 14
Width: 525
VWidth: 750
GlyphClass: 2
Flags: HMW
HStem: 0 105<152.25 159.75 159.75 361.5>
VStem: 0 72.75<89.25 189.375> 437.25 87.75<133.5 165>
AnchorPoint: "Anchor-1" 262.5 487.5 basechar 0
AnchorPoint: "Anchor-0" 315 -82.5 basechar 0
LayerCount: 2
Fore
SplineSet
159.75 0 m 2
 63.75 0 0 51 0 127.5 c 0
 0 159.75 20.25 226.5 51 294.75 c 1
 94.5 284.25 l 1
 81.75 251.25 72.75 207 72.75 171.75 c 0
 72.75 132 104.25 105 152.25 105 c 2
 383.25 105 l 2
 415.5 105 437.25 121.5 437.25 145.5 c 0
 437.25 184.5 424.5 243 405.75 291.75 c 1
 481.5 367.5 l 1
 507.75 300 525 220.5 525 168.75 c 0
 525 67.5 459.75 0 361.5 0 c 2
 159.75 0 l 2
EndSplineSet
Substitution2: "'fina' Terminal Forms lookup 31 subtable" uni066E.fina
Substitution2: "'medi' Medial Forms lookup 30 subtable" uni066E.medi
Substitution2: "'init' Initial Forms lookup 29 subtable" uni066E.init
AlternateSubs2: "'aalt' Access All Alternates lookup 1 subtable" uni066E.init uni066E.medi uni066E.fina
EndChar

StartChar: uni066E.fina
Encoding: 1114205 -1 15
Width: 525
VWidth: 750
GlyphClass: 2
Flags: HMW
HStem: 0 105<129.75 159.75 159.75 291 507 521.25 521.25 525>
VStem: 0 73.5525 450 27.36
AnchorPoint: "Anchor-1" 262.5 487.5 basechar 0
AnchorPoint: "Anchor-0" 285 -82.5 basechar 0
LayerCount: 2
Fore
SplineSet
159.75 0 m 2
 63.75 0 0 49.5 0 123.75 c 0
 0 180 24.75 251.25 62.25 302.25 c 1
 100.5 297 l 1
 55.5 181.5 67.5 105 129.75 105 c 2
 336 105 l 2
 375.75 105 412.5 133.5 427.5 176.25 c 0
 434.25 197.25 441 220.5 443.25 234 c 1
 498 267.75 l 1
 490.5 240.75 483 209.25 479.25 190.5 c 0
 471 139.5 489 105 525 105 c 1
 525 0 l 1
 521.25 0 l 2
 489 0 462.75 33 450 126 c 1
 439.5 33 376.5 0 291 0 c 2
 159.75 0 l 2
EndSplineSet
EndChar

StartChar: uni066E.medi
Encoding: 1114206 -1 16
Width: 525
VWidth: 750
GlyphClass: 2
Flags: HMW
HStem: 0 105<0 172.5 172.5 179.25 0 172.5 483.75 525>
VStem: 303.75 89.25<151.125 205.5>
AnchorPoint: "Anchor-1" 262.5 532.5 basechar 0
AnchorPoint: "Anchor-0" 300 -82.5 basechar 0
LayerCount: 2
Fore
SplineSet
525 105 m 1
 525 0 l 1
 416.25 0 368.25 24.75 339 123 c 1
 310.5 35.25 273 0 179.25 0 c 2
 0 0 l 1
 0 105 l 1
 172.5 105 l 2
 258.75 105 303.75 108 303.75 194.25 c 0
 303.75 216.75 300.75 243.75 296.25 273.75 c 1
 393 336 l 1
 391.5 300 391.5 168 393 144.75 c 0
 396 106.5 442.5 105 525 105 c 1
EndSplineSet
EndChar

StartChar: uni066E.init
Encoding: 1114207 -1 17
Width: 525
VWidth: 750
GlyphClass: 2
Flags: HMW
HStem: 0 105<0 364.5 0 342.75>
VStem: 418.5 87.75
AnchorPoint: "Anchor-1" 237 450 basechar 0
AnchorPoint: "Anchor-0" 337.5 -60 basechar 0
LayerCount: 2
Fore
SplineSet
0 0 m 1
 0 105 l 1
 364.5 105 l 2
 393 105 420 116.25 418.5 147 c 0
 417.75 172.5 393.75 270.75 379.5 306.75 c 1
 455.25 382.5 l 1
 469.5 345.75 506.25 222 506.25 166.5 c 0
 506.25 93 441.75 0 342.75 0 c 2
 0 0 l 1
EndSplineSet
EndChar

StartChar: uni0628
Encoding: 1576 1576 18
Width: 525
VWidth: 750
GlyphClass: 2
Flags: HMW
HStem: 0 105<152.25 159.75 159.75 361.5>
VStem: 0 72.75<89.25 189.375> 437.25 87.75<133.5 165>
AnchorPoint: "Anchor-1" 262.5 525 basechar 0
AnchorPoint: "Anchor-0" 315 -315 basechar 0
LayerCount: 2
Fore
SplineSet
159.75 0 m 2
 63.75 0 0 51 0 127.5 c 0
 0 159.75 20.25 226.5 51 294.75 c 1
 94.5 284.25 l 1
 81.75 251.25 72.75 207 72.75 171.75 c 0
 72.75 132 104.25 105 152.25 105 c 2
 383.25 105 l 2
 415.5 105 437.25 121.5 437.25 145.5 c 0
 437.25 184.5 424.5 243 405.75 291.75 c 1
 481.5 367.5 l 1
 507.75 300 525 220.5 525 168.75 c 0
 525 67.5 459.75 0 361.5 0 c 2
 159.75 0 l 2
263.25 -265.5 m 1
 198 -195 l 1
 263.25 -125.25 l 1
 327.75 -195 l 1
 263.25 -265.5 l 1
EndSplineSet
Substitution2: "'fina' Terminal Forms lookup 31 subtable" uniFE90
Substitution2: "'medi' Medial Forms lookup 30 subtable" uniFE92
Substitution2: "'init' Initial Forms lookup 29 subtable" uniFE91
AlternateSubs2: "'aalt' Access All Alternates lookup 1 subtable" uniFE91 uniFE92 uniFE90
EndChar

StartChar: uniFE90
Encoding: 65168 65168 19
Width: 525
VWidth: 750
GlyphClass: 2
Flags: HMW
HStem: 0 105<129.75 159.75 159.75 291 507 521.25 521.25 525>
VStem: 0 73.5525 450 27.36
AnchorPoint: "Anchor-1" 262.5 487.5 basechar 0
AnchorPoint: "Anchor-0" 285 -315 basechar 0
LayerCount: 2
Fore
SplineSet
159.75 0 m 2
 63.75 0 0 49.5 0 123.75 c 0
 0 180 24.75 251.25 62.25 302.25 c 1
 100.5 297 l 1
 55.5 181.5 67.5 105 129.75 105 c 2
 336 105 l 2
 375.75 105 412.5 133.5 427.5 176.25 c 0
 434.25 197.25 441 220.5 443.25 234 c 1
 498 267.75 l 1
 490.5 240.75 483 209.25 479.25 190.5 c 0
 471 139.5 489 105 525 105 c 1
 525 0 l 1
 521.25 0 l 2
 489 0 462.75 33 450 126 c 1
 439.5 33 376.5 0 291 0 c 2
 159.75 0 l 2
263.25 -265.5 m 1
 198 -195 l 1
 263.25 -125.25 l 1
 327.75 -195 l 1
 263.25 -265.5 l 1
EndSplineSet
EndChar

StartChar: uniFE92
Encoding: 65170 65170 20
Width: 525
VWidth: 750
GlyphClass: 2
Flags: HMW
HStem: 0 105<0 172.5 172.5 179.25 0 172.5 483.75 525>
VStem: 303.75 89.25<151.125 205.5>
AnchorPoint: "Anchor-1" 262.5 532.5 basechar 0
AnchorPoint: "Anchor-0" 345 -337.5 basechar 0
LayerCount: 2
Fore
SplineSet
525 105 m 1
 525 0 l 1
 416.25 0 368.25 24.75 339 123 c 1
 310.5 35.25 273 0 179.25 0 c 2
 0 0 l 1
 0 105 l 1
 172.5 105 l 2
 258.75 105 303.75 108 303.75 194.25 c 0
 303.75 216.75 300.75 243.75 296.25 273.75 c 1
 393 336 l 1
 391.5 300 391.5 168 393 144.75 c 0
 396 106.5 442.5 105 525 105 c 1
327 -265.5 m 1
 261.75 -195 l 1
 327 -125.25 l 1
 391.5 -195 l 1
 327 -265.5 l 1
EndSplineSet
EndChar

StartChar: uniFE91
Encoding: 65169 65169 21
Width: 525
VWidth: 750
GlyphClass: 2
Flags: HMW
HStem: 0 105<0 364.5 0 342.75>
VStem: 418.5 87.75
AnchorPoint: "Anchor-1" 240 510 basechar 0
AnchorPoint: "Anchor-0" 322.5 -337.5 basechar 0
LayerCount: 2
Fore
SplineSet
0 0 m 1
 0 105 l 1
 364.5 105 l 2
 393 105 420 116.25 418.5 147 c 0
 417.75 172.5 393.75 270.75 379.5 306.75 c 1
 455.25 382.5 l 1
 469.5 345.75 506.25 222 506.25 166.5 c 0
 506.25 93 441.75 0 342.75 0 c 2
 0 0 l 1
263.25 -265.5 m 1
 198 -195 l 1
 263.25 -125.25 l 1
 327.75 -195 l 1
 263.25 -265.5 l 1
EndSplineSet
EndChar

StartChar: uni067E
Encoding: 1662 1662 22
Width: 525
VWidth: 750
GlyphClass: 2
Flags: HMW
HStem: 0 105<152.25 159.75 159.75 361.5>
VStem: 0 72.75<89.25 189.375> 437.25 87.75<133.5 165>
AnchorPoint: "Anchor-1" 262.5 487.5 basechar 0
AnchorPoint: "Anchor-0" 300 -435 basechar 0
LayerCount: 2
Fore
SplineSet
159.75 0 m 2
 63.75 0 0 51 0 127.5 c 0
 0 159.75 20.25 226.5 51 294.75 c 1
 94.5 284.25 l 1
 81.75 251.25 72.75 207 72.75 171.75 c 0
 72.75 132 104.25 105 152.25 105 c 2
 383.25 105 l 2
 415.5 105 437.25 121.5 437.25 145.5 c 0
 437.25 184.5 424.5 243 405.75 291.75 c 1
 481.5 367.5 l 1
 507.75 300 525 220.5 525 168.75 c 0
 525 67.5 459.75 0 361.5 0 c 2
 159.75 0 l 2
190.5 -234.75 m 1
 128.25 -167.25 l 1
 190.5 -100.5 l 1
 252 -167.25 l 1
 190.5 -234.75 l 1
328.5 -234.75 m 1
 266.25 -167.25 l 1
 328.5 -100.5 l 1
 390 -167.25 l 1
 328.5 -234.75 l 1
258 -375 m 1
 195.75 -307.5 l 1
 258 -240.75 l 1
 319.5 -307.5 l 1
 258 -375 l 1
EndSplineSet
Substitution2: "'fina' Terminal Forms lookup 31 subtable" uniFB57
Substitution2: "'medi' Medial Forms lookup 30 subtable" uniFB59
Substitution2: "'init' Initial Forms lookup 29 subtable" uniFB58
AlternateSubs2: "'aalt' Access All Alternates lookup 1 subtable" uniFB58 uniFB59 uniFB57
EndChar

StartChar: uniFB57
Encoding: 64343 64343 23
Width: 525
VWidth: 750
GlyphClass: 2
Flags: HMW
HStem: 0 105<129.75 159.75 159.75 291 507 521.25 521.25 525>
VStem: 0 73.5525 450 27.36
AnchorPoint: "Anchor-1" 262.5 450 basechar 0
AnchorPoint: "Anchor-0" 285 -435 basechar 0
LayerCount: 2
Fore
SplineSet
159.75 0 m 2
 63.75 0 0 49.5 0 123.75 c 0
 0 180 24.75 251.25 62.25 302.25 c 1
 100.5 297 l 1
 55.5 181.5 67.5 105 129.75 105 c 2
 336 105 l 2
 375.75 105 412.5 133.5 427.5 176.25 c 0
 434.25 197.25 441 220.5 443.25 234 c 1
 498 267.75 l 1
 490.5 240.75 483 209.25 479.25 190.5 c 0
 471 139.5 489 105 525 105 c 1
 525 0 l 1
 521.25 0 l 2
 489 0 462.75 33 450 126 c 1
 439.5 33 376.5 0 291 0 c 2
 159.75 0 l 2
183 -234.75 m 1
 120.75 -167.25 l 1
 183 -100.5 l 1
 244.5 -167.25 l 1
 183 -234.75 l 1
321 -234.75 m 1
 258.75 -167.25 l 1
 321 -100.5 l 1
 382.5 -167.25 l 1
 321 -234.75 l 1
250.5 -375 m 1
 188.25 -307.5 l 1
 250.5 -240.75 l 1
 312 -307.5 l 1
 250.5 -375 l 1
EndSplineSet
EndChar

StartChar: uniFB59
Encoding: 64345 64345 24
Width: 525
VWidth: 750
GlyphClass: 2
Flags: HMW
HStem: 0 105<0 172.5 172.5 179.25 0 172.5 483.75 525>
VStem: 303.75 89.25<151.125 205.5>
AnchorPoint: "Anchor-1" 262.5 525 basechar 0
AnchorPoint: "Anchor-0" 262.5 -435 basechar 0
LayerCount: 2
Fore
SplineSet
525 105 m 1
 525 0 l 1
 416.25 0 368.25 24.75 339 123 c 1
 310.5 35.25 273 0 179.25 0 c 2
 0 0 l 1
 0 105 l 1
 172.5 105 l 2
 258.75 105 303.75 108 303.75 194.25 c 0
 303.75 216.75 300.75 243.75 296.25 273.75 c 1
 393 336 l 1
 391.5 300 391.5 168 393 144.75 c 0
 396 106.5 442.5 105 525 105 c 1
192.75 -234.75 m 1
 130.5 -167.25 l 1
 192.75 -100.5 l 1
 254.25 -167.25 l 1
 192.75 -234.75 l 1
330.75 -234.75 m 1
 268.5 -167.25 l 1
 330.75 -100.5 l 1
 392.25 -167.25 l 1
 330.75 -234.75 l 1
260.25 -375 m 1
 198 -307.5 l 1
 260.25 -240.75 l 1
 321.75 -307.5 l 1
 260.25 -375 l 1
EndSplineSet
EndChar

StartChar: uniFB58
Encoding: 64344 64344 25
Width: 525
VWidth: 750
GlyphClass: 2
Flags: HMW
HStem: 0 105<0 364.5 0 342.75>
VStem: 418.5 87.75
AnchorPoint: "Anchor-1" 285 450 basechar 0
AnchorPoint: "Anchor-0" 322.5 -435 basechar 0
LayerCount: 2
Fore
SplineSet
0 0 m 1
 0 105 l 1
 364.5 105 l 2
 393 105 420 116.25 418.5 147 c 0
 417.75 172.5 393.75 270.75 379.5 306.75 c 1
 455.25 382.5 l 1
 469.5 345.75 506.25 222 506.25 166.5 c 0
 506.25 93 441.75 0 342.75 0 c 2
 0 0 l 1
209.25 -234.75 m 1
 147 -167.25 l 1
 209.25 -100.5 l 1
 270.75 -167.25 l 1
 209.25 -234.75 l 1
347.25 -234.75 m 1
 285 -167.25 l 1
 347.25 -100.5 l 1
 408.75 -167.25 l 1
 347.25 -234.75 l 1
276.75 -375 m 1
 214.5 -307.5 l 1
 276.75 -240.75 l 1
 338.25 -307.5 l 1
 276.75 -375 l 1
EndSplineSet
EndChar

StartChar: uni062A
Encoding: 1578 1578 26
Width: 525
VWidth: 750
GlyphClass: 2
Flags: HMW
HStem: 0 105<152.25 159.75 159.75 361.5>
VStem: 0 72.75<89.25 189.375> 437.25 87.75<133.5 165>
AnchorPoint: "Anchor-1" 255 675 basechar 0
AnchorPoint: "Anchor-0" 315 -82.5 basechar 0
LayerCount: 2
Fore
SplineSet
350.25 400.5 m 1
 284.25 469.5 l 1
 348 539.25 l 1
 413.25 471 l 1
 350.25 400.5 l 1
182.25 398.25 m 1
 116.25 467.25 l 1
 179.25 537 l 1
 244.5 469.5 l 1
 182.25 398.25 l 1
159.75 0 m 2
 63.75 0 0 51 0 127.5 c 0
 0 159.75 20.25 226.5 51 294.75 c 1
 94.5 284.25 l 1
 81.75 251.25 72.75 207 72.75 171.75 c 0
 72.75 132 104.25 105 152.25 105 c 2
 383.25 105 l 2
 415.5 105 437.25 121.5 437.25 145.5 c 0
 437.25 184.5 424.5 243 405.75 291.75 c 1
 481.5 367.5 l 1
 507.75 300 525 220.5 525 168.75 c 0
 525 67.5 459.75 0 361.5 0 c 2
 159.75 0 l 2
EndSplineSet
Substitution2: "'fina' Terminal Forms lookup 31 subtable" uniFE96
Substitution2: "'medi' Medial Forms lookup 30 subtable" uniFE98
Substitution2: "'init' Initial Forms lookup 29 subtable" uniFE97
AlternateSubs2: "'aalt' Access All Alternates lookup 1 subtable" uniFE97 uniFE98 uniFE96
EndChar

StartChar: uniFE96
Encoding: 65174 65174 27
Width: 525
VWidth: 750
GlyphClass: 2
Flags: HMW
HStem: 0 105<129.75 159.75 159.75 291 507 521.25 521.25 525>
VStem: 0 73.5525 450 27.36
AnchorPoint: "Anchor-1" 259.5 675 basechar 0
AnchorPoint: "Anchor-0" 285 -82.5 basechar 0
LayerCount: 2
Fore
SplineSet
366.75 400.5 m 1
 300.75 469.5 l 1
 364.5 539.25 l 1
 429.75 471 l 1
 366.75 400.5 l 1
198.75 398.25 m 1
 132.75 467.25 l 1
 195.75 537 l 1
 261 469.5 l 1
 198.75 398.25 l 1
159.75 0 m 2
 63.75 0 0 49.5 0 123.75 c 0
 0 180 24.75 251.25 62.25 302.25 c 1
 100.5 297 l 1
 55.5 181.5 67.5 105 129.75 105 c 2
 336 105 l 2
 375.75 105 412.5 133.5 427.5 176.25 c 0
 434.25 197.25 441 220.5 443.25 234 c 1
 498 267.75 l 1
 490.5 240.75 483 209.25 479.25 190.5 c 0
 471 139.5 489 105 525 105 c 1
 525 0 l 1
 521.25 0 l 2
 489 0 462.75 33 450 126 c 1
 439.5 33 376.5 0 291 0 c 2
 159.75 0 l 2
EndSplineSet
EndChar

StartChar: uniFE98
Encoding: 65176 65176 28
Width: 525
VWidth: 750
GlyphClass: 2
Flags: HMW
HStem: 0 105<0 172.5 172.5 179.25 0 172.5 483.75 525>
VStem: 303.75 89.25<151.125 205.5>
AnchorPoint: "Anchor-1" 264.75 675 basechar 0
AnchorPoint: "Anchor-0" 330 -82.5 basechar 0
LayerCount: 2
Fore
SplineSet
297.75 400.5 m 1
 231.75 469.5 l 1
 295.5 539.25 l 1
 360.75 471 l 1
 297.75 400.5 l 1
129.75 398.25 m 1
 63.75 467.25 l 1
 126.75 537 l 1
 192 469.5 l 1
 129.75 398.25 l 1
525 105 m 1
 525 0 l 1
 416.25 0 368.25 24.75 339 123 c 1
 310.5 35.25 273 0 179.25 0 c 2
 0 0 l 1
 0 105 l 1
 172.5 105 l 2
 258.75 105 303.75 108 303.75 194.25 c 0
 303.75 216.75 300.75 243.75 296.25 273.75 c 1
 393 336 l 1
 391.5 300 391.5 168 393 144.75 c 0
 396 106.5 442.5 105 525 105 c 1
EndSplineSet
EndChar

StartChar: uniFE97
Encoding: 65175 65175 29
Width: 525
VWidth: 750
GlyphClass: 2
Flags: HMW
HStem: 0 105<0 364.5 0 342.75>
VStem: 418.5 87.75
AnchorPoint: "Anchor-1" 217.5 675 basechar 0
AnchorPoint: "Anchor-0" 337.5 -82.5 basechar 0
LayerCount: 2
Fore
SplineSet
298.5 400.5 m 1
 232.5 469.5 l 1
 296.25 539.25 l 1
 361.5 471 l 1
 298.5 400.5 l 1
130.5 398.25 m 1
 64.5 467.25 l 1
 127.5 537 l 1
 192.75 469.5 l 1
 130.5 398.25 l 1
0 0 m 1
 0 105 l 1
 364.5 105 l 2
 393 105 420 116.25 418.5 147 c 0
 417.75 172.5 393.75 270.75 379.5 306.75 c 1
 455.25 382.5 l 1
 469.5 345.75 506.25 222 506.25 166.5 c 0
 506.25 93 441.75 0 342.75 0 c 2
 0 0 l 1
EndSplineSet
EndChar

StartChar: uni062B
Encoding: 1579 1579 30
Width: 525
VWidth: 750
GlyphClass: 2
Flags: HMW
HStem: 0 105<152.25 159.75 159.75 361.5>
VStem: 0 72.75<89.25 189.375> 437.25 87.75<133.5 165>
AnchorPoint: "Anchor-1" 262.5 772.5 basechar 0
AnchorPoint: "Anchor-0" 315 -82.5 basechar 0
LayerCount: 2
Fore
SplineSet
261 519.75 m 1
 195.75 590.25 l 1
 261 660 l 1
 325.5 590.25 l 1
 261 519.75 l 1
197.25 378.75 m 1
 132 449.25 l 1
 197.25 519 l 1
 261.75 449.25 l 1
 197.25 378.75 l 1
348.75 378.75 m 1
 283.5 449.25 l 1
 348.75 519 l 1
 413.25 449.25 l 1
 348.75 378.75 l 1
159.75 0 m 2
 63.75 0 0 51 0 127.5 c 0
 0 159.75 20.25 226.5 51 294.75 c 1
 94.5 284.25 l 1
 81.75 251.25 72.75 207 72.75 171.75 c 0
 72.75 132 104.25 105 152.25 105 c 2
 383.25 105 l 2
 415.5 105 437.25 121.5 437.25 145.5 c 0
 437.25 184.5 424.5 243 405.75 291.75 c 1
 481.5 367.5 l 1
 507.75 300 525 220.5 525 168.75 c 0
 525 67.5 459.75 0 361.5 0 c 2
 159.75 0 l 2
EndSplineSet
Substitution2: "'fina' Terminal Forms lookup 31 subtable" uniFE9A
Substitution2: "'medi' Medial Forms lookup 30 subtable" uniFE9C
Substitution2: "'init' Initial Forms lookup 29 subtable" uniFE9B
AlternateSubs2: "'aalt' Access All Alternates lookup 1 subtable" uniFE9B uniFE9C uniFE9A
EndChar

StartChar: uniFE9A
Encoding: 65178 65178 31
Width: 525
VWidth: 750
GlyphClass: 2
Flags: HMW
HStem: 0 105<129.75 159.75 159.75 291 507 521.25 521.25 525>
VStem: 0 73.5525 450 27.36
AnchorPoint: "Anchor-1" 240 750 basechar 0
AnchorPoint: "Anchor-0" 285 -82.5 basechar 0
LayerCount: 2
Fore
SplineSet
264.75 478.5 m 1
 199.5 549 l 1
 264.75 618.75 l 1
 329.25 549 l 1
 264.75 478.5 l 1
201 337.5 m 1
 135.75 408 l 1
 201 477.75 l 1
 265.5 408 l 1
 201 337.5 l 1
352.5 337.5 m 1
 287.25 408 l 1
 352.5 477.75 l 1
 417 408 l 1
 352.5 337.5 l 1
159.75 0 m 2
 63.75 0 0 49.5 0 123.75 c 0
 0 180 24.75 251.25 62.25 302.25 c 1
 100.5 297 l 1
 55.5 181.5 67.5 105 129.75 105 c 2
 336 105 l 2
 375.75 105 412.5 133.5 427.5 176.25 c 0
 434.25 197.25 441 220.5 443.25 234 c 1
 498 267.75 l 1
 490.5 240.75 483 209.25 479.25 190.5 c 0
 471 139.5 489 105 525 105 c 1
 525 0 l 1
 521.25 0 l 2
 489 0 462.75 33 450 126 c 1
 439.5 33 376.5 0 291 0 c 2
 159.75 0 l 2
EndSplineSet
EndChar

StartChar: uniFE9C
Encoding: 65180 65180 32
Width: 525
VWidth: 750
GlyphClass: 2
Flags: HMW
HStem: 0 105<0 172.5 172.5 179.25 0 172.5 483.75 525>
VStem: 303.75 89.25<151.125 205.5 144.75 378.75>
AnchorPoint: "Anchor-1" 253.5 772.5 basechar 0
AnchorPoint: "Anchor-0" 330 -82.5 basechar 0
LayerCount: 2
Fore
SplineSet
216 519.75 m 1
 150.75 590.25 l 1
 216 660 l 1
 280.5 590.25 l 1
 216 519.75 l 1
152.25 378.75 m 1
 87 449.25 l 1
 152.25 519 l 1
 216.75 449.25 l 1
 152.25 378.75 l 1
303.75 378.75 m 1
 238.5 449.25 l 1
 303.75 519 l 1
 368.25 449.25 l 1
 303.75 378.75 l 1
525 105 m 1
 525 0 l 1
 416.25 0 368.25 24.75 339 123 c 1
 310.5 35.25 273 0 179.25 0 c 2
 0 0 l 1
 0 105 l 1
 172.5 105 l 2
 258.75 105 303.75 108 303.75 194.25 c 0
 303.75 216.75 300.75 243.75 296.25 273.75 c 1
 393 336 l 1
 391.5 300 391.5 168 393 144.75 c 0
 396 106.5 442.5 105 525 105 c 1
EndSplineSet
EndChar

StartChar: uniFE9B
Encoding: 65179 65179 33
Width: 525
VWidth: 750
GlyphClass: 2
Flags: HMW
HStem: 0 105<0 364.5 0 342.75>
VStem: 418.5 87.75
AnchorPoint: "Anchor-1" 217.5 772.5 basechar 0
AnchorPoint: "Anchor-0" 337.5 -82.5 basechar 0
LayerCount: 2
Fore
SplineSet
182.25 519.75 m 1
 117 590.25 l 1
 182.25 660 l 1
 246.75 590.25 l 1
 182.25 519.75 l 1
118.5 378.75 m 1
 53.25 449.25 l 1
 118.5 519 l 1
 183 449.25 l 1
 118.5 378.75 l 1
270 378.75 m 1
 204.75 449.25 l 1
 270 519 l 1
 334.5 449.25 l 1
 270 378.75 l 1
0 0 m 1
 0 105 l 1
 364.5 105 l 2
 393 105 420 116.25 418.5 147 c 0
 417.75 172.5 393.75 270.75 379.5 306.75 c 1
 455.25 382.5 l 1
 469.5 345.75 506.25 222 506.25 166.5 c 0
 506.25 93 441.75 0 342.75 0 c 2
 0 0 l 1
EndSplineSet
EndChar

StartChar: uni0679
Encoding: 1657 1657 34
Width: 525
VWidth: 750
GlyphClass: 2
Flags: HMW
HStem: 0 105<152.25 159.75 159.75 361.5> 413.25 47.25<150 155.25 150 253.5 133.5 155.25> 413.25 50.25<200.25 253.5> 525 46.5<281.25 291.75>
VStem: 0 72.75<89.25 189.375> 175.5 17.25 318 30<478.5 497.625> 437.25 87.75<133.5 165>
AnchorPoint: "Anchor-1" 270 772.5 basechar 0
AnchorPoint: "Anchor-0" 315 -60 basechar 0
LayerCount: 2
Fore
SplineSet
348 490.5 m 0xdf
 348 432 314.25 413.25 253.5 413.25 c 2
 133.5 413.25 l 1
 133.5 451.5 146.25 460.5 153.75 460.5 c 0
 156.75 460.5 161.25 460.5 165.75 462 c 0
 174 472.5 176.25 486.75 175.5 510.75 c 0
 173.25 571.5 171 628.5 159.75 648 c 1
 197.25 681 l 1
 215.25 633.75 l 1
 195 612 197.25 539.25 192.75 489 c 1
 225.75 538.5 265.5 571.5 297 571.5 c 0
 330.75 571.5 348 532.5 348 490.5 c 0xdf
282 525 m 0
 258.75 525 228.75 495 200.25 463.5 c 1
 271.5 463.5 l 2xbf
 301.5 463.5 318 468.75 318 488.25 c 0
 318 507 301.5 525 282 525 c 0
481.5 367.5 m 1
 507.75 300 525 220.5 525 168.75 c 0
 525 67.5 459.75 0 361.5 0 c 2
 159.75 0 l 2
 63.75 0 0 51 0 127.5 c 0
 0 159.75 20.25 226.5 51 294.75 c 1
 94.5 284.25 l 1
 81.75 251.25 72.75 207 72.75 171.75 c 0
 72.75 132 104.25 105 152.25 105 c 2
 383.25 105 l 2
 415.5 105 437.25 121.5 437.25 145.5 c 0
 437.25 184.5 424.5 243 405.75 291.75 c 1
 481.5 367.5 l 1
EndSplineSet
Substitution2: "'fina' Terminal Forms lookup 31 subtable" uniFB67
Substitution2: "'medi' Medial Forms lookup 30 subtable" uniFB69
Substitution2: "'init' Initial Forms lookup 29 subtable" uniFB68
AlternateSubs2: "'aalt' Access All Alternates lookup 1 subtable" uniFB68 uniFB69 uniFB67
EndChar

StartChar: uniFB67
Encoding: 64359 64359 35
Width: 525
VWidth: 750
GlyphClass: 2
Flags: HMW
HStem: 0 105<129.75 159.75 159.75 291 507 521.25 521.25 525> 376.5 50.25<222.75 276> 437.25 15G 488.25 46.5<303.75 314.25>
VStem: 0 73.5525 198 17.25 340.5 30<441.75 460.875> 450 27.36
AnchorPoint: "Anchor-1" 240 750 basechar 0
AnchorPoint: "Anchor-0" 285 -82.5 basechar 0
LayerCount: 2
Fore
SplineSet
370.5 453.75 m 0
 370.5 395.25 336.75 376.5 276 376.5 c 2
 156 376.5 l 1
 156 414.75 168.75 423.75 176.25 423.75 c 0
 179.25 423.75 183.75 423.75 188.25 425.25 c 0
 196.5 435.75 198.75 450 198 474 c 0
 195.75 534.75 193.5 591.75 182.25 611.25 c 1
 219.75 644.25 l 1
 237.75 597 l 1
 217.5 575.25 219.75 502.5 215.25 452.25 c 1
 248.25 501.75 288 534.75 319.5 534.75 c 0
 353.25 534.75 370.5 495.75 370.5 453.75 c 0
304.5 488.25 m 0
 281.25 488.25 251.25 458.25 222.75 426.75 c 1
 294 426.75 l 2
 324 426.75 340.5 432 340.5 451.5 c 0
 340.5 470.25 324 488.25 304.5 488.25 c 0
479.25 190.5 m 0
 471 139.5 489 105 525 105 c 1
 525 0 l 1
 521.25 0 l 2
 489 0 462.75 33 450 126 c 1
 439.5 33 376.5 0 291 0 c 2
 159.75 0 l 2
 63.75 0 0 49.5 0 123.75 c 0
 0 180 24.75 251.25 62.25 302.25 c 1
 100.5 297 l 1
 55.5 181.5 67.5 105 129.75 105 c 2
 336 105 l 2
 375.75 105 412.5 133.5 427.5 176.25 c 0
 434.25 197.25 441 220.5 443.25 234 c 1
 498 267.75 l 1
 490.5 240.75 483 209.25 479.25 190.5 c 0
EndSplineSet
EndChar

StartChar: uniFB69
Encoding: 64361 64361 36
Width: 525
VWidth: 750
GlyphClass: 2
Flags: HMW
HStem: 0 105<0 172.5 172.5 179.25 0 172.5 483.75 525> 391.5 50.25<155.25 208.5> 503.25 46.5<236.25 246.75>
VStem: 130.5 17.25 273 30<456.75 475.875> 303.75 89.25<151.125 205.5>
AnchorPoint: "Anchor-1" 262.5 772.5 basechar 0
AnchorPoint: "Anchor-0" 330 -82.5 basechar 0
LayerCount: 2
Fore
SplineSet
303 468.75 m 0
 303 410.25 269.25 391.5 208.5 391.5 c 2
 88.5 391.5 l 1
 88.5 429.75 101.25 438.75 108.75 438.75 c 0
 111.75 438.75 116.25 438.75 120.75 440.25 c 0
 129 450.75 131.25 465 130.5 489 c 0
 128.25 549.75 126 606.75 114.75 626.25 c 1
 152.25 659.25 l 1
 170.25 612 l 1
 150 590.25 152.25 517.5 147.75 467.25 c 1
 180.75 516.75 220.5 549.75 252 549.75 c 0
 285.75 549.75 303 510.75 303 468.75 c 0
237 503.25 m 0
 213.75 503.25 183.75 473.25 155.25 441.75 c 1
 226.5 441.75 l 2
 256.5 441.75 273 447 273 466.5 c 0
 273 485.25 256.5 503.25 237 503.25 c 0
393 144.75 m 0xd4
 396 106.5 442.5 105 525 105 c 1
 525 0 l 1
 416.25 0 368.25 24.75 339 123 c 1
 310.5 35.25 273 0 179.25 0 c 2
 0 0 l 1
 0 105 l 1
 172.5 105 l 2
 258.75 105 303.75 108 303.75 194.25 c 0
 303.75 216.75 300.75 243.75 296.25 273.75 c 1
 393 336 l 1
 391.5 300 391.5 168 393 144.75 c 0xd4
EndSplineSet
EndChar

StartChar: uniFB68
Encoding: 64360 64360 37
Width: 525
VWidth: 750
GlyphClass: 2
Flags: HMW
HStem: 0 105<0 342.75 0 364.5> 414 47.25<135 140.25 135 238.5 118.5 140.25> 414 50.25<185.25 238.5> 525.75 46.5<266.25 276.75>
VStem: 160.5 17.25 303 30<479.25 498.375> 418.5 87.75
AnchorPoint: "Anchor-1" 217.5 772.5 basechar 0
AnchorPoint: "Anchor-0" 337.5 -82.5 basechar 0
LayerCount: 2
Fore
SplineSet
333 491.25 m 0xde
 333 432.75 299.25 414 238.5 414 c 2
 118.5 414 l 1
 118.5 452.25 131.25 461.25 138.75 461.25 c 0
 141.75 461.25 146.25 461.25 150.75 462.75 c 0
 159 473.25 161.25 487.5 160.5 511.5 c 0
 158.25 572.25 156 629.25 144.75 648.75 c 1
 182.25 681.75 l 1
 200.25 634.5 l 1
 180 612.75 182.25 540 177.75 489.75 c 1
 210.75 539.25 250.5 572.25 282 572.25 c 0
 315.75 572.25 333 533.25 333 491.25 c 0xde
267 525.75 m 0
 243.75 525.75 213.75 495.75 185.25 464.25 c 1
 256.5 464.25 l 2xbe
 286.5 464.25 303 469.5 303 489 c 0
 303 507.75 286.5 525.75 267 525.75 c 0
455.25 382.5 m 1
 469.5 345.75 506.25 222 506.25 166.5 c 0
 506.25 93 441.75 0 342.75 0 c 2
 0 0 l 1
 0 105 l 1
 364.5 105 l 2
 393 105 420 116.25 418.5 147 c 0
 417.75 172.5 393.75 270.75 379.5 306.75 c 1
 455.25 382.5 l 1
EndSplineSet
EndChar

StartChar: uni062C
Encoding: 1580 1580 38
Width: 525
VWidth: 750
GlyphClass: 2
Flags: HMW
HStem: -364.5 102<223.125 306.375> 258.75 105<210.375 255.375>
VStem: 24.75 82.5<-163.5 -47.25>
AnchorPoint: "Anchor-1" 262.5 507.75 basechar 0
AnchorPoint: "Anchor-0" 315 -420 basechar 0
LayerCount: 2
Fore
SplineSet
273 -262.5 m 0
 345.75 -262.5 423 -237.75 466.5 -211.5 c 1
 477.75 -225 l 1
 436.5 -300 366 -364.5 246.75 -364.5 c 0
 105.75 -364.5 24.75 -273.75 24.75 -135.75 c 0
 24.75 41.25 158.25 174 393.75 210 c 1
 333.75 236.25 285 258.75 225.75 258.75 c 0
 171.75 258.75 113.25 240 66 212.25 c 1
 60 216.75 l 1
 92.25 318.75 l 1
 135 351 186.75 363.75 234 363.75 c 0
 346.5 363.75 370.5 292.5 498 292.5 c 1
 499.5 259.5 474.75 207.75 468.75 192 c 1
 394.5 197.25 107.25 108.75 107.25 -111 c 0
 107.25 -216 173.25 -262.5 273 -262.5 c 0
327.75 -113.25 m 1
 262.5 -42.75 l 1
 327.75 27 l 1
 392.25 -42.75 l 1
 327.75 -113.25 l 1
EndSplineSet
Substitution2: "'fina' Terminal Forms lookup 31 subtable" uniFE9E
Substitution2: "'medi' Medial Forms lookup 30 subtable" uniFEA0
Substitution2: "'init' Initial Forms lookup 29 subtable" uniFE9F
AlternateSubs2: "'aalt' Access All Alternates lookup 1 subtable" uniFE9F uniFEA0 uniFE9E
EndChar

StartChar: uniFE9E
Encoding: 65182 65182 39
Width: 525
VWidth: 750
GlyphClass: 2
Flags: HMW
HStem: -364.5 102<223.125 306.375> 0 105<430.5 462 462 525> 192 100.5 258.75 105<210.375 255.375>
VStem: 24.75 82.5<-163.5 -47.25> 327.75 197.25
AnchorPoint: "Anchor-1" 262.5 585 basechar 0
AnchorPoint: "Anchor-0" 315 -420 basechar 0
LayerCount: 2
Fore
SplineSet
462 0 m 2xdc
 386.25 0 333 54.75 327.75 159 c 1
 223.5 115.5 107.25 29.25 107.25 -111 c 0
 107.25 -216 173.25 -262.5 273 -262.5 c 0
 345.75 -262.5 423 -237.75 466.5 -211.5 c 1
 477.75 -225 l 1
 436.5 -300 366 -364.5 246.75 -364.5 c 0
 105.75 -364.5 24.75 -273.75 24.75 -135.75 c 0
 24.75 41.25 158.25 174 393.75 210 c 1
 333.75 236.25 285 258.75 225.75 258.75 c 0
 171.75 258.75 113.25 240 66 212.25 c 1
 60 216.75 l 1
 92.25 318.75 l 1
 135 351 186.75 363.75 234 363.75 c 0xdc
 346.5 363.75 370.5 292.5 498 292.5 c 1
 499.5 259.5 474.75 207.75 468.75 192 c 1xec
 447 193.5 408 187.5 363.75 172.5 c 1
 375 123 402.75 105 430.5 105 c 2
 525 105 l 1
 525 0 l 1
 462 0 l 2xdc
297 -168.75 m 1
 231.75 -98.25 l 1
 297 -28.5 l 1
 361.5 -98.25 l 1
 297 -168.75 l 1
EndSplineSet
EndChar

StartChar: uniFEA0
Encoding: 65184 65184 40
Width: 525
VWidth: 750
GlyphClass: 2
Flags: HMW
HStem: 0 105<0 138.75 138.75 145.5 0 138.75 508.5 525> 279.75 102.75<220.875 242.625>
VStem: 430.5 34.5
AnchorPoint: "Anchor-1" 285 585 basechar 0
AnchorPoint: "Anchor-0" 315 -375 basechar 0
LayerCount: 2
Fore
SplineSet
508.5 105 m 2
 525 105 l 1
 525 0 l 1
 508.5 0 l 2
 442.5 0 431.25 92.25 430.5 143.25 c 1
 417.75 125.25 399.75 104.25 370.5 79.5 c 0
 282 3.75 207.75 0 145.5 0 c 2
 0 0 l 1
 0 105 l 1
 138.75 105 l 2
 180.75 105 303 108 382.5 167.25 c 0
 414.75 191.25 429 216.75 430.5 226.5 c 1
 326.25 270.75 263.25 279.75 222 279.75 c 0
 172.5 279.75 129.75 267 81.75 233.25 c 1
 75.75 237.75 l 1
 108 337.5 l 1
 151.5 367.5 197.25 382.5 244.5 382.5 c 0
 343.5 382.5 423.75 315.75 518.25 302.25 c 1
 498.75 204.75 l 1
 483 203.25 473.25 198.75 465 190.5 c 1
 465 186.75 l 2
 465 139.5 465 105 508.5 105 c 2
198 -195 m 1
 263.25 -125.25 l 1
 327.75 -195 l 1
 263.25 -265.5 l 1
 198 -195 l 1
EndSplineSet
EndChar

StartChar: uniFE9F
Encoding: 65183 65183 41
Width: 525
VWidth: 750
GlyphClass: 2
Flags: HMW
HStem: 0 105<0 138.75 0 138.75 138.75 145.5> 279.75 102.75<220.875 242.625>
VStem: 0 518.25<0 302.25 105 302.25>
AnchorPoint: "Anchor-1" 285 585 basechar 0
AnchorPoint: "Anchor-0" 315 -375 basechar 0
LayerCount: 2
Fore
SplineSet
0 0 m 1
 0 105 l 1
 138.75 105 l 2
 180.75 105 303 108 382.5 167.25 c 0
 414.75 191.25 429 216.75 430.5 226.5 c 1
 326.25 270.75 263.25 279.75 222 279.75 c 0
 172.5 279.75 129.75 267 81.75 233.25 c 1
 75.75 237.75 l 1
 108 337.5 l 1
 151.5 367.5 197.25 382.5 244.5 382.5 c 0
 343.5 382.5 423.75 315.75 518.25 302.25 c 1
 498.75 204.75 l 1
 444.75 200.25 459.75 155.25 370.5 79.5 c 0
 282 3.75 207.75 0 145.5 0 c 2
 0 0 l 1
263.25 -265.5 m 1
 198 -195 l 1
 263.25 -125.25 l 1
 327.75 -195 l 1
 263.25 -265.5 l 1
EndSplineSet
EndChar

StartChar: uni0686
Encoding: 1670 1670 42
Width: 525
VWidth: 750
GlyphClass: 2
Flags: HMW
HStem: -364.5 102<223.125 306.375> 258.75 105<210.375 255.375>
VStem: 24.75 82.5<-163.5 -47.25>
AnchorPoint: "Anchor-1" 262.5 507.75 basechar 0
AnchorPoint: "Anchor-0" 315 -420 basechar 0
LayerCount: 2
Fore
SplineSet
273 -262.5 m 0
 345.75 -262.5 423 -237.75 466.5 -211.5 c 1
 477.75 -225 l 1
 436.5 -300 366 -364.5 246.75 -364.5 c 0
 105.75 -364.5 24.75 -273.75 24.75 -135.75 c 0
 24.75 41.25 158.25 174 393.75 210 c 1
 333.75 236.25 285 258.75 225.75 258.75 c 0
 171.75 258.75 113.25 240 66 212.25 c 1
 60 216.75 l 1
 92.25 318.75 l 1
 135 351 186.75 363.75 234 363.75 c 0
 346.5 363.75 370.5 292.5 498 292.5 c 1
 499.5 259.5 474.75 207.75 468.75 192 c 1
 394.5 197.25 107.25 108.75 107.25 -111 c 0
 107.25 -216 173.25 -262.5 273 -262.5 c 0
210.75 3 m 1
 267 63 l 1
 322.5 3 l 1
 267 -57.75 l 1
 210.75 3 l 1
446.25 3 m 1
 391.5 -57.75 l 1
 335.25 3 l 1
 391.5 63 l 1
 446.25 3 l 1
383.25 -123 m 1
 327.75 -183.75 l 1
 271.5 -123 l 1
 327.75 -63 l 1
 383.25 -123 l 1
EndSplineSet
Substitution2: "'fina' Terminal Forms lookup 31 subtable" uniFB7B
Substitution2: "'medi' Medial Forms lookup 30 subtable" uniFB7D
Substitution2: "'init' Initial Forms lookup 29 subtable" uniFB7C
AlternateSubs2: "'aalt' Access All Alternates lookup 1 subtable" uniFB7C uniFB7D uniFB7B
EndChar

StartChar: uniFB7B
Encoding: 64379 64379 43
Width: 525
VWidth: 750
GlyphClass: 2
Flags: HMW
HStem: -364.5 102<223.125 306.375> 0 105<430.5 462 462 525> 192 100.5 258.75 105<210.375 255.375>
VStem: 24.75 82.5<-163.5 -47.25> 327.75 197.25
AnchorPoint: "Anchor-1" 262.5 525 basechar 0
AnchorPoint: "Anchor-0" 315 -397.5 basechar 0
LayerCount: 2
Fore
SplineSet
525 0 m 1xdc
 462 0 l 2
 386.25 0 333 54.75 327.75 159 c 1
 223.5 115.5 107.25 29.25 107.25 -111 c 0
 107.25 -216 173.25 -262.5 273 -262.5 c 0
 345.75 -262.5 423 -237.75 466.5 -211.5 c 1
 477.75 -225 l 1
 436.5 -300 366 -364.5 246.75 -364.5 c 0
 105.75 -364.5 24.75 -273.75 24.75 -135.75 c 0
 24.75 41.25 158.25 174 393.75 210 c 1
 333.75 236.25 285 258.75 225.75 258.75 c 0
 171.75 258.75 113.25 240 66 212.25 c 1
 60 216.75 l 1
 92.25 318.75 l 1
 135 351 186.75 363.75 234 363.75 c 0xdc
 346.5 363.75 370.5 292.5 498 292.5 c 1
 499.5 259.5 474.75 207.75 468.75 192 c 1xec
 447 193.5 408 187.5 363.75 172.5 c 1
 375 123 402.75 105 430.5 105 c 2
 525 105 l 1
 525 0 l 1xdc
185.25 -43.5 m 1
 234.75 9.75 l 1
 284.25 -43.5 l 1
 234.75 -97.5 l 1
 185.25 -43.5 l 1
394.5 -43.5 m 1
 345 -97.5 l 1
 295.5 -43.5 l 1
 345 9.75 l 1
 394.5 -43.5 l 1
338.25 -156 m 1
 288.75 -210 l 1
 239.25 -156 l 1
 288.75 -102.75 l 1
 338.25 -156 l 1
EndSplineSet
EndChar

StartChar: uniFB7D
Encoding: 64381 64381 44
Width: 525
VWidth: 750
GlyphClass: 2
Flags: HMW
HStem: 0 105<0 138.75 138.75 145.5 0 138.75 508.5 525> 279.75 102.75<220.875 242.625>
VStem: 430.5 34.5
AnchorPoint: "Anchor-1" 285 585 basechar 0
AnchorPoint: "Anchor-0" 285 -435 basechar 0
LayerCount: 2
Fore
SplineSet
508.5 105 m 2
 525 105 l 1
 525 0 l 1
 508.5 0 l 2
 442.5 0 431.25 92.25 430.5 143.25 c 1
 417.75 125.25 399.75 104.25 370.5 79.5 c 0
 282 3.75 207.75 0 145.5 0 c 2
 0 0 l 1
 0 105 l 1
 138.75 105 l 2
 180.75 105 303 108 382.5 167.25 c 0
 414.75 191.25 429 216.75 430.5 226.5 c 1
 326.25 270.75 263.25 279.75 222 279.75 c 0
 172.5 279.75 129.75 267 81.75 233.25 c 1
 75.75 237.75 l 1
 108 337.5 l 1
 151.5 367.5 197.25 382.5 244.5 382.5 c 0
 343.5 382.5 423.75 315.75 518.25 302.25 c 1
 498.75 204.75 l 1
 483 203.25 473.25 198.75 465 190.5 c 1
 465 186.75 l 2
 465 139.5 465 105 508.5 105 c 2
201.75 -100.5 m 1
 263.25 -167.25 l 1
 201.75 -234.75 l 1
 139.5 -167.25 l 1
 201.75 -100.5 l 1
277.5 -167.25 m 1
 339.75 -100.5 l 1
 401.25 -167.25 l 1
 339.75 -234.75 l 1
 277.5 -167.25 l 1
207 -307.5 m 1
 269.25 -240.75 l 1
 330.75 -307.5 l 1
 269.25 -375 l 1
 207 -307.5 l 1
EndSplineSet
EndChar

StartChar: uniFB7C
Encoding: 64380 64380 45
Width: 525
VWidth: 750
GlyphClass: 2
Flags: HMW
HStem: 0 105<0 138.75 0 138.75 138.75 145.5> 279.75 102.75<220.875 242.625>
VStem: 0 518.25<0 302.25 105 302.25>
AnchorPoint: "Anchor-1" 262.5 525 basechar 0
AnchorPoint: "Anchor-0" 345 -397.5 basechar 0
LayerCount: 2
Fore
SplineSet
0 0 m 1
 0 105 l 1
 138.75 105 l 2
 180.75 105 303 108 382.5 167.25 c 0
 414.75 191.25 429 216.75 430.5 226.5 c 1
 326.25 270.75 263.25 279.75 222 279.75 c 0
 172.5 279.75 129.75 267 81.75 233.25 c 1
 75.75 237.75 l 1
 108 337.5 l 1
 151.5 367.5 197.25 382.5 244.5 382.5 c 0
 343.5 382.5 423.75 315.75 518.25 302.25 c 1
 498.75 204.75 l 1
 444.75 200.25 459.75 155.25 370.5 79.5 c 0
 282 3.75 207.75 0 145.5 0 c 2
 0 0 l 1
201.75 -234.75 m 1
 139.5 -167.25 l 1
 201.75 -100.5 l 1
 263.25 -167.25 l 1
 201.75 -234.75 l 1
339.75 -234.75 m 1
 277.5 -167.25 l 1
 339.75 -100.5 l 1
 401.25 -167.25 l 1
 339.75 -234.75 l 1
269.25 -375 m 1
 207 -307.5 l 1
 269.25 -240.75 l 1
 330.75 -307.5 l 1
 269.25 -375 l 1
EndSplineSet
EndChar

StartChar: uni062D
Encoding: 1581 1581 46
Width: 525
VWidth: 750
GlyphClass: 2
Flags: HMW
HStem: -364.5 102<223.125 306.375> 258.75 105<210.375 255.375>
VStem: 24.75 82.5<-163.5 -47.25>
AnchorPoint: "Anchor-1" 262.5 525 basechar 0
AnchorPoint: "Anchor-0" 315 -397.5 basechar 0
LayerCount: 2
Fore
SplineSet
273 -262.5 m 0
 345.75 -262.5 423 -237.75 466.5 -211.5 c 1
 477.75 -225 l 1
 436.5 -300 366 -364.5 246.75 -364.5 c 0
 105.75 -364.5 24.75 -273.75 24.75 -135.75 c 0
 24.75 41.25 158.25 174 393.75 210 c 1
 333.75 236.25 285 258.75 225.75 258.75 c 0
 171.75 258.75 113.25 240 66 212.25 c 1
 60 216.75 l 1
 92.25 318.75 l 1
 135 351 186.75 363.75 234 363.75 c 0
 346.5 363.75 370.5 292.5 498 292.5 c 1
 499.5 259.5 474.75 207.75 468.75 192 c 1
 394.5 197.25 107.25 108.75 107.25 -111 c 0
 107.25 -216 173.25 -262.5 273 -262.5 c 0
EndSplineSet
Substitution2: "'fina' Terminal Forms lookup 31 subtable" uniFEA2
Substitution2: "'medi' Medial Forms lookup 30 subtable" uniFEA4
Substitution2: "'init' Initial Forms lookup 29 subtable" uniFEA3
AlternateSubs2: "'aalt' Access All Alternates lookup 1 subtable" uniFEA3 uniFEA4 uniFEA2
EndChar

StartChar: uniFEA2
Encoding: 65186 65186 47
Width: 525
VWidth: 750
GlyphClass: 2
Flags: HMW
HStem: -364.5 102<223.125 306.375> 0 105<430.5 462 462 525> 192 100.5 258.75 105<210.375 255.375>
VStem: 24.75 82.5<-163.5 -47.25> 327.75 197.25
AnchorPoint: "Anchor-1" 262.5 525 basechar 0
AnchorPoint: "Anchor-0" 315 -397.5 basechar 0
LayerCount: 2
Fore
SplineSet
327.75 159 m 1xdc
 223.5 115.5 107.25 29.25 107.25 -111 c 0
 107.25 -216 173.25 -262.5 273 -262.5 c 0
 345.75 -262.5 423 -237.75 466.5 -211.5 c 1
 477.75 -225 l 1
 436.5 -300 366 -364.5 246.75 -364.5 c 0
 105.75 -364.5 24.75 -273.75 24.75 -135.75 c 0
 24.75 41.25 158.25 174 393.75 210 c 1
 333.75 236.25 285 258.75 225.75 258.75 c 0
 171.75 258.75 113.25 240 66 212.25 c 1
 60 216.75 l 1
 92.25 318.75 l 1
 135 351 186.75 363.75 234 363.75 c 0xdc
 346.5 363.75 370.5 292.5 498 292.5 c 1
 499.5 259.5 474.75 207.75 468.75 192 c 1xec
 447 193.5 408 187.5 363.75 172.5 c 1
 375 123 402.75 105 430.5 105 c 2
 525 105 l 1
 525 0 l 1
 462 0 l 2
 386.25 0 333 54.75 327.75 159 c 1xdc
EndSplineSet
EndChar

StartChar: uniFEA4
Encoding: 65188 65188 48
Width: 525
VWidth: 750
GlyphClass: 2
Flags: HMW
HStem: 0 105<0 138.75 138.75 145.5 0 138.75 508.5 525> 279.75 102.75<220.875 242.625>
VStem: 430.5 34.5
AnchorPoint: "Anchor-1" 242.25 494.25 basechar 0
AnchorPoint: "Anchor-0" 337.5 -82.5 basechar 0
LayerCount: 2
Fore
SplineSet
508.5 105 m 2
 525 105 l 1
 525 0 l 1
 508.5 0 l 2
 442.5 0 431.25 92.25 430.5 143.25 c 1
 417.75 125.25 399.75 104.25 370.5 79.5 c 0
 282 3.75 207.75 0 145.5 0 c 2
 0 0 l 1
 0 105 l 1
 138.75 105 l 2
 180.75 105 303 108 382.5 167.25 c 0
 414.75 191.25 429 216.75 430.5 226.5 c 1
 326.25 270.75 263.25 279.75 222 279.75 c 0
 172.5 279.75 129.75 267 81.75 233.25 c 1
 75.75 237.75 l 1
 108 337.5 l 1
 151.5 367.5 197.25 382.5 244.5 382.5 c 0
 343.5 382.5 423.75 315.75 518.25 302.25 c 1
 498.75 204.75 l 1
 483 203.25 473.25 198.75 465 190.5 c 1
 465 186.75 l 2
 465 139.5 465 105 508.5 105 c 2
EndSplineSet
EndChar

StartChar: uniFEA3
Encoding: 65187 65187 49
Width: 525
VWidth: 750
GlyphClass: 2
Flags: HMW
HStem: 0 105<0 138.75 0 138.75 138.75 145.5> 279.75 102.75<220.875 242.625>
VStem: 0 518.25<0 302.25 105 302.25>
AnchorPoint: "Anchor-1" 312 549.75 basechar 0
AnchorPoint: "Anchor-0" 315 -82.5 basechar 0
LayerCount: 2
Fore
SplineSet
0 0 m 1
 0 105 l 1
 138.75 105 l 2
 180.75 105 303 108 382.5 167.25 c 0
 414.75 191.25 429 216.75 430.5 226.5 c 1
 326.25 270.75 263.25 279.75 222 279.75 c 0
 172.5 279.75 129.75 267 81.75 233.25 c 1
 75.75 237.75 l 1
 108 337.5 l 1
 151.5 367.5 197.25 382.5 244.5 382.5 c 0
 343.5 382.5 423.75 315.75 518.25 302.25 c 1
 498.75 204.75 l 1
 444.75 200.25 459.75 155.25 370.5 79.5 c 0
 282 3.75 207.75 0 145.5 0 c 2
 0 0 l 1
EndSplineSet
EndChar

StartChar: uni062E
Encoding: 1582 1582 50
Width: 525
VWidth: 750
GlyphClass: 2
Flags: HMW
HStem: -364.5 102<223.125 306.375> 258.75 105<210.375 255.375>
VStem: 24.75 82.5<-163.5 -47.25>
AnchorPoint: "Anchor-1" 262.5 682.5 basechar 0
AnchorPoint: "Anchor-0" 315 -397.5 basechar 0
LayerCount: 2
Fore
SplineSet
327 525 m 1
 262.5 454.5 l 1
 197.25 525 l 1
 262.5 594.75 l 1
 327 525 l 1
273 -262.5 m 0
 345.75 -262.5 423 -237.75 466.5 -211.5 c 1
 477.75 -225 l 1
 436.5 -300 366 -364.5 246.75 -364.5 c 0
 105.75 -364.5 24.75 -273.75 24.75 -135.75 c 0
 24.75 41.25 158.25 174 393.75 210 c 1
 333.75 236.25 285 258.75 225.75 258.75 c 0
 171.75 258.75 113.25 240 66 212.25 c 1
 60 216.75 l 1
 92.25 318.75 l 1
 135 351 186.75 363.75 234 363.75 c 0
 346.5 363.75 370.5 292.5 498 292.5 c 1
 499.5 259.5 474.75 207.75 468.75 192 c 1
 394.5 197.25 107.25 108.75 107.25 -111 c 0
 107.25 -216 173.25 -262.5 273 -262.5 c 0
EndSplineSet
Substitution2: "'fina' Terminal Forms lookup 31 subtable" uniFEA6
Substitution2: "'medi' Medial Forms lookup 30 subtable" uniFEA8
Substitution2: "'init' Initial Forms lookup 29 subtable" uniFEA7
AlternateSubs2: "'aalt' Access All Alternates lookup 1 subtable" uniFEA7 uniFEA8 uniFEA6
EndChar

StartChar: uniFEA6
Encoding: 65190 65190 51
Width: 525
VWidth: 750
GlyphClass: 2
Flags: HMW
HStem: -364.5 102<223.125 306.375> 0 105<430.5 462 462 525> 192 100.5 258.75 105<210.375 255.375>
VStem: 24.75 82.5<-163.5 -47.25>
AnchorPoint: "Anchor-1" 262.5 682.5 basechar 0
AnchorPoint: "Anchor-0" 315 -397.5 basechar 0
LayerCount: 2
Fore
SplineSet
327 525 m 1xd8
 262.5 454.5 l 1
 197.25 525 l 1
 262.5 594.75 l 1
 327 525 l 1xd8
327.75 159 m 1
 223.5 115.5 107.25 29.25 107.25 -111 c 0
 107.25 -216 173.25 -262.5 273 -262.5 c 0
 345.75 -262.5 423 -237.75 466.5 -211.5 c 1
 477.75 -225 l 1
 436.5 -300 366 -364.5 246.75 -364.5 c 0
 105.75 -364.5 24.75 -273.75 24.75 -135.75 c 0
 24.75 41.25 158.25 174 393.75 210 c 1
 333.75 236.25 285 258.75 225.75 258.75 c 0
 171.75 258.75 113.25 240 66 212.25 c 1
 60 216.75 l 1
 92.25 318.75 l 1
 135 351 186.75 363.75 234 363.75 c 0xd8
 346.5 363.75 370.5 292.5 498 292.5 c 1
 499.5 259.5 474.75 207.75 468.75 192 c 1xe8
 447 193.5 408 187.5 363.75 172.5 c 1
 375 123 402.75 105 430.5 105 c 2
 525 105 l 1
 525 0 l 1
 462 0 l 2
 386.25 0 333 54.75 327.75 159 c 1
EndSplineSet
EndChar

StartChar: uniFEA8
Encoding: 65192 65192 52
Width: 525
VWidth: 750
GlyphClass: 2
Flags: HMW
HStem: 0 105<0 138.75 138.75 145.5 0 138.75 508.5 525> 279.75 102.75<220.875 242.625>
VStem: 430.5 34.5
AnchorPoint: "Anchor-1" 285 690 basechar 0
AnchorPoint: "Anchor-0" 313.5 -102 basechar 0
LayerCount: 2
Fore
SplineSet
357 540 m 1
 292.5 469.5 l 1
 227.25 540 l 1
 292.5 609.75 l 1
 357 540 l 1
508.5 105 m 2
 525 105 l 1
 525 0 l 1
 508.5 0 l 2
 442.5 0 431.25 92.25 430.5 143.25 c 1
 417.75 125.25 399.75 104.25 370.5 79.5 c 0
 282 3.75 207.75 0 145.5 0 c 2
 0 0 l 1
 0 105 l 1
 138.75 105 l 2
 180.75 105 303 108 382.5 167.25 c 0
 414.75 191.25 429 216.75 430.5 226.5 c 1
 326.25 270.75 263.25 279.75 222 279.75 c 0
 172.5 279.75 129.75 267 81.75 233.25 c 1
 75.75 237.75 l 1
 108 337.5 l 1
 151.5 367.5 197.25 382.5 244.5 382.5 c 0
 343.5 382.5 423.75 315.75 518.25 302.25 c 1
 498.75 204.75 l 1
 483 203.25 473.25 198.75 465 190.5 c 1
 465 186.75 l 2
 465 139.5 465 105 508.5 105 c 2
EndSplineSet
EndChar

StartChar: uniFEA7
Encoding: 65191 65191 53
Width: 525
VWidth: 750
GlyphClass: 2
Flags: HMW
HStem: 0 105<0 138.75 0 138.75 138.75 145.5> 279.75 102.75<220.875 242.625>
VStem: 0 518.25<0 302.25 105 302.25>
AnchorPoint: "Anchor-1" 285 690 basechar 0
AnchorPoint: "Anchor-0" 315 -82.5 basechar 0
LayerCount: 2
Fore
SplineSet
262.5 469.5 m 1
 197.25 540 l 1
 262.5 609.75 l 1
 327 540 l 1
 262.5 469.5 l 1
0 0 m 1
 0 105 l 1
 138.75 105 l 2
 180.75 105 303 108 382.5 167.25 c 0
 414.75 191.25 429 216.75 430.5 226.5 c 1
 326.25 270.75 263.25 279.75 222 279.75 c 0
 172.5 279.75 129.75 267 81.75 233.25 c 1
 75.75 237.75 l 1
 108 337.5 l 1
 151.5 367.5 197.25 382.5 244.5 382.5 c 0
 343.5 382.5 423.75 315.75 518.25 302.25 c 1
 498.75 204.75 l 1
 444.75 200.25 459.75 155.25 370.5 79.5 c 0
 282 3.75 207.75 0 145.5 0 c 2
 0 0 l 1
EndSplineSet
EndChar

StartChar: uni062F
Encoding: 1583 1583 54
Width: 525
VWidth: 750
GlyphClass: 2
Flags: HMW
HStem: 0 105
VStem: 372.75 71.25<145.5 145.5>
AnchorPoint: "Anchor-1" 255 600 basechar 0
AnchorPoint: "Anchor-0" 337.5 -82.5 basechar 0
LayerCount: 2
Fore
SplineSet
192 0 m 2
 123.75 0 90.75 14.25 90.75 58.5 c 0
 90.75 75.75 96 124.5 114.75 124.5 c 0
 126 124.5 131.25 105.75 171.75 105 c 0
 210.75 104.25 348.75 102 366.75 113.25 c 0
 375 118.5 373.5 138 372.75 145.5 c 0
 363.75 229.5 275.25 300.75 216 351.75 c 1
 267 447 l 1
 404.25 338.25 444 242.25 444 144.75 c 0
 444 105 437.25 51 430.5 36.75 c 0
 420.75 16.5 379.5 0 322.5 0 c 2
 192 0 l 2
EndSplineSet
Substitution2: "'fina' Terminal Forms lookup 31 subtable" uniFEAA
Substitution2: "'aalt' Access All Alternates lookup 0 subtable" uniFEAA
EndChar

StartChar: uniFEAA
Encoding: 65194 65194 55
Width: 525
VWidth: 750
GlyphClass: 2
Flags: HMW
HStem: 0 105<462 525> 446.25 15G<337.5 337.5>
VStem: 69 456<32.25 71.625>
AnchorPoint: "Anchor-1" 262.5 600 basechar 0
AnchorPoint: "Anchor-0" 337.5 -90 basechar 0
LayerCount: 2
Fore
SplineSet
145.5 0 m 0
 106.5 1.5 69 3.75 69 60.75 c 0
 69 82.5 74.25 132 93 132 c 0
 106.5 132 122.25 105 171 105 c 2
 210 105 l 2
 264.75 105 304.5 105.75 304.5 166.5 c 0
 304.5 213 281.25 272.25 254.25 377.25 c 1
 337.5 461.25 l 1
 369.75 312 390 183 397.5 153.75 c 0
 404.25 126 420.75 105 462 105 c 2
 525 105 l 1
 525 0 l 1
 462 0 l 2
 433.5 0 329.25 0 315.75 105 c 1
 287.25 8.25 243 -3 145.5 0 c 0
EndSplineSet
EndChar

StartChar: uni0630
Encoding: 1584 1584 56
Width: 525
VWidth: 750
GlyphClass: 2
Flags: HMW
HStem: 0 105
VStem: 372.75 71.25<145.5 145.5>
AnchorPoint: "Anchor-1" 255 750 basechar 0
AnchorPoint: "Anchor-0" 337.5 -82.5 basechar 0
LayerCount: 2
Fore
SplineSet
222.75 498.75 m 1
 157.5 569.25 l 1
 222.75 639 l 1
 287.25 569.25 l 1
 222.75 498.75 l 1
192 0 m 2
 123.75 0 90.75 14.25 90.75 58.5 c 0
 90.75 75.75 96 124.5 114.75 124.5 c 0
 126 124.5 131.25 105.75 171.75 105 c 0
 210.75 104.25 348.75 102 366.75 113.25 c 0
 375 118.5 373.5 138 372.75 145.5 c 0
 363.75 229.5 275.25 300.75 216 351.75 c 1
 267 447 l 1
 404.25 338.25 444 242.25 444 144.75 c 0
 444 105 437.25 51 430.5 36.75 c 0
 420.75 16.5 379.5 0 322.5 0 c 2
 192 0 l 2
EndSplineSet
Substitution2: "'fina' Terminal Forms lookup 31 subtable" uniFEAC
Substitution2: "'aalt' Access All Alternates lookup 0 subtable" uniFEAC
EndChar

StartChar: uniFEAC
Encoding: 65196 65196 57
Width: 525
VWidth: 750
GlyphClass: 2
Flags: HMW
HStem: 0 105<462 525> 446.25 15G<337.5 337.5>
VStem: 69 456<32.25 71.625>
AnchorPoint: "Anchor-1" 255 720 basechar 0
AnchorPoint: "Anchor-0" 337.5 -90 basechar 0
LayerCount: 2
Fore
SplineSet
258.75 495 m 1
 193.5 565.5 l 1
 258.75 635.25 l 1
 323.25 565.5 l 1
 258.75 495 l 1
145.5 0 m 0
 106.5 1.5 69 3.75 69 60.75 c 0
 69 82.5 74.25 132 93 132 c 0
 106.5 132 122.25 105 171 105 c 2
 210 105 l 2
 264.75 105 304.5 105.75 304.5 166.5 c 0
 304.5 213 281.25 272.25 254.25 377.25 c 1
 337.5 461.25 l 1
 369.75 312 390 183 397.5 153.75 c 0
 404.25 126 420.75 105 462 105 c 2
 525 105 l 1
 525 0 l 1
 462 0 l 2
 433.5 0 329.25 0 315.75 105 c 1
 287.25 8.25 243 -3 145.5 0 c 0
EndSplineSet
EndChar

StartChar: uni0688
Encoding: 1672 1672 58
Width: 525
VWidth: 750
GlyphClass: 2
Flags: HMW
HStem: 0 105 556.5 50.25<201.75 255> 668.25 46.5<282.75 293.25>
VStem: 177 17.25 319.5 30<621.75 640.875> 372.75 71.25<145.5 145.5>
AnchorPoint: "Anchor-1" 262.5 855 basechar 0
AnchorPoint: "Anchor-0" 337.5 -82.5 basechar 0
LayerCount: 2
Fore
SplineSet
349.5 633.75 m 0
 349.5 575.25 315.75 556.5 255 556.5 c 2
 135 556.5 l 1
 135 594.75 147.75 603.75 155.25 603.75 c 0
 158.25 603.75 162.75 603.75 167.25 605.25 c 0
 175.5 615.75 177.75 630 177 654 c 0
 174.75 714.75 172.5 771.75 161.25 791.25 c 1
 198.75 824.25 l 1
 216.75 777 l 1
 196.5 755.25 198.75 682.5 194.25 632.25 c 1
 227.25 681.75 267 714.75 298.5 714.75 c 0
 332.25 714.75 349.5 675.75 349.5 633.75 c 0
283.5 668.25 m 0
 260.25 668.25 230.25 638.25 201.75 606.75 c 1
 273 606.75 l 2
 303 606.75 319.5 612 319.5 631.5 c 0
 319.5 650.25 303 668.25 283.5 668.25 c 0
267 447 m 1
 404.25 338.25 444 242.25 444 144.75 c 0
 444 105 437.25 51 430.5 36.75 c 0
 420.75 16.5 379.5 0 322.5 0 c 2
 192 0 l 2
 123.75 0 90.75 14.25 90.75 58.5 c 0
 90.75 75.75 96 124.5 114.75 124.5 c 0
 126 124.5 131.25 105.75 171.75 105 c 0
 210.75 104.25 348.75 102 366.75 113.25 c 0
 375 118.5 373.5 138 372.75 145.5 c 0
 363.75 229.5 275.25 300.75 216 351.75 c 1
 267 447 l 1
EndSplineSet
Substitution2: "'fina' Terminal Forms lookup 31 subtable" uniFB89
Substitution2: "'aalt' Access All Alternates lookup 0 subtable" uniFB89
EndChar

StartChar: uniFB89
Encoding: 64393 64393 59
Width: 525
VWidth: 750
GlyphClass: 2
Flags: HMW
HStem: 0 105<462 525> 446.25 15G<337.5 337.5> 541.5 50.25<217.5 270.75> 653.25 46.5<298.5 309>
VStem: 192.75 17.25 335.25 30<606.75 625.875>
AnchorPoint: "Anchor-1" 262.5 840 basechar 0
AnchorPoint: "Anchor-0" 337.5 -90 basechar 0
LayerCount: 2
Fore
SplineSet
365.25 618.75 m 0
 365.25 560.25 331.5 541.5 270.75 541.5 c 2
 150.75 541.5 l 1
 150.75 579.75 163.5 588.75 171 588.75 c 0
 174 588.75 178.5 588.75 183 590.25 c 0
 191.25 600.75 193.5 615 192.75 639 c 0
 190.5 699.75 188.25 756.75 177 776.25 c 1
 214.5 809.25 l 1
 232.5 762 l 1
 212.25 740.25 214.5 667.5 210 617.25 c 1
 243 666.75 282.75 699.75 314.25 699.75 c 0
 348 699.75 365.25 660.75 365.25 618.75 c 0
299.25 653.25 m 0
 276 653.25 246 623.25 217.5 591.75 c 1
 288.75 591.75 l 2
 318.75 591.75 335.25 597 335.25 616.5 c 0
 335.25 635.25 318.75 653.25 299.25 653.25 c 0
462 105 m 2
 525 105 l 1
 525 0 l 1
 462 0 l 2
 433.5 0 329.25 0 315.75 105 c 1
 287.25 8.25 243 -3 145.5 0 c 0
 106.5 1.5 69 3.75 69 60.75 c 0
 69 82.5 74.25 132 93 132 c 0
 106.5 132 122.25 105 171 105 c 2
 210 105 l 2
 264.75 105 304.5 105.75 304.5 166.5 c 0
 304.5 213 281.25 272.25 254.25 377.25 c 1
 337.5 461.25 l 1
 369.75 312 390 183 397.5 153.75 c 0
 404.25 126 420.75 105 462 105 c 2
EndSplineSet
EndChar

StartChar: uni0631
Encoding: 1585 1585 60
Width: 525
VWidth: 750
GlyphClass: 2
Flags: HMW
HStem: -267 67.5<54.75 246.375> 312.75 15G<320.25 320.25>
VStem: 357.75 63.75<61.5 80.625>
AnchorPoint: "Anchor-1" 262.5 450 basechar 0
AnchorPoint: "Anchor-0" 337.5 -375 basechar 0
LayerCount: 2
Fore
SplineSet
156.75 -267 m 0
 135 -267 114 -264.75 54.75 -237.75 c 1
 54.75 -199.5 l 1
 100.5 -199.5 l 2
 129 -199.5 184.5 -189 237.75 -149.25 c 0
 339 -74.25 357.75 53.25 357.75 69.75 c 0
 357.75 91.5 324 150 274.5 230.25 c 1
 320.25 327.75 l 1
 396.75 211.5 421.5 171 421.5 72.75 c 0
 421.5 -110.25 336 -267 156.75 -267 c 0
EndSplineSet
Substitution2: "'fina' Terminal Forms lookup 31 subtable" uniFEAE
Substitution2: "'aalt' Access All Alternates lookup 0 subtable" uniFEAE
EndChar

StartChar: uniFEAE
Encoding: 65198 65198 61
Width: 525
VWidth: 750
GlyphClass: 2
Flags: HMW
HStem: -270 70.5<41.25 160.875> 0 105<477.75 492.75 492.75 525>
VStem: 335.25 41.31
AnchorPoint: "Anchor-1" 262.5 487.5 basechar 0
AnchorPoint: "Anchor-0" 360 -337.5 basechar 0
LayerCount: 2
Fore
SplineSet
138.75 -270 m 0
 108 -270 74.25 -264.75 41.25 -237.75 c 1
 41.25 -199.5 l 1
 137.25 -199.5 174 -174 208.5 -143.25 c 0
 259.5 -97.5 335.25 -8.25 335.25 54.75 c 0
 335.25 113.25 269.25 210 258.75 227.25 c 1
 334.5 303 l 1
 358.5 255.75 391.5 105 477.75 105 c 2
 525 105 l 1
 525 0 l 1
 492.75 0 l 2
 450.75 0 414.75 11.25 374.25 45.75 c 1
 387.75 -31.5 341.25 -174.75 268.5 -231 c 0
 232.5 -258.75 183 -270 138.75 -270 c 0
EndSplineSet
Substitution2: "Single Substitution lookup 54 subtable" uniFEAE.rehAlef
Substitution2: "'aalt' Access All Alternates lookup 0 subtable" uniFEAE.rehAlef
EndChar

StartChar: uniFEAE.rehAlef
Encoding: 1114208 -1 62
Width: 525
VWidth: 750
GlyphClass: 2
Flags: HMW
HStem: -270 70.5<-108.75 10.875> 0 105<327.75 342.75 342.75 525>
VStem: 185.25 41.31
AnchorPoint: "Anchor-1" 172.5 450 basechar 0
AnchorPoint: "Anchor-0" 277.5 -337.5 basechar 0
LayerCount: 2
Fore
SplineSet
525 105 m 1
 525 0 l 1
 342.75 0 l 2
 300.75 0 264.75 11.25 224.25 45.75 c 1
 237.75 -31.5 191.25 -174.75 118.5 -231 c 0
 82.5 -258.75 33 -270 -11.25 -270 c 0
 -42 -270 -75.75 -264.75 -108.75 -237.75 c 1
 -108.75 -199.5 l 1
 -12.75 -199.5 24 -174 58.5 -143.25 c 0
 109.5 -97.5 185.25 -8.25 185.25 54.75 c 0
 185.25 113.25 119.25 210 108.75 227.25 c 1
 184.5 303 l 1
 208.5 255.75 241.5 105 327.75 105 c 2
 525 105 l 1
EndSplineSet
EndChar

StartChar: uni0632
Encoding: 1586 1586 63
Width: 525
VWidth: 750
GlyphClass: 2
Flags: HMW
HStem: -267 67.5<54.75 246.375> 312.75 15G<320.25 320.25>
VStem: 357.75 63.75<61.5 80.625>
AnchorPoint: "Anchor-1" 262.5 675 basechar 0
AnchorPoint: "Anchor-0" 337.5 -375 basechar 0
LayerCount: 2
Fore
SplineSet
237 409.5 m 1
 171.75 480 l 1
 237 549.75 l 1
 301.5 480 l 1
 237 409.5 l 1
156.75 -267 m 0
 135 -267 114 -264.75 54.75 -237.75 c 1
 54.75 -199.5 l 1
 100.5 -199.5 l 2
 129 -199.5 184.5 -189 237.75 -149.25 c 0
 339 -74.25 357.75 53.25 357.75 69.75 c 0
 357.75 91.5 324 150 274.5 230.25 c 1
 320.25 327.75 l 1
 396.75 211.5 421.5 171 421.5 72.75 c 0
 421.5 -110.25 336 -267 156.75 -267 c 0
EndSplineSet
Substitution2: "'fina' Terminal Forms lookup 31 subtable" uniFEB0
Substitution2: "'aalt' Access All Alternates lookup 0 subtable" uniFEB0
EndChar

StartChar: uniFEB0
Encoding: 65200 65200 64
Width: 525
VWidth: 750
GlyphClass: 2
Flags: HMW
HStem: -270 70.5<41.25 160.875> 0 105<477.75 492.75 492.75 525> 442.5 15G<197.25 197.25 327 327>
VStem: 335.25 41.31
AnchorPoint: "Anchor-1" 262.5 675 basechar 0
AnchorPoint: "Anchor-0" 360 -337.5 basechar 0
LayerCount: 2
Fore
SplineSet
262.5 387 m 1
 197.25 457.5 l 1
 262.5 527.25 l 1
 327 457.5 l 1
 262.5 387 l 1
138.75 -270 m 0
 108 -270 74.25 -264.75 41.25 -237.75 c 1
 41.25 -199.5 l 1
 137.25 -199.5 174 -174 208.5 -143.25 c 0
 259.5 -97.5 335.25 -8.25 335.25 54.75 c 0
 335.25 113.25 269.25 210 258.75 227.25 c 1
 334.5 303 l 1
 358.5 255.75 391.5 105 477.75 105 c 2
 525 105 l 1
 525 0 l 1
 492.75 0 l 2
 450.75 0 414.75 11.25 374.25 45.75 c 1
 387.75 -31.5 341.25 -174.75 268.5 -231 c 0
 232.5 -258.75 183 -270 138.75 -270 c 0
EndSplineSet
Substitution2: "Single Substitution lookup 54 subtable" uniFEB0.zainAlef
Substitution2: "'aalt' Access All Alternates lookup 0 subtable" uniFEB0.zainAlef
EndChar

StartChar: uniFEB0.zainAlef
Encoding: 1114209 -1 65
Width: 525
VWidth: 750
GlyphClass: 2
Flags: HMW
HStem: -270 70.5<-108.75 10.875> 0 105<327.75 342.75 342.75 525> 442.5 15G<25.5 25.5 155.25 155.25>
VStem: 185.25 41.31
AnchorPoint: "Anchor-1" 75 675 basechar 0
AnchorPoint: "Anchor-0" 255 -337.5 basechar 0
LayerCount: 2
Fore
SplineSet
155.25 457.5 m 1
 90.75 387 l 1
 25.5 457.5 l 1
 90.75 527.25 l 1
 155.25 457.5 l 1
525 105 m 1
 525 0 l 1
 342.75 0 l 2
 300.75 0 264.75 11.25 224.25 45.75 c 1
 237.75 -31.5 191.25 -174.75 118.5 -231 c 0
 82.5 -258.75 33 -270 -11.25 -270 c 0
 -42 -270 -75.75 -264.75 -108.75 -237.75 c 1
 -108.75 -199.5 l 1
 -12.75 -199.5 24 -174 58.5 -143.25 c 0
 109.5 -97.5 185.25 -8.25 185.25 54.75 c 0
 185.25 113.25 119.25 210 108.75 227.25 c 1
 184.5 303 l 1
 208.5 255.75 241.5 105 327.75 105 c 2
 525 105 l 1
EndSplineSet
EndChar

StartChar: uni0691
Encoding: 1681 1681 66
Width: 525
VWidth: 750
GlyphClass: 2
Flags: HMW
HStem: -267 67.5<54.75 246.375> 312.75 15G<320.25 320.25> 453.75 50.25<251.25 304.5> 565.5 46.5<332.25 342.75>
VStem: 226.5 17.25 357.75 63.75<61.5 80.625> 369 30<519 538.125>
AnchorPoint: "Anchor-1" 277.5 787.5 basechar 0
AnchorPoint: "Anchor-0" 337.5 -375 basechar 0
LayerCount: 2
Fore
SplineSet
399 531 m 0xfa
 399 472.5 365.25 453.75 304.5 453.75 c 2
 184.5 453.75 l 1
 184.5 492 197.25 501 204.75 501 c 0
 207.75 501 212.25 501 216.75 502.5 c 0
 225 513 227.25 527.25 226.5 551.25 c 0
 224.25 612 222 669 210.75 688.5 c 1
 248.25 721.5 l 1
 266.25 674.25 l 1
 246 652.5 248.25 579.75 243.75 529.5 c 1
 276.75 579 316.5 612 348 612 c 0
 381.75 612 399 573 399 531 c 0xfa
333 565.5 m 0
 309.75 565.5 279.75 535.5 251.25 504 c 1
 322.5 504 l 2
 352.5 504 369 509.25 369 528.75 c 0
 369 547.5 352.5 565.5 333 565.5 c 0
320.25 327.75 m 1xfc
 396.75 211.5 421.5 171 421.5 72.75 c 0
 421.5 -110.25 336 -267 156.75 -267 c 0
 135 -267 114 -264.75 54.75 -237.75 c 1
 54.75 -199.5 l 1
 100.5 -199.5 l 2
 129 -199.5 184.5 -189 237.75 -149.25 c 0
 339 -74.25 357.75 53.25 357.75 69.75 c 0
 357.75 91.5 324 150 274.5 230.25 c 1
 320.25 327.75 l 1xfc
EndSplineSet
Substitution2: "'fina' Terminal Forms lookup 31 subtable" uniFB8D
Substitution2: "'aalt' Access All Alternates lookup 0 subtable" uniFB8D
EndChar

StartChar: uniFB8D
Encoding: 64397 64397 67
Width: 525
VWidth: 750
GlyphClass: 2
Flags: HMW
HStem: -270 70.5<41.25 160.875> 0 105<477.75 492.75 492.75 525> 453 50.25<245.25 298.5> 564.75 46.5<326.25 336.75>
VStem: 220.5 17.25 335.25 41.31 363 30<518.25 537.375>
AnchorPoint: "Anchor-1" 262.5 787.5 basechar 0
AnchorPoint: "Anchor-0" 360 -337.5 basechar 0
LayerCount: 2
Fore
SplineSet
393 530.25 m 0x7a
 393 471.75 359.25 453 298.5 453 c 2
 178.5 453 l 1
 178.5 491.25 191.25 500.25 198.75 500.25 c 0
 201.75 500.25 206.25 500.25 210.75 501.75 c 0
 219 512.25 221.25 526.5 220.5 550.5 c 0
 218.25 611.25 216 668.25 204.75 687.75 c 1
 242.25 720.75 l 1
 260.25 673.5 l 1
 240 651.75 242.25 579 237.75 528.75 c 1
 270.75 578.25 310.5 611.25 342 611.25 c 0
 375.75 611.25 393 572.25 393 530.25 c 0x7a
327 564.75 m 0
 303.75 564.75 273.75 534.75 245.25 503.25 c 1
 316.5 503.25 l 2
 346.5 503.25 363 508.5 363 528 c 0
 363 546.75 346.5 564.75 327 564.75 c 0
477.75 105 m 2
 525 105 l 1
 525 0 l 1
 492.75 0 l 2
 450.75 0 414.75 11.25 374.25 45.75 c 1
 387.75 -31.5 341.25 -174.75 268.5 -231 c 0
 232.5 -258.75 183 -270 138.75 -270 c 0
 108 -270 74.25 -264.75 41.25 -237.75 c 1
 41.25 -199.5 l 1
 137.25 -199.5 174 -174 208.5 -143.25 c 0
 259.5 -97.5 335.25 -8.25 335.25 54.75 c 0xec
 335.25 113.25 269.25 210 258.75 227.25 c 1
 334.5 303 l 1
 358.5 255.75 391.5 105 477.75 105 c 2
EndSplineSet
EndChar

StartChar: uni0698
Encoding: 1688 1688 68
Width: 525
VWidth: 750
GlyphClass: 2
Flags: HMW
HStem: -267 67.5<54.75 246.375> 312.75 15G<320.25 320.25> 439.5 15G<150 150 279.75 279.75 301.5 301.5 431.25 431.25>
VStem: 357.75 63.75<61.5 80.625>
AnchorPoint: "Anchor-1" 277.5 787.5 basechar 0
AnchorPoint: "Anchor-0" 337.5 -375 basechar 0
LayerCount: 2
Fore
SplineSet
279 525 m 1
 213.75 595.5 l 1
 279 665.25 l 1
 343.5 595.5 l 1
 279 525 l 1
215.25 384 m 1
 150 454.5 l 1
 215.25 524.25 l 1
 279.75 454.5 l 1
 215.25 384 l 1
366.75 384 m 1
 301.5 454.5 l 1
 366.75 524.25 l 1
 431.25 454.5 l 1
 366.75 384 l 1
156.75 -267 m 0
 135 -267 114 -264.75 54.75 -237.75 c 1
 54.75 -199.5 l 1
 100.5 -199.5 l 2
 129 -199.5 184.5 -189 237.75 -149.25 c 0
 339 -74.25 357.75 53.25 357.75 69.75 c 0
 357.75 91.5 324 150 274.5 230.25 c 1
 320.25 327.75 l 1
 396.75 211.5 421.5 171 421.5 72.75 c 0
 421.5 -110.25 336 -267 156.75 -267 c 0
EndSplineSet
Substitution2: "'fina' Terminal Forms lookup 31 subtable" uniFB8B
Substitution2: "'aalt' Access All Alternates lookup 0 subtable" uniFB8B
EndChar

StartChar: uniFB8B
Encoding: 64395 64395 69
Width: 525
VWidth: 750
GlyphClass: 2
Flags: HMW
HStem: -270 70.5<41.25 160.875> 0 105<477.75 492.75 492.75 525> 443.25 15G<137.25 137.25 267 267 288.75 288.75 418.5 418.5> 654 15G<266.25 266.25>
VStem: 335.25 41.31
AnchorPoint: "Anchor-1" 262.5 787.5 basechar 0
AnchorPoint: "Anchor-0" 360 -337.5 basechar 0
LayerCount: 2
Fore
SplineSet
266.25 528.75 m 1
 201 599.25 l 1
 266.25 669 l 1
 330.75 599.25 l 1
 266.25 528.75 l 1
202.5 387.75 m 1
 137.25 458.25 l 1
 202.5 528 l 1
 267 458.25 l 1
 202.5 387.75 l 1
354 387.75 m 1
 288.75 458.25 l 1
 354 528 l 1
 418.5 458.25 l 1
 354 387.75 l 1
138.75 -270 m 0
 108 -270 74.25 -264.75 41.25 -237.75 c 1
 41.25 -199.5 l 1
 137.25 -199.5 174 -174 208.5 -143.25 c 0
 259.5 -97.5 335.25 -8.25 335.25 54.75 c 0
 335.25 113.25 269.25 210 258.75 227.25 c 1
 334.5 303 l 1
 358.5 255.75 391.5 105 477.75 105 c 2
 525 105 l 1
 525 0 l 1
 492.75 0 l 2
 450.75 0 414.75 11.25 374.25 45.75 c 1
 387.75 -31.5 341.25 -174.75 268.5 -231 c 0
 232.5 -258.75 183 -270 138.75 -270 c 0
EndSplineSet
EndChar

StartChar: uni0633
Encoding: 1587 1587 70
Width: 525
VWidth: 750
GlyphClass: 2
Flags: HMW
HStem: -300.75 105<33.75 104.625 33.75 134.625> 3 102<409.5 409.5>
VStem: -109.5 48<-103.125 -32.625> 189 81 316.5 65.25<138.75 222.375 210.75 222.375 210.75 224.25> 437.25 72.75<128.25 138.75 138.75 294 294 294>
AnchorPoint: "Anchor-1" 317.25 525 basechar 0
AnchorPoint: "Anchor-0" 375 -232.5 basechar 0
LayerCount: 2
Fore
SplineSet
437.25 294 m 1
 510 353.25 l 1
 510 138.75 l 2
 510 69 475.5 6.75 409.5 3 c 2
 396 2.25 l 2
 369 0.75 349.5 14.25 336.75 37.5 c 1
 319.5 20.25 297 8.25 273 3 c 1
 270.75 -201 196.5 -300.75 72.75 -300.75 c 0
 -44.25 -300.75 -109.5 -211.5 -109.5 -74.25 c 0
 -109.5 9 -85.5 66 -24.75 141 c 1
 -0.75 105 l 1
 -5.25 98.25 -61.5 33.75 -61.5 -56.25 c 0
 -61.5 -150 0.75 -195.75 66.75 -195.75 c 0
 142.5 -195.75 189 -135 189 -16.5 c 0
 189 60.75 169.5 126.75 157.5 167.25 c 1
 246.75 199.5 l 1
 259.5 166.5 266.25 130.5 270 87.75 c 1
 291.75 90.75 309.75 99.75 316.5 126.75 c 1
 316.5 138.75 l 1
 316.5 210.75 l 2
 316.5 237.75 327.75 260.25 348 260.25 c 0
 369.75 260.25 381.75 234 381.75 210.75 c 2
 382.5 119.25 l 2
 382.5 106.5 390.75 105 399.75 105 c 0
 422.25 105 437.25 114 437.25 128.25 c 2
 437.25 294 l 1
EndSplineSet
Substitution2: "'fina' Terminal Forms lookup 31 subtable" uniFEB2
Substitution2: "'medi' Medial Forms lookup 30 subtable" uniFEB4
Substitution2: "'init' Initial Forms lookup 29 subtable" uniFEB3
AlternateSubs2: "'aalt' Access All Alternates lookup 1 subtable" uniFEB3 uniFEB4 uniFEB2
EndChar

StartChar: uniFEB2
Encoding: 65202 65202 71
Width: 525
VWidth: 750
GlyphClass: 2
Flags: HMW
HStem: -300.75 105<33.75 104.625 33.75 134.625> 0 15.75G<512.625 525> 2.625 102.375
VStem: -109.5 48<-103.125 -32.625> 189 81 316.5 65.25<138.75 222.375 210.75 222.375 210.75 224.25> 437.25 72.75<133.125 138.75 138.75 294 294 294>
AnchorPoint: "Anchor-1" 292.5 525 basechar 0
AnchorPoint: "Anchor-0" 375 -232.5 basechar 0
LayerCount: 2
Fore
SplineSet
507 105.75 m 1xd6
 514.5 105 520.5 105 525 105 c 1
 525 0 l 1
 500.25 0 481.5 9 467.25 26.25 c 1xd6
 452.25 12.75 432.75 4.5 409.5 3 c 2
 396 2.25 l 2
 369 0.75 349.5 14.25 336.75 37.5 c 1
 319.5 20.25 297 8.25 273 3 c 1
 270.75 -201 196.5 -300.75 72.75 -300.75 c 0
 -44.25 -300.75 -109.5 -211.5 -109.5 -74.25 c 0
 -109.5 9 -85.5 66 -24.75 141 c 1
 -0.75 105 l 1
 -5.25 98.25 -61.5 33.75 -61.5 -56.25 c 0
 -61.5 -150 0.75 -195.75 66.75 -195.75 c 0
 142.5 -195.75 189 -135 189 -16.5 c 0
 189 60.75 169.5 126.75 157.5 167.25 c 1
 246.75 199.5 l 1
 259.5 166.5 266.25 130.5 270 87.75 c 1
 291.75 90.75 309.75 99.75 316.5 126.75 c 1
 316.5 138.75 l 1
 316.5 210.75 l 2
 316.5 237.75 327.75 260.25 348 260.25 c 0
 369.75 260.25 381.75 234 381.75 210.75 c 2
 382.5 119.25 l 2
 382.5 106.5 390.75 105 399.75 105 c 0
 422.25 105 437.25 114 437.25 128.25 c 2xbe
 437.25 294 l 1
 510 353.25 l 1
 510 138.75 l 2
 510 127.5 509.25 116.25 507 105.75 c 1xd6
EndSplineSet
EndChar

StartChar: uniFEB4
Encoding: 65204 65204 72
Width: 525
VWidth: 750
GlyphClass: 2
Flags: HMW
HStem: -3 108<164.625 183.75> 0 105<0 12 0 25.5 519.75 525>
VStem: 0 128.25<0 127.125 105 127.125> 271.688 60.6525 426 65.25
AnchorPoint: "Anchor-1" 315 525 basechar 0
AnchorPoint: "Anchor-0" 315 -82.5 basechar 0
LayerCount: 2
Fore
SplineSet
480 111 m 1xb8
 492 105 514.5 105 525 105 c 1xb8
 525 0 l 1
 488.25 0 465.75 18.75 449.25 57.75 c 1
 423 24 387.75 0 346.5 0 c 0x78
 309.75 0 284.25 18.75 274.5 37.5 c 1
 234.75 -1.5 189.75 -3 177.75 -3 c 0xb8
 126.75 -3 97.5 17.25 92.25 57 c 1
 74.25 23.25 50.25 0 12 0 c 2
 0 0 l 1x78
 0 105 l 1
 25.5 105 l 2
 75 105 78 160.5 89.25 210.75 c 0
 94.5 234.75 100.5 246.75 117 246.75 c 0
 132.75 246.75 135 235.5 135 220.5 c 0
 135 195 128.25 131.25 128.25 123 c 0
 128.25 108.75 150.75 105 178.5 105 c 0
 294.75 105 273.75 169.5 263.25 261 c 0
 261 277.5 273 287.25 294.75 289.5 c 0
 322.5 292.5 324 279.75 329.25 231 c 0
 331.5 210 339 168 318 109.5 c 0
 317.25 108 317.25 106.5 316.5 105 c 1
 342.75 105.75 366.75 107.25 387 112.5 c 0
 416.25 120.75 430.5 135 433.5 151.5 c 0
 437.25 173.25 429 260.25 426 291 c 0
 423 319.5 486.75 335.25 491.25 292.5 c 0
 495.75 249.75 498.75 197.25 493.5 162 c 0
 491.25 145.5 486 128.25 480 111 c 1xb8
EndSplineSet
Substitution2: "Single Substitution lookup 54 subtable" uniFEB4.seenYeh
Substitution2: "'aalt' Access All Alternates lookup 0 subtable" uniFEB4.seenYeh
EndChar

StartChar: uniFEB4.seenYeh
Encoding: 1114210 -1 73
Width: 525
VWidth: 750
GlyphClass: 2
Flags: HMW
HStem: -3 108<97.5 153.75> 0 105<509.25 525> 172.5 90<0 9.75 0 18>
VStem: 232.763 68.7225 396.75 75.75<155.625 162 162 299.25 299.25 299.25>
AnchorPoint: "Anchor-1" 315 525 basechar 0
AnchorPoint: "Anchor-0" 315 -82.5 basechar 0
LayerCount: 2
Fore
SplineSet
468 123 m 1xb8
 480 105 493.5 105 525 105 c 1xb8
 525 0 l 1
 485.25 0 462 22.5 445.5 67.5 c 1
 420.75 28.5 381.75 0 330 0 c 0x78
 283.5 0 258 24.75 252 45.75 c 1
 223.5 15 181.5 -3 126 -3 c 0
 68.25 -3 41.25 17.25 27 64.5 c 1
 21 100.5 15.75 136.5 9.75 172.5 c 1
 0 172.5 l 1
 0 262.5 l 1
 18 262.5 l 2
 41.25 262.5 63 237.75 69 161.25 c 0
 72.75 113.25 73.5 105 121.5 105 c 0
 253.5 105 237 166.5 225.75 261 c 0
 224.25 272.25 229.5 286.5 263.25 290.25 c 0
 283.5 292.5 293.25 290.25 299.25 230.25 c 0
 304.5 185.25 300.75 141.75 287.25 105 c 1
 324.75 105 354.75 105.75 373.5 114 c 0
 388.5 120.75 396.75 132.75 396.75 153 c 2
 396.75 299.25 l 1
 472.5 364.5 l 1
 472.5 162 l 2
 472.5 149.25 471 135.75 468 123 c 1xb8
EndSplineSet
EndChar

StartChar: uniFEB3
Encoding: 65203 65203 74
Width: 525
VWidth: 750
GlyphClass: 2
Flags: HMW
HStem: -3 108<162 195.75> 0 105<0 19.5 0 33>
VStem: 0 135<0 235.5 105 235.5> 255 69 416.25 75.75<153 162 162 299.25 299.25 299.25>
AnchorPoint: "Anchor-1" 315 525 basechar 0
AnchorPoint: "Anchor-0" 315 -82.5 basechar 0
LayerCount: 2
Fore
SplineSet
416.25 299.25 m 1x78
 492 364.5 l 1
 492 162 l 2
 492 86.25 438.75 0 349.5 0 c 0x78
 306.75 0 284.25 24.75 273.75 45.75 c 1
 249 16.5 216 -3 175.5 -3 c 0xb8
 126 -3 95.25 3 84.75 57 c 1
 66.75 23.25 57.75 0 19.5 0 c 2
 0 0 l 1
 0 105 l 1
 33 105 l 2
 75 105 78 168 89.25 218.25 c 0
 94.5 242.25 100.5 254.25 117 254.25 c 0
 132.75 254.25 135 243 135 228 c 0
 135 202.5 130.5 151.5 120.75 116.25 c 1
 138 105.75 150.75 105 173.25 105 c 0
 262.5 105 255 163.5 255 261 c 0
 255 270 264.75 288 291 290.25 c 0
 309 291.75 318 284.25 324 209.25 c 0
 327 175.5 321 138.75 308.25 105 c 1
 339.75 105 366 105.75 384.75 111 c 0
 405 117 416.25 129 416.25 153 c 2
 416.25 299.25 l 1x78
EndSplineSet
Substitution2: "Single Substitution lookup 54 subtable" uniFEB3.seenYeh
Substitution2: "'aalt' Access All Alternates lookup 0 subtable" uniFEB3.seenYeh
EndChar

StartChar: uniFEB3.seenYeh
Encoding: 1114211 -1 75
Width: 525
VWidth: 750
GlyphClass: 2
Flags: HMW
HStem: -3 108<97.5 153.75> 0 105 172.5 90<0 9.75 0 18>
VStem: 232.763 68.7225 396.75 75.75<153 162 162 299.25 299.25 299.25>
AnchorPoint: "Anchor-1" 315 525 basechar 0
AnchorPoint: "Anchor-0" 312 -82.5 basechar 0
LayerCount: 2
Fore
SplineSet
396.75 299.25 m 1xb8
 472.5 364.5 l 1
 472.5 162 l 2
 472.5 86.25 419.25 0 330 0 c 0x78
 283.5 0 258 24.75 252 45.75 c 1
 223.5 15 181.5 -3 126 -3 c 0
 68.25 -3 41.25 17.25 27 64.5 c 1
 21 100.5 15.75 136.5 9.75 172.5 c 1
 0 172.5 l 1
 0 262.5 l 1
 18 262.5 l 2
 41.25 262.5 63 237.75 69 161.25 c 0
 72.75 113.25 73.5 105 121.5 105 c 0
 253.5 105 237 166.5 225.75 261 c 0
 224.25 272.25 229.5 286.5 263.25 290.25 c 0
 283.5 292.5 293.25 290.25 299.25 230.25 c 0
 304.5 185.25 300.75 141.75 287.25 105 c 1
 324.75 105 354.75 105.75 373.5 114 c 0
 388.5 120.75 396.75 132.75 396.75 153 c 2
 396.75 299.25 l 1xb8
EndSplineSet
EndChar

StartChar: uni0634
Encoding: 1588 1588 76
Width: 525
VWidth: 750
GlyphClass: 2
Flags: HMW
HStem: -300.75 105<33.75 104.625 33.75 134.625> 3 102<409.5 409.5>
VStem: -109.5 48<-103.125 -32.625> 189 81 316.5 65.25<138.75 222.375 210.75 222.375 210.75 224.25> 437.25 72.75<128.25 138.75 138.75 294 294 294>
AnchorPoint: "Anchor-1" 315 757.5 basechar 0
AnchorPoint: "Anchor-0" 375 -232.5 basechar 0
LayerCount: 2
Fore
SplineSet
366.75 586.5 m 1
 302.25 516 l 1
 237 586.5 l 1
 302.25 656.25 l 1
 366.75 586.5 l 1
303 445.5 m 1
 238.5 375 l 1
 173.25 445.5 l 1
 238.5 515.25 l 1
 303 445.5 l 1
390 375 m 1
 324.75 445.5 l 1
 390 515.25 l 1
 454.5 445.5 l 1
 390 375 l 1
437.25 294 m 1
 510 353.25 l 1
 510 138.75 l 2
 510 69 475.5 6.75 409.5 3 c 2
 396 2.25 l 2
 369 0.75 349.5 14.25 336.75 37.5 c 1
 319.5 20.25 297 8.25 273 3 c 1
 270.75 -201 196.5 -300.75 72.75 -300.75 c 0
 -44.25 -300.75 -109.5 -211.5 -109.5 -74.25 c 0
 -109.5 9 -85.5 66 -24.75 141 c 1
 -0.75 105 l 1
 -5.25 98.25 -61.5 33.75 -61.5 -56.25 c 0
 -61.5 -150 0.75 -195.75 66.75 -195.75 c 0
 142.5 -195.75 189 -135 189 -16.5 c 0
 189 60.75 169.5 126.75 157.5 167.25 c 1
 246.75 199.5 l 1
 259.5 166.5 266.25 130.5 270 87.75 c 1
 291.75 90.75 309.75 99.75 316.5 126.75 c 1
 316.5 138.75 l 1
 316.5 210.75 l 2
 316.5 237.75 327.75 260.25 348 260.25 c 0
 369.75 260.25 381.75 234 381.75 210.75 c 2
 382.5 119.25 l 2
 382.5 106.5 390.75 105 399.75 105 c 0
 422.25 105 437.25 114 437.25 128.25 c 2
 437.25 294 l 1
EndSplineSet
Substitution2: "'fina' Terminal Forms lookup 31 subtable" uniFEB6
Substitution2: "'medi' Medial Forms lookup 30 subtable" uniFEB8
Substitution2: "'init' Initial Forms lookup 29 subtable" uniFEB7
AlternateSubs2: "'aalt' Access All Alternates lookup 1 subtable" uniFEB7 uniFEB8 uniFEB6
EndChar

StartChar: uniFEB6
Encoding: 65206 65206 77
Width: 525
VWidth: 750
GlyphClass: 2
Flags: HMW
HStem: -300.75 105<33.75 104.625 33.75 134.625> 0 15.75G<512.625 525> 2.625 102.375
VStem: -109.5 48<-103.125 -32.625> 189 81 316.5 65.25<138.75 222.375 210.75 222.375 210.75 224.25> 437.25 72.75<133.125 138.75 138.75 294 294 294>
AnchorPoint: "Anchor-1" 300 757.5 basechar 0
AnchorPoint: "Anchor-0" 390 -225 basechar 0
LayerCount: 2
Fore
SplineSet
366.75 586.5 m 1xd6
 302.25 516 l 1
 237 586.5 l 1
 302.25 656.25 l 1
 366.75 586.5 l 1xd6
303 445.5 m 1
 238.5 375 l 1
 173.25 445.5 l 1
 238.5 515.25 l 1
 303 445.5 l 1
390 375 m 1
 324.75 445.5 l 1
 390 515.25 l 1
 454.5 445.5 l 1
 390 375 l 1
507 105.75 m 1
 514.5 105 520.5 105 525 105 c 1
 525 0 l 1
 500.25 0 481.5 9 467.25 26.25 c 1xd6
 452.25 12.75 432.75 4.5 409.5 3 c 2
 396 2.25 l 2
 369 0.75 349.5 14.25 336.75 37.5 c 1
 319.5 20.25 297 8.25 273 3 c 1
 270.75 -201 196.5 -300.75 72.75 -300.75 c 0
 -44.25 -300.75 -109.5 -211.5 -109.5 -74.25 c 0
 -109.5 9 -85.5 66 -24.75 141 c 1
 -0.75 105 l 1
 -5.25 98.25 -61.5 33.75 -61.5 -56.25 c 0
 -61.5 -150 0.75 -195.75 66.75 -195.75 c 0
 142.5 -195.75 189 -135 189 -16.5 c 0
 189 60.75 169.5 126.75 157.5 167.25 c 1
 246.75 199.5 l 1
 259.5 166.5 266.25 130.5 270 87.75 c 1
 291.75 90.75 309.75 99.75 316.5 126.75 c 1
 316.5 138.75 l 1
 316.5 210.75 l 2
 316.5 237.75 327.75 260.25 348 260.25 c 0
 369.75 260.25 381.75 234 381.75 210.75 c 2
 382.5 119.25 l 2
 382.5 106.5 390.75 105 399.75 105 c 0
 422.25 105 437.25 114 437.25 128.25 c 2xbe
 437.25 294 l 1
 510 353.25 l 1
 510 138.75 l 2
 510 127.5 509.25 116.25 507 105.75 c 1
EndSplineSet
EndChar

StartChar: uniFEB8
Encoding: 65208 65208 78
Width: 525
VWidth: 750
GlyphClass: 2
Flags: HMW
HStem: -3 108<164.625 183.75> 0 105<0 12 0 25.5 519.75 525> 663.75 15G<324.75 324.75>
VStem: 0 128.25<0 127.125 105 127.125> 271.688 60.6525 426 65.25
AnchorPoint: "Anchor-1" 315 757.5 basechar 0
AnchorPoint: "Anchor-0" 319.5 -102 basechar 0
LayerCount: 2
Fore
SplineSet
389.25 609 m 1xbc
 324.75 538.5 l 1
 259.5 609 l 1
 324.75 678.75 l 1
 389.25 609 l 1xbc
325.5 468 m 1
 261 397.5 l 1
 195.75 468 l 1
 261 537.75 l 1
 325.5 468 l 1
412.5 397.5 m 1
 347.25 468 l 1
 412.5 537.75 l 1
 477 468 l 1
 412.5 397.5 l 1
480 111 m 1
 492 105 514.5 105 525 105 c 1xbc
 525 0 l 1
 488.25 0 465.75 18.75 449.25 57.75 c 1
 423 24 387.75 0 346.5 0 c 0x7c
 309.75 0 284.25 18.75 274.5 37.5 c 1
 234.75 -1.5 189.75 -3 177.75 -3 c 0xbc
 126.75 -3 97.5 17.25 92.25 57 c 1
 74.25 23.25 50.25 0 12 0 c 2
 0 0 l 1x7c
 0 105 l 1
 25.5 105 l 2
 75 105 78 160.5 89.25 210.75 c 0
 94.5 234.75 100.5 246.75 117 246.75 c 0
 132.75 246.75 135 235.5 135 220.5 c 0
 135 195 128.25 131.25 128.25 123 c 0
 128.25 108.75 150.75 105 178.5 105 c 0
 294.75 105 273.75 169.5 263.25 261 c 0
 261 277.5 273 287.25 294.75 289.5 c 0
 322.5 292.5 324 279.75 329.25 231 c 0
 331.5 210 339 168 318 109.5 c 0
 317.25 108 317.25 106.5 316.5 105 c 1
 342.75 105.75 366.75 107.25 387 112.5 c 0
 416.25 120.75 430.5 135 433.5 151.5 c 0
 437.25 173.25 429 260.25 426 291 c 0
 423 319.5 486.75 335.25 491.25 292.5 c 0
 495.75 249.75 498.75 197.25 493.5 162 c 0
 491.25 145.5 486 128.25 480 111 c 1
EndSplineSet
Substitution2: "Single Substitution lookup 54 subtable" uniFEB8.sheenYeh
Substitution2: "'aalt' Access All Alternates lookup 0 subtable" uniFEB8.sheenYeh
EndChar

StartChar: uniFEB8.sheenYeh
Encoding: 1114212 -1 79
Width: 525
VWidth: 750
GlyphClass: 2
Flags: HMW
HStem: -3 108<97.5 153.75> 0 105<509.25 525> 172.5 90<0 9.75 0 18> 663.75 15G<324.75 324.75>
VStem: 232.763 68.7225 396.75 75.75<155.625 162 162 299.25 299.25 299.25>
AnchorPoint: "Anchor-1" 324.75 757.5 basechar 0
AnchorPoint: "Anchor-0" 345 -61.5 basechar 0
LayerCount: 2
Fore
SplineSet
389.25 609 m 1xbc
 324.75 538.5 l 1
 259.5 609 l 1
 324.75 678.75 l 1
 389.25 609 l 1xbc
325.5 468 m 1
 261 397.5 l 1
 195.75 468 l 1
 261 537.75 l 1
 325.5 468 l 1
412.5 397.5 m 1
 347.25 468 l 1
 412.5 537.75 l 1
 477 468 l 1
 412.5 397.5 l 1
468 123 m 1
 480 105 493.5 105 525 105 c 1xbc
 525 0 l 1
 485.25 0 462 22.5 445.5 67.5 c 1
 420.75 28.5 381.75 0 330 0 c 0x7c
 283.5 0 258 24.75 252 45.75 c 1
 223.5 15 181.5 -3 126 -3 c 0
 68.25 -3 41.25 17.25 27 64.5 c 1
 21 100.5 15.75 136.5 9.75 172.5 c 1
 0 172.5 l 1
 0 262.5 l 1
 18 262.5 l 2
 41.25 262.5 63 237.75 69 161.25 c 0
 72.75 113.25 73.5 105 121.5 105 c 0
 253.5 105 237 166.5 225.75 261 c 0
 224.25 272.25 229.5 286.5 263.25 290.25 c 0
 283.5 292.5 293.25 290.25 299.25 230.25 c 0
 304.5 185.25 300.75 141.75 287.25 105 c 1
 324.75 105 354.75 105.75 373.5 114 c 0
 388.5 120.75 396.75 132.75 396.75 153 c 2
 396.75 299.25 l 1
 472.5 364.5 l 1
 472.5 162 l 2
 472.5 149.25 471 135.75 468 123 c 1
EndSplineSet
EndChar

StartChar: uniFEB7
Encoding: 65207 65207 80
Width: 525
VWidth: 750
GlyphClass: 2
Flags: HMW
HStem: -3 108<162 195.75> 0 105<0 19.5 0 33> 663.75 15G<294.75 294.75>
VStem: 0 135<0 235.5 105 235.5> 255 69 416.25 75.75<153 162 162 299.25 299.25 299.25>
AnchorPoint: "Anchor-1" 300 757.5 basechar 0
AnchorPoint: "Anchor-0" 310.5 -88.5 basechar 0
LayerCount: 2
Fore
SplineSet
359.25 609 m 1x7c
 294.75 538.5 l 1
 229.5 609 l 1
 294.75 678.75 l 1
 359.25 609 l 1x7c
295.5 468 m 1
 231 397.5 l 1
 165.75 468 l 1
 231 537.75 l 1
 295.5 468 l 1
382.5 397.5 m 1
 317.25 468 l 1
 382.5 537.75 l 1
 447 468 l 1
 382.5 397.5 l 1
416.25 299.25 m 1
 492 364.5 l 1
 492 162 l 2
 492 86.25 438.75 0 349.5 0 c 0x7c
 306.75 0 284.25 24.75 273.75 45.75 c 1
 249 16.5 216 -3 175.5 -3 c 0xbc
 126 -3 95.25 3 84.75 57 c 1
 66.75 23.25 57.75 0 19.5 0 c 2
 0 0 l 1
 0 105 l 1
 33 105 l 2
 75 105 78 168 89.25 218.25 c 0
 94.5 242.25 100.5 254.25 117 254.25 c 0
 132.75 254.25 135 243 135 228 c 0
 135 202.5 130.5 151.5 120.75 116.25 c 1
 138 105.75 150.75 105 173.25 105 c 0
 262.5 105 255 163.5 255 261 c 0
 255 270 264.75 288 291 290.25 c 0
 309 291.75 318 284.25 324 209.25 c 0
 327 175.5 321 138.75 308.25 105 c 1
 339.75 105 366 105.75 384.75 111 c 0
 405 117 416.25 129 416.25 153 c 2
 416.25 299.25 l 1
EndSplineSet
Substitution2: "Single Substitution lookup 54 subtable" uniFEB7.sheenYeh
Substitution2: "'aalt' Access All Alternates lookup 0 subtable" uniFEB7.sheenYeh
EndChar

StartChar: uniFEB7.sheenYeh
Encoding: 1114213 -1 81
Width: 525
VWidth: 750
GlyphClass: 2
Flags: HMW
HStem: -3 108<97.5 153.75> 0 105 172.5 90<0 9.75 0 18> 663.75 15G<294.75 294.75>
VStem: 232.763 68.7225 396.75 75.75<153 162 162 299.25 299.25 299.25>
AnchorPoint: "Anchor-1" 292.5 757.5 basechar 0
AnchorPoint: "Anchor-0" 306 -70.5 basechar 0
LayerCount: 2
Fore
SplineSet
359.25 609 m 1xbc
 294.75 538.5 l 1
 229.5 609 l 1
 294.75 678.75 l 1
 359.25 609 l 1xbc
295.5 468 m 1
 231 397.5 l 1
 165.75 468 l 1
 231 537.75 l 1
 295.5 468 l 1
382.5 397.5 m 1
 317.25 468 l 1
 382.5 537.75 l 1
 447 468 l 1
 382.5 397.5 l 1
396.75 299.25 m 1
 472.5 364.5 l 1
 472.5 162 l 2
 472.5 86.25 419.25 0 330 0 c 0x7c
 283.5 0 258 24.75 252 45.75 c 1
 223.5 15 181.5 -3 126 -3 c 0
 68.25 -3 41.25 17.25 27 64.5 c 1
 21 100.5 15.75 136.5 9.75 172.5 c 1
 0 172.5 l 1
 0 262.5 l 1
 18 262.5 l 2
 41.25 262.5 63 237.75 69 161.25 c 0
 72.75 113.25 73.5 105 121.5 105 c 0
 253.5 105 237 166.5 225.75 261 c 0
 224.25 272.25 229.5 286.5 263.25 290.25 c 0
 283.5 292.5 293.25 290.25 299.25 230.25 c 0
 304.5 185.25 300.75 141.75 287.25 105 c 1
 324.75 105 354.75 105.75 373.5 114 c 0
 388.5 120.75 396.75 132.75 396.75 153 c 2
 396.75 299.25 l 1
EndSplineSet
EndChar

StartChar: uni0635
Encoding: 1589 1589 82
Width: 525
VWidth: 750
GlyphClass: 2
Flags: HMW
HStem: -300.75 105<33.75 104.625 33.75 134.625> 0 105 273 96<388.125 425.25>
VStem: -109.5 48<-103.125 -32.625> 189 84 460.5 61.5<146.625 196.125>
AnchorPoint: "Anchor-1" 330 525 basechar 0
AnchorPoint: "Anchor-0" 315 -315 basechar 0
LayerCount: 2
Fore
SplineSet
430.5 369 m 0
 504 369 522 281.25 522 163.5 c 0
 522 46.5 408 0 327.75 0 c 0
 306 0 288 0 273 0.75 c 1
 270 -201.75 196.5 -300.75 72.75 -300.75 c 0
 -44.25 -300.75 -109.5 -211.5 -109.5 -74.25 c 0
 -109.5 9 -85.5 66 -24.75 141 c 1
 -0.75 105 l 1
 -5.25 98.25 -61.5 33.75 -61.5 -56.25 c 0
 -61.5 -150 0.75 -195.75 66.75 -195.75 c 0
 142.5 -195.75 189 -135 189 -16.5 c 0
 189 60.75 169.5 126.75 157.5 167.25 c 1
 246.75 199.5 l 1
 252.75 183 258 165.75 261.75 147 c 1
 292.5 231 340.5 369 430.5 369 c 0
286.5 105 m 1
 369.75 106.5 460.5 115.5 460.5 177.75 c 0
 460.5 214.5 442.5 273 408 273 c 0
 368.25 273 324.75 194.25 286.5 105 c 1
EndSplineSet
Substitution2: "'fina' Terminal Forms lookup 31 subtable" uniFEBA
Substitution2: "'medi' Medial Forms lookup 30 subtable" uniFEBC
Substitution2: "'init' Initial Forms lookup 29 subtable" uniFEBB
AlternateSubs2: "'aalt' Access All Alternates lookup 1 subtable" uniFEBB uniFEBC uniFEBA
EndChar

StartChar: uniFEBA
Encoding: 65210 65210 83
Width: 525
VWidth: 750
GlyphClass: 2
Flags: HMW
HStem: -300.75 105<33.75 104.625 33.75 134.625> 0 105<510.75 525> 273 96<388.125 425.25>
VStem: -109.5 48<-103.125 -32.625> 189 84 460.5 61.5<152.625 196.125>
AnchorPoint: "Anchor-1" 300 525 basechar 0
AnchorPoint: "Anchor-0" 315 -315 basechar 0
LayerCount: 2
Fore
SplineSet
510.75 105 m 1
 525 105 l 1
 525 0 l 1
 335.25 0 l 1
 327.75 0 l 2
 306 0 288 0 273 0.75 c 1
 270 -201.75 196.5 -300.75 72.75 -300.75 c 0
 -44.25 -300.75 -109.5 -211.5 -109.5 -74.25 c 0
 -109.5 9 -85.5 66 -24.75 141 c 1
 -0.75 105 l 1
 -5.25 98.25 -61.5 33.75 -61.5 -56.25 c 0
 -61.5 -150 0.75 -195.75 66.75 -195.75 c 0
 142.5 -195.75 189 -135 189 -16.5 c 0
 189 60.75 169.5 126.75 157.5 167.25 c 1
 246.75 199.5 l 1
 252.75 183 258 165.75 261.75 147 c 1
 292.5 231 340.5 369 430.5 369 c 0
 504 369 522 281.25 522 163.5 c 0
 522 141.75 518.25 122.25 510.75 105 c 1
286.5 105 m 1
 369.75 106.5 460.5 115.5 460.5 177.75 c 0
 460.5 214.5 442.5 273 408 273 c 0
 368.25 273 324.75 194.25 286.5 105 c 1
EndSplineSet
EndChar

StartChar: uniFEBC
Encoding: 65212 65212 84
Width: 525
VWidth: 750
GlyphClass: 2
Flags: HMW
HStem: 0 105<0 7.125 151.5 310.5 310.5 340.125> 265.5 103.5<344.25 376.875>
VStem: 34.5 57<126 225> 441 54.75<163.125 192.75> 487.5 37.5<104.25 104.25>
AnchorPoint: "Anchor-1" 262.5 532.5 basechar 0
AnchorPoint: "Anchor-0" 345 -82.5 basechar 0
LayerCount: 2
Fore
SplineSet
0 0 m 1xb0
 0 105 l 1
 14.25 105 l 2
 25.5 105 34.5 114.75 34.5 141 c 2
 34.5 225 l 1
 93 225 l 1
 91.5 135 l 2
 91.5 117 93 112.5 98.25 112.5 c 0
 110.25 112.5 114.75 117 119.25 125.25 c 0
 210 285 306.75 369 381.75 369 c 0
 457.5 369 495.75 284.25 495.75 176.25 c 0xf0
 495.75 150 492.75 122.25 487.5 104.25 c 1
 525 105 l 1
 525 0 l 1xa8
 132 0 l 2
 111.75 0 74.25 33 68.25 44.25 c 1
 60.75 24 14.25 0 0 0 c 1xb0
151.5 105 m 1
 310.5 105 l 2
 369.75 105 441 108.75 441 167.25 c 0
 441 218.25 400.5 265.5 353.25 265.5 c 0xf0
 294.75 265.5 222.75 195 151.5 105 c 1
EndSplineSet
Substitution2: "Single Substitution lookup 54 subtable" uniFEBC.sadYeh
Substitution2: "'aalt' Access All Alternates lookup 0 subtable" uniFEBC.sadYeh
EndChar

StartChar: uniFEBC.sadYeh
Encoding: 1114214 -1 85
Width: 525
VWidth: 750
GlyphClass: 2
Flags: HMW
HStem: 0 105<163.5 238.5 238.5 271.5 271.5 345.75 498.75 525> 172.5 90<0 9.75 0 18> 258 124.5<352.5 387.75>
VStem: 431.25 75<158.625 189.375>
AnchorPoint: "Anchor-1" 262.5 525 basechar 0
AnchorPoint: "Anchor-0" 345 -82.5 basechar 0
LayerCount: 2
Fore
SplineSet
498.75 105 m 1xb0
 525 105 l 1
 525 0 l 1
 271.5 0 l 1
 238.5 0 l 2
 68.25 0 40.5 18.75 27 64.5 c 1
 9.75 172.5 l 1
 0 172.5 l 1
 0 262.5 l 1
 18 262.5 l 2xd0
 42.75 262.5 65.25 229.5 69 161.25 c 0
 71.25 120.75 72.75 105 94.5 105 c 0
 116.25 105 127.5 120 143.25 145.5 c 0
 211.5 253.5 310.5 382.5 394.5 382.5 c 0
 473.25 382.5 506.25 267 506.25 171.75 c 0
 506.25 145.5 504 123.75 498.75 105 c 1xb0
163.5 105 m 1
 345.75 105 l 2
 393.75 105.75 431.25 114 431.25 165.75 c 0
 431.25 213 411 258 364.5 258 c 0
 306.75 258 234.75 187.5 163.5 105 c 1
EndSplineSet
EndChar

StartChar: uniFEBB
Encoding: 65211 65211 86
Width: 525
VWidth: 750
GlyphClass: 2
Flags: HMW
HStem: 0 105<0 6.75 6.75 7.125 163.5 294.75> 258 107.25<348.75 389.25>
VStem: 27 57<122.25 180 122.25 194.625> 453 61.5<144.375 189.75>
AnchorPoint: "Anchor-1" 262.5 525 basechar 0
AnchorPoint: "Anchor-0" 345 -82.5 basechar 0
LayerCount: 2
Fore
SplineSet
0 0 m 1
 0 105 l 1
 6.75 105 l 2
 18 105 27 114.75 27 141 c 2
 27 180 l 2
 27 209.25 37.5 225 56.25 225 c 0
 75 225 85.5 209.25 84.75 179.25 c 2
 84 135 l 2
 84 109.5 85.5 105 98.25 105 c 0
 111 105 125.25 114.75 131.25 125.25 c 0
 186 221.25 303 365.25 394.5 365.25 c 0
 467.25 365.25 514.5 266.25 514.5 175.5 c 0
 514.5 43.5 435 0 294.75 0 c 2
 132 0 l 2
 111.75 0 74.25 33 68.25 44.25 c 1
 60.75 24 14.25 0 0 0 c 1
163.5 105 m 1
 339.75 105 l 2
 415.5 105 453 118.5 453 170.25 c 0
 453 209.25 410.25 258 368.25 258 c 0
 303.75 258 235.5 187.5 163.5 105 c 1
EndSplineSet
Substitution2: "Single Substitution lookup 54 subtable" uniFEBB.sadYeh
Substitution2: "'aalt' Access All Alternates lookup 0 subtable" uniFEBB.sadYeh
EndChar

StartChar: uniFEBB.sadYeh
Encoding: 1114215 -1 87
Width: 525
VWidth: 750
GlyphClass: 2
Flags: HMW
HStem: 0 105<163.5 300.75 300.75 331.5> 172.5 90<0 9.75 0 18> 258 124.5<352.5 387.75>
VStem: 431.25 75<132.375 189.375>
AnchorPoint: "Anchor-1" 300 525 basechar 0
AnchorPoint: "Anchor-0" 360 -82.5 basechar 0
LayerCount: 2
Fore
SplineSet
238.5 0 m 0xb0
 68.25 0 40.5 18.75 27 64.5 c 1
 9.75 172.5 l 1
 0 172.5 l 1
 0 262.5 l 1
 18 262.5 l 2xd0
 42.75 262.5 65.25 229.5 69 161.25 c 0
 71.25 120.75 72.75 105 94.5 105 c 0
 116.25 105 127.5 120 143.25 145.5 c 0
 211.5 253.5 310.5 382.5 394.5 382.5 c 0
 473.25 382.5 506.25 267 506.25 171.75 c 0
 506.25 22.5 424.5 0 238.5 0 c 0xb0
163.5 105 m 1
 300.75 105 l 2
 368.25 105 431.25 99 431.25 165.75 c 0
 431.25 213 411 258 364.5 258 c 0
 306.75 258 234.75 187.5 163.5 105 c 1
EndSplineSet
EndChar

StartChar: uni0636
Encoding: 1590 1590 88
Width: 525
VWidth: 750
GlyphClass: 2
Flags: HMW
HStem: -300.75 105<33.75 104.625 33.75 134.625> 0 105 273 96<388.125 425.25>
VStem: -109.5 48<-103.125 -32.625> 189 84 460.5 61.5<146.625 196.125>
AnchorPoint: "Anchor-1" 337.5 675 basechar 0
AnchorPoint: "Anchor-0" 315 -315 basechar 0
LayerCount: 2
Fore
SplineSet
414.75 495 m 1
 350.25 424.5 l 1
 285 495 l 1
 350.25 564.75 l 1
 414.75 495 l 1
430.5 369 m 0
 504 369 522 281.25 522 163.5 c 0
 522 46.5 408 0 327.75 0 c 0
 306 0 288 0 273 0.75 c 1
 270 -201.75 196.5 -300.75 72.75 -300.75 c 0
 -44.25 -300.75 -109.5 -211.5 -109.5 -74.25 c 0
 -109.5 9 -85.5 66 -24.75 141 c 1
 -0.75 105 l 1
 -5.25 98.25 -61.5 33.75 -61.5 -56.25 c 0
 -61.5 -150 0.75 -195.75 66.75 -195.75 c 0
 142.5 -195.75 189 -135 189 -16.5 c 0
 189 60.75 169.5 126.75 157.5 167.25 c 1
 246.75 199.5 l 1
 252.75 183 258 165.75 261.75 147 c 1
 292.5 231 340.5 369 430.5 369 c 0
286.5 105 m 1
 369.75 106.5 460.5 115.5 460.5 177.75 c 0
 460.5 214.5 442.5 273 408 273 c 0
 368.25 273 324.75 194.25 286.5 105 c 1
EndSplineSet
Substitution2: "'fina' Terminal Forms lookup 31 subtable" uniFEBE
Substitution2: "'medi' Medial Forms lookup 30 subtable" uniFEC0
Substitution2: "'init' Initial Forms lookup 29 subtable" uniFEBF
AlternateSubs2: "'aalt' Access All Alternates lookup 1 subtable" uniFEBF uniFEC0 uniFEBE
EndChar

StartChar: uniFEBE
Encoding: 65214 65214 89
Width: 525
VWidth: 750
GlyphClass: 2
Flags: HMW
HStem: -300.75 105<33.75 104.625 33.75 134.625> 0 105<510.75 525> 273 96<388.125 425.25>
VStem: -109.5 48<-103.125 -32.625> 189 84 460.5 61.5<152.625 196.125>
AnchorPoint: "Anchor-1" 262.5 675 basechar 0
AnchorPoint: "Anchor-0" 315 -315 basechar 0
LayerCount: 2
Fore
SplineSet
411.75 495 m 1
 347.25 424.5 l 1
 282 495 l 1
 347.25 564.75 l 1
 411.75 495 l 1
510.75 105 m 1
 525 105 l 1
 525 0 l 1
 335.25 0 l 1
 327.75 0 l 2
 306 0 288 0 273 0.75 c 1
 270 -201.75 196.5 -300.75 72.75 -300.75 c 0
 -44.25 -300.75 -109.5 -211.5 -109.5 -74.25 c 0
 -109.5 9 -85.5 66 -24.75 141 c 1
 -0.75 105 l 1
 -5.25 98.25 -61.5 33.75 -61.5 -56.25 c 0
 -61.5 -150 0.75 -195.75 66.75 -195.75 c 0
 142.5 -195.75 189 -135 189 -16.5 c 0
 189 60.75 169.5 126.75 157.5 167.25 c 1
 246.75 199.5 l 1
 252.75 183 258 165.75 261.75 147 c 1
 292.5 231 340.5 369 430.5 369 c 0
 504 369 522 281.25 522 163.5 c 0
 522 141.75 518.25 122.25 510.75 105 c 1
286.5 105 m 1
 369.75 106.5 460.5 115.5 460.5 177.75 c 0
 460.5 214.5 442.5 273 408 273 c 0
 368.25 273 324.75 194.25 286.5 105 c 1
EndSplineSet
EndChar

StartChar: uniFEC0
Encoding: 65216 65216 90
Width: 525
VWidth: 750
GlyphClass: 2
Flags: HMW
HStem: 0 105<0 7.125 151.5 310.5 310.5 340.125> 265.5 103.5<344.25 376.875>
VStem: 34.5 57<126 225> 441 54.75<163.125 192.75> 487.5 37.5<104.25 104.25>
AnchorPoint: "Anchor-1" 262.5 675 basechar 0
AnchorPoint: "Anchor-0" 300 -82.5 basechar 0
LayerCount: 2
Fore
SplineSet
262.5 439.5 m 1xb0
 197.25 510 l 1
 262.5 579.75 l 1
 327 510 l 1
 262.5 439.5 l 1xb0
0 0 m 1
 0 105 l 1
 14.25 105 l 2
 25.5 105 34.5 114.75 34.5 141 c 2
 34.5 225 l 1
 93 225 l 1
 91.5 135 l 2
 91.5 117 93 112.5 98.25 112.5 c 0
 110.25 112.5 114.75 117 119.25 125.25 c 0
 210 285 306.75 369 381.75 369 c 0
 457.5 369 495.75 284.25 495.75 176.25 c 0xf0
 495.75 150 492.75 122.25 487.5 104.25 c 1
 525 105 l 1
 525 0 l 1xa8
 132 0 l 2
 111.75 0 74.25 33 68.25 44.25 c 1
 60.75 24 14.25 0 0 0 c 1
151.5 105 m 1
 310.5 105 l 2
 369.75 105 441 108.75 441 167.25 c 0
 441 218.25 400.5 265.5 353.25 265.5 c 0xf0
 294.75 265.5 222.75 195 151.5 105 c 1
EndSplineSet
Substitution2: "Single Substitution lookup 54 subtable" uniFEC0.dadYeh
Substitution2: "'aalt' Access All Alternates lookup 0 subtable" uniFEC0.dadYeh
EndChar

StartChar: uniFEC0.dadYeh
Encoding: 1114216 -1 91
Width: 525
VWidth: 750
GlyphClass: 2
Flags: HMW
HStem: 0 105<163.5 238.5 238.5 271.5 271.5 345.75 498.75 525> 172.5 90<0 9.75 0 18> 258 124.5<352.5 387.75>
VStem: 431.25 75<158.625 189.375>
AnchorPoint: "Anchor-1" 262.5 675 basechar 0
AnchorPoint: "Anchor-0" 300 -82.5 basechar 0
LayerCount: 2
Fore
SplineSet
327 495 m 1xb0
 262.5 424.5 l 1
 197.25 495 l 1
 262.5 564.75 l 1
 327 495 l 1xb0
498.75 105 m 1
 525 105 l 1
 525 0 l 1
 271.5 0 l 1
 238.5 0 l 2
 68.25 0 40.5 18.75 27 64.5 c 1
 9.75 172.5 l 1
 0 172.5 l 1
 0 262.5 l 1
 18 262.5 l 2xd0
 42.75 262.5 65.25 229.5 69 161.25 c 0
 71.25 120.75 72.75 105 94.5 105 c 0
 116.25 105 127.5 120 143.25 145.5 c 0
 211.5 253.5 310.5 382.5 394.5 382.5 c 0
 473.25 382.5 506.25 267 506.25 171.75 c 0
 506.25 145.5 504 123.75 498.75 105 c 1
163.5 105 m 1
 345.75 105 l 2
 393.75 105.75 431.25 114 431.25 165.75 c 0
 431.25 213 411 258 364.5 258 c 0
 306.75 258 234.75 187.5 163.5 105 c 1
EndSplineSet
EndChar

StartChar: uniFEBF
Encoding: 65215 65215 92
Width: 525
VWidth: 750
GlyphClass: 2
Flags: HMW
HStem: 0 105<0 6.75 6.75 7.125 163.5 294.75> 258 107.25<348.75 389.25>
VStem: 27 57<122.25 180 122.25 194.625> 453 61.5<144.375 189.75>
AnchorPoint: "Anchor-1" 285 675 basechar 0
AnchorPoint: "Anchor-0" 375 -82.5 basechar 0
LayerCount: 2
Fore
SplineSet
262.5 424.5 m 1
 197.25 495 l 1
 262.5 564.75 l 1
 327 495 l 1
 262.5 424.5 l 1
0 0 m 1
 0 105 l 1
 6.75 105 l 2
 18 105 27 114.75 27 141 c 2
 27 180 l 2
 27 209.25 37.5 225 56.25 225 c 0
 75 225 85.5 209.25 84.75 179.25 c 2
 84 135 l 2
 84 109.5 85.5 105 98.25 105 c 0
 111 105 125.25 114.75 131.25 125.25 c 0
 186 221.25 303 365.25 394.5 365.25 c 0
 467.25 365.25 514.5 266.25 514.5 175.5 c 0
 514.5 43.5 435 0 294.75 0 c 2
 132 0 l 2
 111.75 0 74.25 33 68.25 44.25 c 1
 60.75 24 14.25 0 0 0 c 1
163.5 105 m 1
 339.75 105 l 2
 415.5 105 453 118.5 453 170.25 c 0
 453 209.25 410.25 258 368.25 258 c 0
 303.75 258 235.5 187.5 163.5 105 c 1
EndSplineSet
Substitution2: "Single Substitution lookup 54 subtable" uniFEBF.dadYeh
Substitution2: "'aalt' Access All Alternates lookup 0 subtable" uniFEBF.dadYeh
EndChar

StartChar: uniFEBF.dadYeh
Encoding: 1114217 -1 93
Width: 525
VWidth: 750
GlyphClass: 2
Flags: HMW
HStem: 0 105<163.5 300.75 300.75 331.5> 172.5 90<0 9.75 0 18> 258 124.5<352.5 387.75>
VStem: 431.25 75<132.375 189.375>
AnchorPoint: "Anchor-1" 285 675 basechar 0
AnchorPoint: "Anchor-0" 374.25 -82.5 basechar 0
LayerCount: 2
Fore
SplineSet
262.5 424.5 m 1xb0
 197.25 495 l 1
 262.5 564.75 l 1
 327 495 l 1
 262.5 424.5 l 1xb0
238.5 0 m 0
 68.25 0 40.5 18.75 27 64.5 c 1
 9.75 172.5 l 1
 0 172.5 l 1
 0 262.5 l 1
 18 262.5 l 2xd0
 42.75 262.5 65.25 229.5 69 161.25 c 0
 71.25 120.75 72.75 105 94.5 105 c 0
 116.25 105 127.5 120 143.25 145.5 c 0
 211.5 253.5 310.5 382.5 394.5 382.5 c 0
 473.25 382.5 506.25 267 506.25 171.75 c 0
 506.25 22.5 424.5 0 238.5 0 c 0
163.5 105 m 1
 300.75 105 l 2
 368.25 105 431.25 99 431.25 165.75 c 0
 431.25 213 411 258 364.5 258 c 0
 306.75 258 234.75 187.5 163.5 105 c 1
EndSplineSet
EndChar

StartChar: uni0637
Encoding: 1591 1591 94
Width: 525
VWidth: 750
GlyphClass: 2
Flags: HMW
HStem: 0 105<40.5 49.5 49.5 53.25 136.5 267.75 0 49.5> 258 107.25<331.875 362.25> 652.5 15G<144.75 144.75>
VStem: 97.5 50.25 426 61.5<144.375 189.75>
AnchorPoint: "Anchor-1" 337.5 675 basechar 0
AnchorPoint: "Anchor-0" 315 -82.5 basechar 0
LayerCount: 2
Fore
SplineSet
367.5 365.25 m 0
 440.25 365.25 487.5 266.25 487.5 175.5 c 0
 487.5 43.5 408 0 267.75 0 c 2
 0 0 l 1
 0 87 27.75 104.25 40.5 105 c 2
 49.5 105 l 2
 57 105 66 106.5 75 108.75 c 1
 93.75 135 99 165.75 97.5 216.75 c 0
 96 282 93 543.75 62.25 592.5 c 1
 144.75 667.5 l 1
 187.5 561.75 l 1
 141 513 145.5 293.25 147.75 192.75 c 1
 208.5 276.75 296.25 365.25 367.5 365.25 c 0
312.75 105 m 2
 388.5 105 426 118.5 426 170.25 c 0
 426 209.25 383.25 258 341.25 258 c 0
 276.75 258 208.5 187.5 136.5 105 c 1
 312.75 105 l 2
EndSplineSet
Substitution2: "'fina' Terminal Forms lookup 31 subtable" uniFEC2
Substitution2: "'medi' Medial Forms lookup 30 subtable" uniFEC4
Substitution2: "'init' Initial Forms lookup 29 subtable" uniFEC3
AlternateSubs2: "'aalt' Access All Alternates lookup 1 subtable" uniFEC3 uniFEC4 uniFEC2
EndChar

StartChar: uniFEC2
Encoding: 65218 65218 95
Width: 525
VWidth: 750
GlyphClass: 2
Flags: HMW
HStem: 0 105<40.5 49.5 49.5 53.25 136.5 312.75 312.75 350.625 477.75 525 0 49.5> 258 107.25<331.875 362.25> 652.5 15G<144.75 144.75>
VStem: 97.5 50.25 426 61.5<162 189.75>
AnchorPoint: "Anchor-1" 337.5 675 basechar 0
AnchorPoint: "Anchor-0" 315 -82.5 basechar 0
LayerCount: 2
Fore
SplineSet
477.75 105 m 1
 525 105 l 1
 525 0 l 1
 0 0 l 1
 0 87 27.75 104.25 40.5 105 c 2
 49.5 105 l 2
 57 105 66 106.5 75 108.75 c 1
 93.75 135 99 165.75 97.5 216.75 c 0
 96 282 93 543.75 62.25 592.5 c 1
 144.75 667.5 l 1
 187.5 561.75 l 1
 141 513 145.5 293.25 147.75 192.75 c 1
 208.5 276.75 296.25 365.25 367.5 365.25 c 0
 440.25 365.25 487.5 266.25 487.5 175.5 c 0
 487.5 148.5 484.5 125.25 477.75 105 c 1
312.75 105 m 2
 388.5 105 426 118.5 426 170.25 c 0
 426 209.25 383.25 258 341.25 258 c 0
 276.75 258 208.5 187.5 136.5 105 c 1
 312.75 105 l 2
EndSplineSet
EndChar

StartChar: uniFEC4
Encoding: 65220 65220 96
Width: 525
VWidth: 750
GlyphClass: 2
Flags: HMW
HStem: 0 105<0.75 49.5 49.5 53.25 136.5 312.75 312.75 350.625 477.75 525 0.75 49.5> 258 107.25<331.875 362.25> 652.5 15G<144.75 144.75>
VStem: 97.5 50.25 426 61.5<162 189.75>
AnchorPoint: "Anchor-1" 337.5 675 basechar 0
AnchorPoint: "Anchor-0" 315 -82.5 basechar 0
LayerCount: 2
Fore
SplineSet
477.75 105 m 1
 525 105 l 1
 525 0 l 1
 0.75 0 l 1
 0.75 105 l 1
 49.5 105 l 2
 57 105 66 106.5 75 108.75 c 1
 93.75 135 99 165.75 97.5 216.75 c 0
 96 282 93 543.75 62.25 592.5 c 1
 144.75 667.5 l 1
 187.5 561.75 l 1
 141 513 145.5 293.25 147.75 192.75 c 1
 208.5 276.75 296.25 365.25 367.5 365.25 c 0
 440.25 365.25 487.5 266.25 487.5 175.5 c 0
 487.5 148.5 484.5 125.25 477.75 105 c 1
312.75 105 m 2
 388.5 105 426 118.5 426 170.25 c 0
 426 209.25 383.25 258 341.25 258 c 0
 276.75 258 208.5 187.5 136.5 105 c 1
 312.75 105 l 2
EndSplineSet
EndChar

StartChar: uniFEC3
Encoding: 65219 65219 97
Width: 525
VWidth: 750
GlyphClass: 2
Flags: HMW
HStem: 0 105<0 76.5 76.5 79.5 163.5 294.75 0 76.5> 258 107.25<357.75 389.25> 652.5 15G<167.25 167.25>
VStem: 120 50.25 453 61.5<144.375 189.75>
AnchorPoint: "Anchor-1" 412.5 675 basechar 0
AnchorPoint: "Anchor-0" 315 -82.5 basechar 0
LayerCount: 2
Fore
SplineSet
394.5 365.25 m 0
 467.25 365.25 514.5 266.25 514.5 175.5 c 0
 514.5 43.5 435 0 294.75 0 c 2
 0 0 l 1
 0 105 l 1
 76.5 105 l 2
 82.5 105 89.25 105.75 96.75 108 c 1
 116.25 133.5 121.5 165 120 216.75 c 0
 118.5 282 115.5 543.75 84.75 592.5 c 1
 167.25 667.5 l 1
 210 561.75 l 1
 162.75 511.5 168 284.25 170.25 186.75 c 1
 231.75 273 321 365.25 394.5 365.25 c 0
339.75 105 m 2
 415.5 105 453 118.5 453 170.25 c 0
 453 209.25 410.25 258 368.25 258 c 0
 303.75 258 235.5 187.5 163.5 105 c 1
 339.75 105 l 2
EndSplineSet
EndChar

StartChar: uni0638
Encoding: 1592 1592 98
Width: 525
VWidth: 750
GlyphClass: 2
Flags: HMW
HStem: 0 105<40.5 49.5 49.5 53.25 136.5 267.75 0 49.5> 258 107.25<331.875 362.25> 652.5 15G<144.75 144.75>
VStem: 97.5 50.25 426 61.5<144.375 189.75>
AnchorPoint: "Anchor-1" 352.5 701.25 basechar 0
AnchorPoint: "Anchor-0" 352.5 -82.5 basechar 0
LayerCount: 2
Fore
SplineSet
367.5 365.25 m 0
 440.25 365.25 487.5 266.25 487.5 175.5 c 0
 487.5 43.5 408 0 267.75 0 c 2
 0 0 l 1
 0 87 27.75 104.25 40.5 105 c 2
 49.5 105 l 2
 57 105 66 106.5 75 108.75 c 1
 93.75 135 99 165.75 97.5 216.75 c 0
 96 282 93 543.75 62.25 592.5 c 1
 144.75 667.5 l 1
 187.5 561.75 l 1
 141 513 145.5 293.25 147.75 192.75 c 1
 208.5 276.75 296.25 365.25 367.5 365.25 c 0
417 506.25 m 1
 352.5 435.75 l 1
 287.25 506.25 l 1
 352.5 576 l 1
 417 506.25 l 1
312.75 105 m 2
 388.5 105 426 118.5 426 170.25 c 0
 426 209.25 383.25 258 341.25 258 c 0
 276.75 258 208.5 187.5 136.5 105 c 1
 312.75 105 l 2
EndSplineSet
Substitution2: "'fina' Terminal Forms lookup 31 subtable" uniFEC6
Substitution2: "'medi' Medial Forms lookup 30 subtable" uniFEC8
Substitution2: "'init' Initial Forms lookup 29 subtable" uniFEC7
AlternateSubs2: "'aalt' Access All Alternates lookup 1 subtable" uniFEC7 uniFEC8 uniFEC6
EndChar

StartChar: uniFEC6
Encoding: 65222 65222 99
Width: 525
VWidth: 750
GlyphClass: 2
Flags: HMW
HStem: 0 105<40.5 49.5 49.5 53.25 136.5 312.75 312.75 350.625 477.75 525 0 49.5> 258 107.25<331.875 362.25> 652.5 15G<144.75 144.75>
VStem: 97.5 50.25 426 61.5<162 189.75>
AnchorPoint: "Anchor-1" 352.5 701.25 basechar 0
AnchorPoint: "Anchor-0" 315 -82.5 basechar 0
LayerCount: 2
Fore
SplineSet
477.75 105 m 1
 525 105 l 1
 525 0 l 1
 0 0 l 1
 0 87 27.75 104.25 40.5 105 c 2
 49.5 105 l 2
 57 105 66 106.5 75 108.75 c 1
 93.75 135 99 165.75 97.5 216.75 c 0
 96 282 93 543.75 62.25 592.5 c 1
 144.75 667.5 l 1
 187.5 561.75 l 1
 141 513 145.5 293.25 147.75 192.75 c 1
 208.5 276.75 296.25 365.25 367.5 365.25 c 0
 440.25 365.25 487.5 266.25 487.5 175.5 c 0
 487.5 148.5 484.5 125.25 477.75 105 c 1
402 495 m 1
 337.5 424.5 l 1
 272.25 495 l 1
 337.5 564.75 l 1
 402 495 l 1
312.75 105 m 2
 388.5 105 426 118.5 426 170.25 c 0
 426 209.25 383.25 258 341.25 258 c 0
 276.75 258 208.5 187.5 136.5 105 c 1
 312.75 105 l 2
EndSplineSet
EndChar

StartChar: uniFEC8
Encoding: 65224 65224 100
Width: 525
VWidth: 750
GlyphClass: 2
Flags: HMW
HStem: 0 105<0.75 49.5 49.5 53.25 136.5 312.75 312.75 350.625 477.75 525 0.75 49.5> 258 107.25<331.875 362.25> 652.5 15G<144.75 144.75>
VStem: 97.5 50.25 426 61.5<162 189.75>
AnchorPoint: "Anchor-1" 352.5 701.25 basechar 0
AnchorPoint: "Anchor-0" 315 -82.5 basechar 0
LayerCount: 2
Fore
SplineSet
477.75 105 m 1
 525 105 l 1
 525 0 l 1
 0.75 0 l 1
 0.75 105 l 1
 49.5 105 l 2
 57 105 66 106.5 75 108.75 c 1
 93.75 135 99 165.75 97.5 216.75 c 0
 96 282 93 543.75 62.25 592.5 c 1
 144.75 667.5 l 1
 187.5 561.75 l 1
 141 513 145.5 293.25 147.75 192.75 c 1
 208.5 276.75 296.25 365.25 367.5 365.25 c 0
 440.25 365.25 487.5 266.25 487.5 175.5 c 0
 487.5 148.5 484.5 125.25 477.75 105 c 1
402 506.25 m 1
 337.5 435.75 l 1
 272.25 506.25 l 1
 337.5 576 l 1
 402 506.25 l 1
312.75 105 m 2
 388.5 105 426 118.5 426 170.25 c 0
 426 209.25 383.25 258 341.25 258 c 0
 276.75 258 208.5 187.5 136.5 105 c 1
 312.75 105 l 2
EndSplineSet
EndChar

StartChar: uniFEC7
Encoding: 65223 65223 101
Width: 525
VWidth: 750
GlyphClass: 2
Flags: HMW
HStem: 0 105<0 76.5 76.5 79.5 163.5 294.75 0 76.5> 258 107.25<357.75 389.25> 652.5 15G<167.25 167.25>
VStem: 120 50.25 453 61.5<144.375 189.75>
AnchorPoint: "Anchor-1" 390 701.25 basechar 0
AnchorPoint: "Anchor-0" 315 -82.5 basechar 0
LayerCount: 2
Fore
SplineSet
394.5 365.25 m 0
 467.25 365.25 514.5 266.25 514.5 175.5 c 0
 514.5 43.5 435 0 294.75 0 c 2
 0 0 l 1
 0 105 l 1
 76.5 105 l 2
 82.5 105 89.25 105.75 96.75 108 c 1
 116.25 133.5 121.5 165 120 216.75 c 0
 118.5 282 115.5 543.75 84.75 592.5 c 1
 167.25 667.5 l 1
 210 561.75 l 1
 162.75 511.5 168 284.25 170.25 186.75 c 1
 231.75 273 321 365.25 394.5 365.25 c 0
432 506.25 m 1
 367.5 435.75 l 1
 302.25 506.25 l 1
 367.5 576 l 1
 432 506.25 l 1
339.75 105 m 2
 415.5 105 453 118.5 453 170.25 c 0
 453 209.25 410.25 258 368.25 258 c 0
 303.75 258 235.5 187.5 163.5 105 c 1
 339.75 105 l 2
EndSplineSet
EndChar

StartChar: uni0639
Encoding: 1593 1593 102
Width: 525
VWidth: 750
GlyphClass: 2
Flags: HMW
HStem: 14166 75
AnchorPoint: "Anchor-1" 277.5 622.5 basechar 0
AnchorPoint: "Anchor-0" 315 -397.5 basechar 0
LayerCount: 2
Fore
SplineSet
466.5 -211.5 m 1
 477.75 -225 l 1
 426.75 -292.5 341.25 -364.5 227.25 -364.5 c 0
 105.75 -364.5 24.75 -283.5 24.75 -172.5 c 0
 24.75 -53.25 119.25 92.25 225.75 145.5 c 1
 173.25 164.25 122.25 219.75 117.75 282.75 c 0
 111 379.5 192 500.25 276 507.75 c 0
 326.25 512.25 377.25 476.25 397.5 420.75 c 1
 389.25 375.75 l 1
 348.75 402.75 322.5 405.75 283.5 402.75 c 0
 197.25 396 146.25 351 169.5 315 c 0
 207 257.25 242.25 231.75 343.5 255.75 c 0
 381.75 264.75 443.25 283.5 472.5 292.5 c 1
 453.75 195.75 l 1
 351 144.75 107.25 108 107.25 -106.5 c 0
 107.25 -214.5 169.5 -262.5 272.25 -262.5 c 0
 347.25 -262.5 424.5 -237 466.5 -211.5 c 1
EndSplineSet
Substitution2: "'fina' Terminal Forms lookup 31 subtable" uniFECA
Substitution2: "'medi' Medial Forms lookup 30 subtable" uniFECC
Substitution2: "'init' Initial Forms lookup 29 subtable" uniFECB
AlternateSubs2: "'aalt' Access All Alternates lookup 1 subtable" uniFECB uniFECC uniFECA
EndChar

StartChar: uniFECB
Encoding: 65227 65227 103
Width: 525
VWidth: 750
GlyphClass: 2
Flags: HMW
HStem: 0 105<0 53.25 0 192.75> 335.25 105<279.375 327.375>
VStem: 131.25 58.5<250.125 277.125>
AnchorPoint: "Anchor-1" 282 577.5 basechar 0
AnchorPoint: "Anchor-0" 315 -82.5 basechar 0
LayerCount: 2
Fore
SplineSet
339 120.75 m 0
 367.5 120.75 426.75 130.5 471 141 c 1
 444 39 l 1
 299.25 1.5 207.75 0 53.25 0 c 2
 0 0 l 1
 0 105 l 1
 192.75 105 l 1
 158.25 130.5 131.25 178.5 131.25 230.25 c 0
 131.25 324 224.25 440.25 309 440.25 c 0
 359.25 440.25 406.5 399.75 422.25 342.75 c 1
 410.25 298.5 l 1
 375.75 327 348 335.25 306.75 335.25 c 0
 252 335.25 189.75 320.25 189.75 272.25 c 0
 189.75 228 243 120.75 339 120.75 c 0
EndSplineSet
EndChar

StartChar: uni063A
Encoding: 1594 1594 104
Width: 525
VWidth: 750
GlyphClass: 2
Flags: HMW
HStem: 14166 75
AnchorPoint: "Anchor-1" 277.5 772.5 basechar 0
AnchorPoint: "Anchor-0" 315 -397.5 basechar 0
LayerCount: 2
Fore
SplineSet
345.75 618 m 1
 281.25 547.5 l 1
 216 618 l 1
 281.25 687.75 l 1
 345.75 618 l 1
466.5 -211.5 m 1
 477.75 -225 l 1
 426.75 -292.5 341.25 -364.5 227.25 -364.5 c 0
 105.75 -364.5 24.75 -283.5 24.75 -172.5 c 0
 24.75 -53.25 119.25 92.25 225.75 145.5 c 1
 173.25 164.25 122.25 219.75 117.75 282.75 c 0
 111 379.5 192 500.25 276 507.75 c 0
 326.25 512.25 377.25 476.25 397.5 420.75 c 1
 389.25 375.75 l 1
 348.75 402.75 322.5 405.75 283.5 402.75 c 0
 197.25 396 146.25 351 169.5 315 c 0
 207 257.25 242.25 231.75 343.5 255.75 c 0
 381.75 264.75 443.25 283.5 472.5 292.5 c 1
 453.75 195.75 l 1
 351 144.75 107.25 108 107.25 -106.5 c 0
 107.25 -214.5 169.5 -262.5 272.25 -262.5 c 0
 347.25 -262.5 424.5 -237 466.5 -211.5 c 1
EndSplineSet
Substitution2: "'fina' Terminal Forms lookup 31 subtable" uniFECE
Substitution2: "'medi' Medial Forms lookup 30 subtable" uniFED0
Substitution2: "'init' Initial Forms lookup 29 subtable" uniFECF
AlternateSubs2: "'aalt' Access All Alternates lookup 1 subtable" uniFECF uniFED0 uniFECE
EndChar

StartChar: uniFECE
Encoding: 65230 65230 105
Width: 525
VWidth: 750
GlyphClass: 2
Flags: HMW
HStem: -364.5 102<237.75 300.375> 0 105<393 424.5 424.5 525> 240 134.25<187.875 357.75>
VStem: 24.75 82.5<-172.875 -82.5>
AnchorPoint: "Anchor-1" 315 712.5 basechar 0
AnchorPoint: "Anchor-0" 444.75 -375 basechar 0
LayerCount: 2
Fore
SplineSet
324.75 531.75 m 1
 260.25 461.25 l 1
 195 531.75 l 1
 260.25 601.5 l 1
 324.75 531.75 l 1
294.75 112.5 m 1
 230.25 74.25 107.25 17.25 107.25 -116.25 c 0
 107.25 -229.5 188.25 -262.5 287.25 -262.5 c 0
 375.75 -262.5 447.75 -236.25 489 -211.5 c 1
 500.25 -225 l 1
 438.75 -304.5 360 -364.5 240.75 -364.5 c 0
 152.25 -364.5 24.75 -331.5 24.75 -166.5 c 0
 24.75 1.5 156 93.75 215.25 124.5 c 0
 247.5 141 276.75 150.75 276.75 179.25 c 0
 276.75 208.5 243.75 240 213.75 240 c 0
 162 240 148.5 240 148.5 278.25 c 0
 148.5 357.75 205.5 374.25 302.25 374.25 c 0
 413.25 374.25 442.5 352.5 453 314.25 c 0
 462 280.5 447 250.5 431.25 225 c 0
 402.75 180.75 364.5 157.5 336 139.5 c 1
 348.75 117.75 369 105 393 105 c 2
 525 105 l 1
 525 0 l 1
 424.5 0 l 2
 357.75 0 309.75 43.5 294.75 112.5 c 1
EndSplineSet
EndChar

StartChar: uniFED0
Encoding: 65232 65232 106
Width: 525
VWidth: 750
GlyphClass: 2
Flags: HMW
HStem: 0 105<0 78.75 0 95.25 484.5 493.5 493.5 525> 215.25 141.75<227.25 231.75>
VStem: 0 525<0 105 0 105>
AnchorPoint: "Anchor-1" 300 712.5 basechar 0
AnchorPoint: "Anchor-0" 315 -82.5 basechar 0
LayerCount: 2
Fore
SplineSet
362.25 525.75 m 1
 297.75 455.25 l 1
 232.5 525.75 l 1
 297.75 595.5 l 1
 362.25 525.75 l 1
484.5 105 m 2
 525 105 l 1
 525 0 l 1
 493.5 0 l 2
 445.5 0 423 0 401.25 20.25 c 0
 371.25 48.75 345.75 73.5 330.75 94.5 c 1
 249.75 31.5 156.75 0 78.75 0 c 2
 0 0 l 1
 0 105 l 1
 95.25 105 l 2
 176.25 105 278.25 113.25 278.25 168 c 0
 278.25 192 246 215.25 217.5 215.25 c 0
 166.5 215.25 152.25 215.25 152.25 246 c 0
 152.25 328.5 156.75 357 297.75 357 c 0
 460.5 357 443.25 333.75 463.5 266.25 c 0
 468 251.25 449.25 224.25 432.75 201 c 0
 414 174.75 393 150.75 370.5 129 c 1
 379.5 121.5 386.25 118.5 414.75 111 c 0
 435 105 450.75 105 484.5 105 c 2
EndSplineSet
Substitution2: "Single Substitution lookup 54 subtable" uniFED0.ghainAlef
Substitution2: "'aalt' Access All Alternates lookup 0 subtable" uniFED0.ghainAlef
EndChar

StartChar: uniFED0.ghainAlef
Encoding: 1114218 -1 107
Width: 525
VWidth: 750
GlyphClass: 2
Flags: HMW
HStem: 0 105<0 11.25 0 11.25 424.5 525> 215.25 141.75<87 268.125>
VStem: 0 525<0 105 0 105>
AnchorPoint: "Anchor-1" 195 715.5 basechar 0
AnchorPoint: "Anchor-0" 225 -82.5 basechar 0
LayerCount: 2
Fore
SplineSet
257.25 525.75 m 1
 192.75 455.25 l 1
 127.5 525.75 l 1
 192.75 595.5 l 1
 257.25 525.75 l 1
424.5 105 m 2
 525 105 l 1
 525 0 l 1
 424.5 0 l 2
 345 0 282.75 26.25 230.25 90.75 c 1
 163.5 31.5 92.25 0 11.25 0 c 2
 0 0 l 1
 0 105 l 1
 11.25 105 l 2
 71.25 105 173.25 114.75 173.25 165.75 c 0
 173.25 194.25 140.25 215.25 112.5 215.25 c 0
 61.5 215.25 47.25 215.25 47.25 246 c 0
 47.25 333 51.75 357 202.5 357 c 0
 333.75 357 343.5 339 358.5 266.25 c 0
 361.5 250.5 348.75 230.25 327.75 201 c 0
 307.5 173.25 286.5 147.75 265.5 125.25 c 1
 300 105 363 105 424.5 105 c 2
EndSplineSet
EndChar

StartChar: uniFECF
Encoding: 65231 65231 108
Width: 525
VWidth: 750
GlyphClass: 2
Flags: HMW
HStem: 0 105<0 53.25 0 192.75> 335.25 105<279.375 327.375>
VStem: 131.25 58.5<250.125 277.125>
AnchorPoint: "Anchor-1" 275.25 742.5 basechar 0
AnchorPoint: "Anchor-0" 315 -82.5 basechar 0
LayerCount: 2
Fore
SplineSet
336.75 582 m 1
 272.25 511.5 l 1
 207 582 l 1
 272.25 651.75 l 1
 336.75 582 l 1
339 120.75 m 0
 367.5 120.75 426.75 130.5 471 141 c 1
 444 39 l 1
 299.25 1.5 207.75 0 53.25 0 c 2
 0 0 l 1
 0 105 l 1
 192.75 105 l 1
 158.25 130.5 131.25 178.5 131.25 230.25 c 0
 131.25 324 224.25 440.25 309 440.25 c 0
 359.25 440.25 406.5 399.75 422.25 342.75 c 1
 410.25 298.5 l 1
 375.75 327 348 335.25 306.75 335.25 c 0
 252 335.25 189.75 320.25 189.75 272.25 c 0
 189.75 228 243 120.75 339 120.75 c 0
EndSplineSet
EndChar

StartChar: uni0641
Encoding: 1601 1601 109
Width: 525
VWidth: 750
GlyphClass: 2
Flags: HMW
HStem: 0 105<133.5 163.5 163.5 271.5> 180.262 98.46 428.347 81.6525
VStem: 3.75 39<84.75 186.75> 238.5 59.25 455.25 60.75<156.75 183 183 183>
AnchorPoint: "Anchor-1" 330 750 basechar 0
AnchorPoint: "Anchor-0" 315 -82.5 basechar 0
LayerCount: 2
Fore
SplineSet
424.5 641.25 m 1
 360 570.75 l 1
 294.75 641.25 l 1
 360 711 l 1
 424.5 641.25 l 1
366.75 510 m 0
 440.25 510 516 357.75 516 198.75 c 0
 516 24.75 425.25 0 271.5 0 c 2
 163.5 0 l 2
 52.5 0 3.75 45.75 3.75 123.75 c 0
 3.75 164.25 17.25 217.5 46.5 243 c 1
 59.25 229.5 l 1
 49.5 216 42.75 196.5 42.75 177 c 0
 42.75 141 65.25 105 133.5 105 c 2
 310.5 105 l 2
 384 105 455.25 113.25 455.25 156.75 c 2
 455.25 183 l 1
 345.75 171.75 245.25 190.5 238.5 274.5 c 0
 232.5 345.75 290.25 510 366.75 510 c 0
297.75 321.75 m 0
 297.75 274.5 330.75 275.25 438.75 282 c 1
 417.75 340.5 378.75 413.25 345 426.75 c 0
 308.25 441.75 297.75 348.75 297.75 321.75 c 0
EndSplineSet
Substitution2: "'fina' Terminal Forms lookup 31 subtable" uniFED2
Substitution2: "'medi' Medial Forms lookup 30 subtable" uniFED4
Substitution2: "'init' Initial Forms lookup 29 subtable" uniFED3
AlternateSubs2: "'aalt' Access All Alternates lookup 1 subtable" uniFED3 uniFED4 uniFED2
EndChar

StartChar: uniFED2
Encoding: 65234 65234 110
Width: 525
VWidth: 750
GlyphClass: 2
Flags: HMW
HStem: 0 105<129.75 159.75 159.75 273.75 520.125 525> 338.25 79.5<342.375 376.875>
VStem: 0 36.75<85.5 166.5> 256.5 51.75<258.75 278.625>
AnchorPoint: "Anchor-1" 315.75 735 basechar 0
AnchorPoint: "Anchor-0" 341.25 -82.5 basechar 0
LayerCount: 2
Fore
SplineSet
425.25 561.75 m 1
 360.75 491.25 l 1
 295.5 561.75 l 1
 360.75 631.5 l 1
 425.25 561.75 l 1
485.25 129.75 m 1
 492.75 122.25 515.25 105 525 105 c 1
 525 0 l 1
 494.25 0 435.75 64.5 429 74.25 c 1
 400.5 29.25 356.25 0 273.75 0 c 2
 159.75 0 l 2
 48.75 0 0 44.25 0 126.75 c 0
 0 160.5 8.25 208.5 37.5 251.25 c 1
 57 243.75 l 1
 38.25 190.5 36.75 171.75 36.75 161.25 c 0
 36.75 126.75 51.75 105 129.75 105 c 2
 297.75 105 l 2
 333.75 105 364.5 105 387.75 108.75 c 1
 303.75 162.75 256.5 204 256.5 250.5 c 0
 256.5 306.75 306.75 417.75 362.25 417.75 c 0
 432.75 417.75 497.25 291 497.25 216 c 0
 497.25 186 494.25 165 485.25 129.75 c 1
308.25 277.5 m 0
 308.25 240 364.5 200.25 431.25 146.25 c 1
 439.5 207 398.25 338.25 355.5 338.25 c 0
 329.25 338.25 308.25 300 308.25 277.5 c 0
EndSplineSet
EndChar

StartChar: uniFED4
Encoding: 65236 65236 111
Width: 525
VWidth: 750
GlyphClass: 2
Flags: HMW
HStem: 0 105<0 144 144 172.5 0 144 499.5 525> 354.75 75<225.75 252.375>
VStem: 137.25 57<262.125 267> 324.75 82.5<205.5 252.375 190.875 255>
AnchorPoint: "Anchor-1" 262.5 754.5 basechar 0
AnchorPoint: "Anchor-0" 322.5 -82.5 basechar 0
LayerCount: 2
Fore
SplineSet
312 567 m 1
 247.5 496.5 l 1
 182.25 567 l 1
 247.5 636.75 l 1
 312 567 l 1
499.5 105 m 2
 525 105 l 1
 525 0 l 1
 483.75 0 l 2
 451.5 0 394.5 27 344.25 73.5 c 1
 321 33 270 0 172.5 0 c 2
 0 0 l 1
 0 105 l 1
 144 105 l 2
 204.75 105 240.75 105.75 264 110.25 c 1
 228.75 129 203.25 145.5 180 164.25 c 0
 147 192 137.25 216.75 137.25 241.5 c 0
 137.25 292.5 177.75 429.75 255.75 429.75 c 0
 333 429.75 407.25 297 407.25 207.75 c 0
 407.25 174 396.75 151.5 384 129.75 c 1
 386.25 126 404.25 117.75 429.75 111 c 0
 450 105.75 460.5 105 499.5 105 c 2
194.25 284.25 m 0
 194.25 240 237 207 314.25 153 c 1
 321 171.75 324.75 195 324.75 216 c 0
 324.75 294 267 354.75 237.75 354.75 c 0
 213.75 354.75 194.25 313.5 194.25 284.25 c 0
EndSplineSet
EndChar

StartChar: uniFED3
Encoding: 65235 65235 112
Width: 525
VWidth: 750
GlyphClass: 2
Flags: HMW
HStem: 0 105<0 237.75 0 276.75> 174 104.25<304.5 316.125> 428.25 81.75<299.625 333>
VStem: 208.5 59.25<223.875 332.625> 426 60<176.25 181.5 181.5 181.5>
AnchorPoint: "Anchor-1" 292.5 855 basechar 0
AnchorPoint: "Anchor-0" 375 -82.5 basechar 0
LayerCount: 2
Fore
SplineSet
396 648.75 m 1
 331.5 578.25 l 1
 266.25 648.75 l 1
 331.5 718.5 l 1
 396 648.75 l 1
337.5 510 m 0
 410.25 510 486 354.75 486 201.75 c 0
 486 40.5 402 0 237.75 0 c 2
 0 0 l 1
 0 105 l 1
 276.75 105 l 2
 388.5 105 426 117.75 426 176.25 c 2
 426 181.5 l 1
 370.5 177 329.25 174 303 174 c 0
 229.5 174 208.5 195.75 208.5 252 c 0
 208.5 341.25 261.75 510 337.5 510 c 0
335.25 278.25 m 0
 351.75 278.25 375 279 408 280.5 c 1
 387.75 352.5 352.5 428.25 313.5 428.25 c 0
 273 428.25 267.75 347.25 267.75 318 c 0
 267.75 287.25 273.75 278.25 335.25 278.25 c 0
EndSplineSet
EndChar

StartChar: uni06A4
Encoding: 1700 1700 113
Width: 525
VWidth: 750
GlyphClass: 2
Flags: HMW
HStem: 0 105<133.5 163.5 163.5 271.5> 180.262 98.46 428.347 81.6525
VStem: 3.75 39<84.75 186.75> 238.5 59.25 455.25 60.75<156.75 183 183 183>
AnchorPoint: "Anchor-1" 330 915 basechar 0
AnchorPoint: "Anchor-0" 315 -82.5 basechar 0
LayerCount: 2
Fore
SplineSet
404.25 773.25 m 1
 339.75 702.75 l 1
 274.5 773.25 l 1
 339.75 843 l 1
 404.25 773.25 l 1
340.5 632.25 m 1
 276 561.75 l 1
 210.75 632.25 l 1
 276 702 l 1
 340.5 632.25 l 1
427.5 561.75 m 1
 362.25 632.25 l 1
 427.5 702 l 1
 492 632.25 l 1
 427.5 561.75 l 1
366.75 510 m 0
 440.25 510 516 357.75 516 198.75 c 0
 516 24.75 425.25 0 271.5 0 c 2
 163.5 0 l 2
 52.5 0 3.75 45.75 3.75 123.75 c 0
 3.75 164.25 17.25 217.5 46.5 243 c 1
 59.25 229.5 l 1
 49.5 216 42.75 196.5 42.75 177 c 0
 42.75 141 65.25 105 133.5 105 c 2
 310.5 105 l 2
 384 105 455.25 113.25 455.25 156.75 c 2
 455.25 183 l 1
 345.75 171.75 245.25 190.5 238.5 274.5 c 0
 232.5 345.75 290.25 510 366.75 510 c 0
297.75 321.75 m 0
 297.75 274.5 330.75 275.25 438.75 282 c 1
 417.75 340.5 378.75 413.25 345 426.75 c 0
 308.25 441.75 297.75 348.75 297.75 321.75 c 0
EndSplineSet
Substitution2: "'fina' Terminal Forms lookup 31 subtable" uniFB6B
Substitution2: "'medi' Medial Forms lookup 30 subtable" uniFB6D
Substitution2: "'init' Initial Forms lookup 29 subtable" uniFB6C
AlternateSubs2: "'aalt' Access All Alternates lookup 1 subtable" uniFB6C uniFB6D uniFB6B
EndChar

StartChar: uniFB6B
Encoding: 64363 64363 114
Width: 525
VWidth: 750
GlyphClass: 2
Flags: HMW
HStem: 0 105<129.75 159.75 159.75 273.75 520.125 525> 338.25 79.5<342.375 376.875>
VStem: 0 36.75<85.5 166.5> 256.5 51.75<258.75 278.625>
AnchorPoint: "Anchor-1" 337.5 832.5 basechar 0
AnchorPoint: "Anchor-0" 341.25 -82.5 basechar 0
LayerCount: 2
Fore
SplineSet
420.75 691.5 m 1
 356.25 621 l 1
 291 691.5 l 1
 356.25 761.25 l 1
 420.75 691.5 l 1
357 550.5 m 1
 292.5 480 l 1
 227.25 550.5 l 1
 292.5 620.25 l 1
 357 550.5 l 1
444 480 m 1
 378.75 550.5 l 1
 444 620.25 l 1
 508.5 550.5 l 1
 444 480 l 1
485.25 129.75 m 1
 492.75 122.25 515.25 105 525 105 c 1
 525 0 l 1
 494.25 0 435.75 64.5 429 74.25 c 1
 400.5 29.25 356.25 0 273.75 0 c 2
 159.75 0 l 2
 48.75 0 0 44.25 0 126.75 c 0
 0 160.5 8.25 208.5 37.5 251.25 c 1
 57 243.75 l 1
 38.25 190.5 36.75 171.75 36.75 161.25 c 0
 36.75 126.75 51.75 105 129.75 105 c 2
 297.75 105 l 2
 333.75 105 364.5 105 387.75 108.75 c 1
 303.75 162.75 256.5 204 256.5 250.5 c 0
 256.5 306.75 306.75 417.75 362.25 417.75 c 0
 432.75 417.75 497.25 291 497.25 216 c 0
 497.25 186 494.25 165 485.25 129.75 c 1
308.25 277.5 m 0
 308.25 240 364.5 200.25 431.25 146.25 c 1
 439.5 207 398.25 338.25 355.5 338.25 c 0
 329.25 338.25 308.25 300 308.25 277.5 c 0
EndSplineSet
EndChar

StartChar: uniFB6D
Encoding: 64365 64365 115
Width: 525
VWidth: 750
GlyphClass: 2
Flags: HMW
HStem: 0 105<0 144 144 172.5 0 144 499.5 525> 354.75 75<225.75 252.375>
VStem: 137.25 57<262.125 267> 324.75 82.5<205.5 252.375 190.875 255>
AnchorPoint: "Anchor-1" 262.5 832.5 basechar 0
AnchorPoint: "Anchor-0" 322.5 -82.5 basechar 0
LayerCount: 2
Fore
SplineSet
309.75 711 m 1
 245.25 640.5 l 1
 180 711 l 1
 245.25 780.75 l 1
 309.75 711 l 1
246 570 m 1
 181.5 499.5 l 1
 116.25 570 l 1
 181.5 639.75 l 1
 246 570 l 1
333 499.5 m 1
 267.75 570 l 1
 333 639.75 l 1
 397.5 570 l 1
 333 499.5 l 1
499.5 105 m 2
 525 105 l 1
 525 0 l 1
 483.75 0 l 2
 451.5 0 394.5 27 344.25 73.5 c 1
 321 33 270 0 172.5 0 c 2
 0 0 l 1
 0 105 l 1
 144 105 l 2
 204.75 105 240.75 105.75 264 110.25 c 1
 228.75 129 203.25 145.5 180 164.25 c 0
 147 192 137.25 216.75 137.25 241.5 c 0
 137.25 292.5 177.75 429.75 255.75 429.75 c 0
 333 429.75 407.25 297 407.25 207.75 c 0
 407.25 174 396.75 151.5 384 129.75 c 1
 386.25 126 404.25 117.75 429.75 111 c 0
 450 105.75 460.5 105 499.5 105 c 2
194.25 284.25 m 0
 194.25 240 237 207 314.25 153 c 1
 321 171.75 324.75 195 324.75 216 c 0
 324.75 294 267 354.75 237.75 354.75 c 0
 213.75 354.75 194.25 313.5 194.25 284.25 c 0
EndSplineSet
EndChar

StartChar: uniFB6C
Encoding: 64364 64364 116
Width: 525
VWidth: 750
GlyphClass: 2
Flags: HMW
HStem: 0 105<0 237.75 0 276.75> 174 104.25<304.5 316.125> 428.25 81.75<299.625 333>
VStem: 208.5 59.25<223.875 332.625> 426 60<176.25 181.5 181.5 181.5>
AnchorPoint: "Anchor-1" 300 937.5 basechar 0
AnchorPoint: "Anchor-0" 375 -82.5 basechar 0
LayerCount: 2
Fore
SplineSet
373.5 774 m 1
 309 703.5 l 1
 243.75 774 l 1
 309 843.75 l 1
 373.5 774 l 1
309.75 633 m 1
 245.25 562.5 l 1
 180 633 l 1
 245.25 702.75 l 1
 309.75 633 l 1
396.75 562.5 m 1
 331.5 633 l 1
 396.75 702.75 l 1
 461.25 633 l 1
 396.75 562.5 l 1
337.5 510 m 0
 410.25 510 486 354.75 486 201.75 c 0
 486 40.5 402 0 237.75 0 c 2
 0 0 l 1
 0 105 l 1
 276.75 105 l 2
 388.5 105 426 117.75 426 176.25 c 2
 426 181.5 l 1
 370.5 177 329.25 174 303 174 c 0
 229.5 174 208.5 195.75 208.5 252 c 0
 208.5 341.25 261.75 510 337.5 510 c 0
335.25 278.25 m 0
 351.75 278.25 375 279 408 280.5 c 1
 387.75 352.5 352.5 428.25 313.5 428.25 c 0
 273 428.25 267.75 347.25 267.75 318 c 0
 267.75 287.25 273.75 278.25 335.25 278.25 c 0
EndSplineSet
EndChar

StartChar: uni06A1
Encoding: 1697 1697 117
Width: 525
VWidth: 750
GlyphClass: 2
Flags: HMW
HStem: 0 105<133.5 163.5 163.5 271.5> 180.262 98.46 428.347 81.6525
VStem: 3.75 39<84.75 186.75> 238.5 59.25 455.25 60.75<156.75 183 183 183>
AnchorPoint: "Anchor-1" 315 675 basechar 0
AnchorPoint: "Anchor-0" 315 -82.5 basechar 0
LayerCount: 2
Fore
SplineSet
366.75 510 m 0
 440.25 510 516 357.75 516 198.75 c 0
 516 24.75 425.25 0 271.5 0 c 2
 163.5 0 l 2
 52.5 0 3.75 45.75 3.75 123.75 c 0
 3.75 164.25 17.25 217.5 46.5 243 c 1
 59.25 229.5 l 1
 49.5 216 42.75 196.5 42.75 177 c 0
 42.75 141 65.25 105 133.5 105 c 2
 310.5 105 l 2
 384 105 455.25 113.25 455.25 156.75 c 2
 455.25 183 l 1
 345.75 171.75 245.25 190.5 238.5 274.5 c 0
 232.5 345.75 290.25 510 366.75 510 c 0
297.75 321.75 m 0
 297.75 274.5 330.75 275.25 438.75 282 c 1
 417.75 340.5 378.75 413.25 345 426.75 c 0
 308.25 441.75 297.75 348.75 297.75 321.75 c 0
EndSplineSet
Substitution2: "'fina' Terminal Forms lookup 31 subtable" uni06A1.fina
Substitution2: "'medi' Medial Forms lookup 30 subtable" uni06A1.medi
Substitution2: "'init' Initial Forms lookup 29 subtable" uni06A1.init
AlternateSubs2: "'aalt' Access All Alternates lookup 1 subtable" uni06A1.init uni06A1.medi uni06A1.fina
EndChar

StartChar: uni06A1.fina
Encoding: 1114219 -1 118
Width: 525
VWidth: 750
GlyphClass: 2
Flags: HMW
HStem: 0 105<129.75 159.75 159.75 273.75 520.125 525> 338.25 79.5<342.375 376.875>
VStem: 0 36.75<85.5 166.5> 256.5 51.75<258.75 278.625>
AnchorPoint: "Anchor-1" 315 570 basechar 0
AnchorPoint: "Anchor-0" 341.25 -82.5 basechar 0
LayerCount: 2
Fore
SplineSet
485.25 129.75 m 1
 492.75 122.25 515.25 105 525 105 c 1
 525 0 l 1
 494.25 0 435.75 64.5 429 74.25 c 1
 400.5 29.25 356.25 0 273.75 0 c 2
 159.75 0 l 2
 48.75 0 0 44.25 0 126.75 c 0
 0 160.5 8.25 208.5 37.5 251.25 c 1
 57 243.75 l 1
 38.25 190.5 36.75 171.75 36.75 161.25 c 0
 36.75 126.75 51.75 105 129.75 105 c 2
 297.75 105 l 2
 333.75 105 364.5 105 387.75 108.75 c 1
 303.75 162.75 256.5 204 256.5 250.5 c 0
 256.5 306.75 306.75 417.75 362.25 417.75 c 0
 432.75 417.75 497.25 291 497.25 216 c 0
 497.25 186 494.25 165 485.25 129.75 c 1
308.25 277.5 m 0
 308.25 240 364.5 200.25 431.25 146.25 c 1
 439.5 207 398.25 338.25 355.5 338.25 c 0
 329.25 338.25 308.25 300 308.25 277.5 c 0
EndSplineSet
EndChar

StartChar: uni06A1.medi
Encoding: 1114220 -1 119
Width: 525
VWidth: 750
GlyphClass: 2
Flags: HMW
HStem: 0 105<0 144 144 172.5 0 144 499.5 525> 354.75 75<225.75 252.375>
VStem: 137.25 57<262.125 267> 324.75 82.5<205.5 252.375 190.875 255>
AnchorPoint: "Anchor-1" 270 570 basechar 0
AnchorPoint: "Anchor-0" 322.5 -82.5 basechar 0
LayerCount: 2
Fore
SplineSet
499.5 105 m 2
 525 105 l 1
 525 0 l 1
 483.75 0 l 2
 451.5 0 394.5 27 344.25 73.5 c 1
 321 33 270 0 172.5 0 c 2
 0 0 l 1
 0 105 l 1
 144 105 l 2
 204.75 105 240.75 105.75 264 110.25 c 1
 228.75 129 203.25 145.5 180 164.25 c 0
 147 192 137.25 216.75 137.25 241.5 c 0
 137.25 292.5 177.75 429.75 255.75 429.75 c 0
 333 429.75 407.25 297 407.25 207.75 c 0
 407.25 174 396.75 151.5 384 129.75 c 1
 386.25 126 404.25 117.75 429.75 111 c 0
 450 105.75 460.5 105 499.5 105 c 2
194.25 284.25 m 0
 194.25 240 237 207 314.25 153 c 1
 321 171.75 324.75 195 324.75 216 c 0
 324.75 294 267 354.75 237.75 354.75 c 0
 213.75 354.75 194.25 313.5 194.25 284.25 c 0
EndSplineSet
EndChar

StartChar: uni06A1.init
Encoding: 1114221 -1 120
Width: 525
VWidth: 750
GlyphClass: 2
Flags: HMW
HStem: 0 105<0 237.75 0 276.75> 174 104.25<304.5 316.125> 428.25 81.75<299.625 333>
VStem: 208.5 59.25<223.875 332.625> 426 60<176.25 181.5 181.5 181.5>
AnchorPoint: "Anchor-1" 315 637.5 basechar 0
AnchorPoint: "Anchor-0" 375 -60 basechar 0
LayerCount: 2
Fore
SplineSet
337.5 510 m 0
 410.25 510 486 354.75 486 201.75 c 0
 486 40.5 402 0 237.75 0 c 2
 0 0 l 1
 0 105 l 1
 276.75 105 l 2
 388.5 105 426 117.75 426 176.25 c 2
 426 181.5 l 1
 370.5 177 329.25 174 303 174 c 0
 229.5 174 208.5 195.75 208.5 252 c 0
 208.5 341.25 261.75 510 337.5 510 c 0
335.25 278.25 m 0
 351.75 278.25 375 279 408 280.5 c 1
 387.75 352.5 352.5 428.25 313.5 428.25 c 0
 273 428.25 267.75 347.25 267.75 318 c 0
 267.75 287.25 273.75 278.25 335.25 278.25 c 0
EndSplineSet
EndChar

StartChar: uni066F
Encoding: 1647 1647 121
Width: 525
VWidth: 750
GlyphClass: 2
Flags: HMW
HStem: -147 105<182.25 293.625 182.25 321.375> 129 103.5 400.5 75.75
VStem: 14.25 48<61.125 92.25> 225 59.25<268.875 292.875 268.875 297.375> 430.5 70.5
AnchorPoint: "Anchor-1" 348 637.5 basechar 0
AnchorPoint: "Anchor-0" 315 -202.5 basechar 0
LayerCount: 2
Fore
SplineSet
501 179.25 m 0
 505.5 -24 406.5 -147 236.25 -147 c 0
 102.75 -147 14.25 -71.25 14.25 59.25 c 0
 14.25 125.25 36.75 201 71.25 223.5 c 1
 82.5 207 l 1
 70.5 186.75 62.25 143.25 62.25 109.5 c 0
 62.25 12.75 129.75 -42 234.75 -42 c 0
 352.5 -42 424.5 27 430.5 129 c 1
 243.75 123 225 204.75 225 252.75 c 0
 225 342 288.75 476.25 349.5 476.25 c 0
 384.75 476.25 426.75 430.5 461.25 357.75 c 0
 479.25 319.5 499.5 264.75 501 179.25 c 0
284.25 283.5 m 0
 284.25 254.25 340.5 238.5 417.75 232.5 c 1
 394.5 320.25 347.25 402 327 400.5 c 0
 305.25 399 284.25 302.25 284.25 283.5 c 0
EndSplineSet
Substitution2: "'fina' Terminal Forms lookup 31 subtable" uni066F.fina
Substitution2: "'aalt' Access All Alternates lookup 0 subtable" uni066F.fina
EndChar

StartChar: uni066F.fina
Encoding: 1114222 -1 122
Width: 525
VWidth: 750
GlyphClass: 2
Flags: HMW
HStem: -262.5 105<170.25 288.375 170.25 317.625> 0 105<501 525 501 525 500.25 525> 278.25 78.75
VStem: 0 48<-33.75 9.375> 225 59.25<147.75 176.625> 423.75 76.5
AnchorPoint: "Anchor-1" 300 562.5 basechar 0
AnchorPoint: "Anchor-0" 315 -315 basechar 0
LayerCount: 2
Fore
SplineSet
501 105 m 1
 525 105 l 1
 525 0 l 1
 500.25 0 l 1
 500.25 -157.5 393 -262.5 242.25 -262.5 c 0
 89.25 -262.5 0 -153.75 0 -22.5 c 0
 0 41.25 21 84 48 117 c 1
 66.75 94.5 l 1
 54.75 72.75 48 51.75 48 17.25 c 0
 48 -84.75 106.5 -157.5 234 -157.5 c 0
 342.75 -157.5 414 -105 423.75 1.5 c 1
 268.5 9 225 48.75 225 129 c 0
 225 224.25 286.5 357 351 357 c 0
 387.75 357 422.25 314.25 449.25 261.75 c 0
 477 207.75 496.5 144 501 105 c 1
284.25 171 m 0
 284.25 124.5 312.75 109.5 418.5 105.75 c 1
 406.5 189.75 376.5 285.75 332.25 278.25 c 0
 296.25 272.25 284.25 201 284.25 171 c 0
EndSplineSet
EndChar

StartChar: uni0642
Encoding: 1602 1602 123
Width: 525
VWidth: 750
GlyphClass: 2
Flags: HMW
HStem: -147 105<182.25 293.625 182.25 321.375> 129 103.5 400.5 75.75
VStem: 14.25 48<61.125 92.25> 225 59.25<268.875 292.875 268.875 297.375> 430.5 70.5
AnchorPoint: "Anchor-1" 322.5 787.5 basechar 0
AnchorPoint: "Anchor-0" 315 -202.5 basechar 0
LayerCount: 2
Fore
SplineSet
479.25 617.25 m 1
 416.25 546.75 l 1
 350.25 615.75 l 1
 414 685.5 l 1
 479.25 617.25 l 1
310.5 615.75 m 1
 248.25 544.5 l 1
 182.25 613.5 l 1
 245.25 683.25 l 1
 310.5 615.75 l 1
501 179.25 m 0
 505.5 -24 406.5 -147 236.25 -147 c 0
 102.75 -147 14.25 -71.25 14.25 59.25 c 0
 14.25 125.25 36.75 201 71.25 223.5 c 1
 82.5 207 l 1
 70.5 186.75 62.25 143.25 62.25 109.5 c 0
 62.25 12.75 129.75 -42 234.75 -42 c 0
 352.5 -42 424.5 27 430.5 129 c 1
 243.75 123 225 204.75 225 252.75 c 0
 225 342 288.75 476.25 349.5 476.25 c 0
 384.75 476.25 426.75 430.5 461.25 357.75 c 0
 479.25 319.5 499.5 264.75 501 179.25 c 0
284.25 283.5 m 0
 284.25 254.25 340.5 238.5 417.75 232.5 c 1
 394.5 320.25 347.25 402 327 400.5 c 0
 305.25 399 284.25 302.25 284.25 283.5 c 0
EndSplineSet
Substitution2: "'fina' Terminal Forms lookup 31 subtable" uniFED6
Substitution2: "'medi' Medial Forms lookup 30 subtable" uniFED8
Substitution2: "'init' Initial Forms lookup 29 subtable" uniFED7
AlternateSubs2: "'aalt' Access All Alternates lookup 1 subtable" uniFED7 uniFED8 uniFED6
EndChar

StartChar: uniFED6
Encoding: 65238 65238 124
Width: 525
VWidth: 750
GlyphClass: 2
Flags: HMW
HStem: -262.5 105<170.25 288.375 170.25 317.625> 0 105<501 525 501 525 500.25 525> 278.25 78.75
VStem: 0 48<-33.75 9.375> 225 59.25<147.75 176.625> 423.75 76.5
AnchorPoint: "Anchor-1" 300 675 basechar 0
AnchorPoint: "Anchor-0" 315 -315 basechar 0
LayerCount: 2
Fore
SplineSet
492.75 498 m 1
 429.75 427.5 l 1
 363.75 496.5 l 1
 427.5 566.25 l 1
 492.75 498 l 1
324 496.5 m 1
 261.75 425.25 l 1
 195.75 494.25 l 1
 258.75 564 l 1
 324 496.5 l 1
501 105 m 1
 525 105 l 1
 525 0 l 1
 500.25 0 l 1
 500.25 -157.5 393 -262.5 242.25 -262.5 c 0
 89.25 -262.5 0 -153.75 0 -22.5 c 0
 0 41.25 21 84 48 117 c 1
 66.75 94.5 l 1
 54.75 72.75 48 51.75 48 17.25 c 0
 48 -84.75 106.5 -157.5 234 -157.5 c 0
 342.75 -157.5 414 -105 423.75 1.5 c 1
 268.5 9 225 48.75 225 129 c 0
 225 224.25 286.5 357 351 357 c 0
 387.75 357 422.25 314.25 449.25 261.75 c 0
 477 207.75 496.5 144 501 105 c 1
284.25 171 m 0
 284.25 124.5 312.75 109.5 418.5 105.75 c 1
 406.5 189.75 376.5 285.75 332.25 278.25 c 0
 296.25 272.25 284.25 201 284.25 171 c 0
EndSplineSet
EndChar

StartChar: uniFED8
Encoding: 65240 65240 125
Width: 525
VWidth: 750
GlyphClass: 2
Flags: HMW
HStem: 0 105<0 144 144 172.5 0 144 499.5 525> 354.75 75<225.75 252.375>
VStem: 137.25 57<262.125 267> 324.75 82.5<205.5 252.375 190.875 255>
AnchorPoint: "Anchor-1" 262.5 780 basechar 0
AnchorPoint: "Anchor-0" 330 -82.5 basechar 0
LayerCount: 2
Fore
SplineSet
408.75 570 m 1
 345.75 499.5 l 1
 279.75 568.5 l 1
 343.5 638.25 l 1
 408.75 570 l 1
240 568.5 m 1
 177.75 497.25 l 1
 111.75 566.25 l 1
 174.75 636 l 1
 240 568.5 l 1
499.5 105 m 2
 525 105 l 1
 525 0 l 1
 483.75 0 l 2
 451.5 0 394.5 27 344.25 73.5 c 1
 321 33 270 0 172.5 0 c 2
 0 0 l 1
 0 105 l 1
 144 105 l 2
 204.75 105 240.75 105.75 264 110.25 c 1
 228.75 129 203.25 145.5 180 164.25 c 0
 147 192 137.25 216.75 137.25 241.5 c 0
 137.25 292.5 177.75 429.75 255.75 429.75 c 0
 333 429.75 407.25 297 407.25 207.75 c 0
 407.25 174 396.75 151.5 384 129.75 c 1
 386.25 126 404.25 117.75 429.75 111 c 0
 450 105.75 460.5 105 499.5 105 c 2
194.25 284.25 m 0
 194.25 240 237 207 314.25 153 c 1
 321 171.75 324.75 195 324.75 216 c 0
 324.75 294 267 354.75 237.75 354.75 c 0
 213.75 354.75 194.25 313.5 194.25 284.25 c 0
EndSplineSet
EndChar

StartChar: uniFED7
Encoding: 65239 65239 126
Width: 525
VWidth: 750
GlyphClass: 2
Flags: HMW
HStem: 0 105<0 237.75 0 276.75> 174 104.25<304.5 316.125> 428.25 81.75<299.625 333>
VStem: 208.5 59.25<223.875 332.625> 426 60<176.25 181.5 181.5 181.5>
AnchorPoint: "Anchor-1" 315 810 basechar 0
AnchorPoint: "Anchor-0" 375 -82.5 basechar 0
LayerCount: 2
Fore
SplineSet
458.25 643.5 m 1
 395.25 573 l 1
 329.25 642 l 1
 393 711.75 l 1
 458.25 643.5 l 1
289.5 642 m 1
 227.25 570.75 l 1
 161.25 639.75 l 1
 224.25 709.5 l 1
 289.5 642 l 1
337.5 510 m 0
 410.25 510 486 354.75 486 201.75 c 0
 486 40.5 402 0 237.75 0 c 2
 0 0 l 1
 0 105 l 1
 276.75 105 l 2
 388.5 105 426 117.75 426 176.25 c 2
 426 181.5 l 1
 370.5 177 329.25 174 303 174 c 0
 229.5 174 208.5 195.75 208.5 252 c 0
 208.5 341.25 261.75 510 337.5 510 c 0
335.25 278.25 m 0
 351.75 278.25 375 279 408 280.5 c 1
 387.75 352.5 352.5 428.25 313.5 428.25 c 0
 273 428.25 267.75 347.25 267.75 318 c 0
 267.75 287.25 273.75 278.25 335.25 278.25 c 0
EndSplineSet
EndChar

StartChar: uni0643
Encoding: 1603 1603 127
Width: 525
VWidth: 750
GlyphClass: 2
Flags: HMW
HStem: 0 105<99.75 159.75 159.75 337.5> 652.5 15G<517.5 517.5>
VStem: 126 46.5<391.125 392.25> 201.75 56.25<304.5 319.125> 452.25 65.25<171 237.75>
AnchorPoint: "Anchor-1" 247.5 622.5 basechar 0
AnchorPoint: "Anchor-0" 262.5 -82.5 basechar 0
LayerCount: 2
Fore
SplineSet
159.75 0 m 2
 39.75 0 0.75 15.75 0.75 105 c 1
 384.75 105 l 2
 433.5 105 452.25 133.5 452.25 208.5 c 0
 452.25 267 441 398.25 427.5 596.25 c 1
 517.5 667.5 l 1
 517.5 146.25 l 2
 517.5 42 465.75 0 337.5 0 c 2
 159.75 0 l 2
99 222.75 m 1
 102.75 254.25 l 1
 150.75 276 201.75 296.25 201.75 312 c 0
 201.75 326.25 164.25 333.75 137.25 344.25 c 0
 130.5 346.5 126 349.5 126 365.25 c 0
 126 419.25 177.75 474.75 221.25 474.75 c 0
 228 474.75 239.25 473.25 248.25 468.75 c 1
 219.75 424.5 l 1
 197.25 426.75 172.5 411.75 172.5 401.25 c 0
 172.5 381 258 374.25 258 330.75 c 0
 258 278.25 133.5 235.5 99 222.75 c 1
EndSplineSet
Substitution2: "'fina' Terminal Forms lookup 31 subtable" uniFEDA
Substitution2: "'medi' Medial Forms lookup 30 subtable" uniFEDC
Substitution2: "'init' Initial Forms lookup 29 subtable" uniFEDB
AlternateSubs2: "'aalt' Access All Alternates lookup 1 subtable" uniFEDB uniFEDC uniFEDA
EndChar

StartChar: uniFEDA
Encoding: 65242 65242 128
Width: 525
VWidth: 750
GlyphClass: 2
Flags: HMW
HStem: 0 105<129.75 159.75 159.75 298.5 517.5 525> 652.5 15G<498.75 504.75 504.75 504.75>
VStem: 0 42.75<153.375 169.125> 171 46.5<406.125 407.25> 246.75 56.25<319.5 334.125> 431.25 73.5 459.75 65.25<0 186>
AnchorPoint: "Anchor-1" 240 645 basechar 0
AnchorPoint: "Anchor-0" 300 -82.5 basechar 0
LayerCount: 2
Fore
SplineSet
159.75 0 m 2xfc
 39.75 0 0 38.25 0 127.5 c 0
 0 210.75 34.5 258 51 294.75 c 1
 64.5 284.25 l 1
 54 258 42.75 198 42.75 171.75 c 0
 42.75 135 64.5 105 129.75 105 c 2
 313.5 105 l 2
 393 105 426 119.25 431.25 219.75 c 0
 435.75 312.75 416.25 501.75 406.5 590.25 c 1
 498.75 667.5 l 1
 504.75 667.5 l 1
 504.75 597 492.75 264.75 497.25 193.5 c 0xfc
 499.5 159.75 510 105 525 105 c 1
 525 0 l 1xfa
 490.5 0 459.75 51 459.75 186 c 1
 448.5 6.75 373.5 0 298.5 0 c 2
 159.75 0 l 2xfc
144 237.75 m 1
 147.75 269.25 l 1
 195.75 291 246.75 311.25 246.75 327 c 0
 246.75 341.25 209.25 348.75 182.25 359.25 c 0
 175.5 361.5 171 364.5 171 380.25 c 0
 171 434.25 222.75 489.75 266.25 489.75 c 0
 273 489.75 284.25 488.25 293.25 483.75 c 1
 264.75 439.5 l 1
 242.25 441.75 217.5 426.75 217.5 416.25 c 0
 217.5 396 303 389.25 303 345.75 c 0
 303 293.25 178.5 250.5 144 237.75 c 1
EndSplineSet
EndChar

StartChar: uniFEDC
Encoding: 65244 65244 129
Width: 525
VWidth: 750
GlyphClass: 2
Flags: HMW
HStem: 0 105<0 52.5 52.5 102.375 0 221.25 0 52.5 499.5 525> 652.5 15G<431.25 431.25>
VStem: 0 525<0 105 0 105> 331.335 193.665
AnchorPoint: "Anchor-1" 262.5 727.5 basechar 0
AnchorPoint: "Anchor-0" 315 -82.5 basechar 0
LayerCount: 2
Fore
SplineSet
499.5 105 m 2xe0
 525 105 l 1
 525 0 l 1
 496.5 0 l 2
 456.75 0 412.5 45.75 381 116.25 c 1
 357 58.5 303.75 0 221.25 0 c 2
 0 0 l 1
 0 105 l 1
 52.5 105 l 2
 152.25 105 276 98.25 322.5 123.75 c 1xd0
 382.5 188.25 120.75 317.25 99 312.75 c 1
 77.25 312.75 63 326.25 90.75 429 c 1
 154.5 528.75 345.75 636 431.25 667.5 c 1
 421.5 573 l 1
 134.25 402 l 1
 243.75 368.25 354.75 288 386.25 223.5 c 1
 407.25 187.5 414 153.75 437.25 132 c 0
 455.25 115.5 480 105 499.5 105 c 2xe0
EndSplineSet
Substitution2: "Single Substitution lookup 54 subtable" uniFEDC.kafAlef
Substitution2: "'aalt' Access All Alternates lookup 0 subtable" uniFEDC.kafAlef
EndChar

StartChar: uniFEDC.kafAlef
Encoding: 1114223 -1 130
Width: 525
VWidth: 750
GlyphClass: 2
Flags: HMW
HStem: 0 105<0 181.5 181.5 266.25 0 181.5 508.5 525> 237.75 93 307.5 15G<-71.25 -71.25>
VStem: 384 70.5<142.875 260.625> 432.75 92.25
AnchorPoint: "Anchor-1" 187.5 727.5 basechar 0
AnchorPoint: "Anchor-0" 262.5 -82.5 basechar 0
LayerCount: 2
Fore
SplineSet
508.5 105 m 2xd0
 525 105 l 1
 525 0 l 1
 508.5 0 l 2
 469.5 0 441 42 432.75 109.5 c 1xc8
 408.75 53.25 360 0 266.25 0 c 2
 0 0 l 1
 0 105 l 1
 181.5 105 l 2
 360.75 105 384 121.5 384 164.25 c 0
 384 234.75 322.5 243 238.5 240.75 c 2
 13.5 234.75 l 2
 -96 231 -123 246.75 -126 293.25 c 0xd0
 -132.75 406.5 4.5 534.75 198 609 c 1
 174.75 509.25 l 1
 66.75 453.75 -38.25 385.5 -71.25 322.5 c 1xa8
 235.5 330.75 l 2
 367.5 334.5 454.5 310.5 454.5 210.75 c 0
 454.5 199.5 453 184.5 450.75 168.75 c 1
 455.25 129.75 475.5 105 508.5 105 c 2xd0
EndSplineSet
EndChar

StartChar: uniFEDB
Encoding: 65243 65243 131
Width: 525
VWidth: 750
GlyphClass: 2
Flags: HMW
HStem: 0 105<0 112.5 112.5 162.375 0 281.25 0 112.5> 652.5 15G<491.25 491.25>
VStem: 391.335 64.725
AnchorPoint: "Anchor-1" 262.5 727.5 basechar 0
AnchorPoint: "Anchor-0" 315 -82.5 basechar 0
LayerCount: 2
Fore
SplineSet
491.25 667.5 m 1
 481.5 573 l 1
 194.25 402 l 1
 316.5 364.5 440.25 268.5 454.5 201.75 c 0
 467.25 142.5 410.25 0 281.25 0 c 2
 0 0 l 1
 0 105 l 1
 112.5 105 l 2
 212.25 105 336 98.25 382.5 123.75 c 1
 442.5 188.25 180.75 317.25 159 312.75 c 1
 137.25 312.75 123 326.25 150.75 429 c 1
 214.5 528.75 405.75 636 491.25 667.5 c 1
EndSplineSet
Substitution2: "Single Substitution lookup 54 subtable" uniFEDB.kafAlef
Substitution2: "'aalt' Access All Alternates lookup 0 subtable" uniFEDB.kafAlef
EndChar

StartChar: uniFEDB.kafAlef
Encoding: 1114224 -1 132
Width: 525
VWidth: 750
GlyphClass: 2
Flags: HMW
HStem: 0 105<0 181.5 181.5 266.25 0 181.5> 237.75 93 307.5 15G<-71.25 -71.25>
VStem: 384 70.5<180.75 199.5>
AnchorPoint: "Anchor-1" 187.5 727.5 basechar 0
AnchorPoint: "Anchor-0" 262.5 -82.5 basechar 0
LayerCount: 2
Fore
SplineSet
235.5 330.75 m 2xd0
 367.5 334.5 454.5 310.5 454.5 210.75 c 0
 454.5 150.75 423 0 266.25 0 c 2
 0 0 l 1
 0 105 l 1
 181.5 105 l 2
 360.75 105 384 121.5 384 164.25 c 0
 384 234.75 322.5 243 238.5 240.75 c 2
 13.5 234.75 l 2
 -96 231 -123 246.75 -126 293.25 c 0xd0
 -132.75 406.5 4.5 534.75 198 609 c 1
 174.75 509.25 l 1
 66.75 453.75 -38.25 385.5 -71.25 322.5 c 1xb0
 235.5 330.75 l 2xd0
EndSplineSet
EndChar

StartChar: uni06A9
Encoding: 1705 1705 133
Width: 525
VWidth: 750
GlyphClass: 2
Flags: HMW
HStem: 0 105<90.375 112.5 112.5 162.375 90.375 281.25> 652.5 15G<491.25 491.25>
VStem: 391.335 64.725
AnchorPoint: "Anchor-1" 262.5 727.5 basechar 0
AnchorPoint: "Anchor-0" 262.5 -82.5 basechar 0
LayerCount: 2
Fore
SplineSet
491.25 667.5 m 1
 481.5 573 l 1
 194.25 402 l 1
 316.5 364.5 440.25 268.5 454.5 201.75 c 0
 467.25 142.5 410.25 0 281.25 0 c 2
 112.5 0 l 2
 45 0 0 38.25 0 96 c 0
 0 150 17.25 201.75 42.75 225 c 1
 49.5 222 51 203.25 48 178.5 c 0
 42.75 134.25 68.25 105 112.5 105 c 0
 212.25 105 336 98.25 382.5 123.75 c 1
 442.5 188.25 180.75 317.25 159 312.75 c 1
 137.25 312.75 123 326.25 150.75 429 c 1
 214.5 528.75 405.75 636 491.25 667.5 c 1
EndSplineSet
Substitution2: "'fina' Terminal Forms lookup 31 subtable" uniFB8F
Substitution2: "'medi' Medial Forms lookup 30 subtable" uniFB91
Substitution2: "'init' Initial Forms lookup 29 subtable" uniFB90
AlternateSubs2: "'aalt' Access All Alternates lookup 1 subtable" uniFB90 uniFB91 uniFB8F
EndChar

StartChar: uniFB8F
Encoding: 64399 64399 134
Width: 525
VWidth: 750
GlyphClass: 2
Flags: HMW
HStem: 0 105<90.375 112.5 112.5 162.375 90.375 281.25 516 525> 652.5 15G<491.25 491.25>
VStem: 391.335 133.665
AnchorPoint: "Anchor-1" 262.5 727.5 basechar 0
AnchorPoint: "Anchor-0" 300 -82.5 basechar 0
LayerCount: 2
Fore
SplineSet
516 105 m 2
 525 105 l 1
 525 0 l 1
 516 0 l 2
 493.5 0 468.75 45.75 441 115.5 c 1
 416.25 57.75 363.75 0 281.25 0 c 2
 112.5 0 l 2
 45 0 0 38.25 0 96 c 0
 0 150 17.25 201.75 42.75 225 c 1
 49.5 222 51 203.25 48 178.5 c 0
 42.75 134.25 68.25 105 112.5 105 c 0
 212.25 105 336 98.25 382.5 123.75 c 1
 442.5 188.25 180.75 317.25 159 312.75 c 1
 137.25 312.75 123 326.25 150.75 429 c 1
 214.5 528.75 405.75 636 491.25 667.5 c 1
 481.5 573 l 1
 194.25 402 l 1
 306 367.5 418.5 285 448.5 219.75 c 1
 479.25 168 503.25 105 516 105 c 2
EndSplineSet
EndChar

StartChar: uniFB91
Encoding: 64401 64401 135
Width: 525
VWidth: 750
GlyphClass: 2
Flags: HMW
HStem: 0 105<0 52.5 52.5 102.375 0 221.25 0 52.5 499.5 525> 652.5 15G<431.25 431.25>
VStem: 0 525<0 105 0 105> 331.335 193.665
AnchorPoint: "Anchor-1" 262.5 727.5 basechar 0
AnchorPoint: "Anchor-0" 315 -82.5 basechar 0
LayerCount: 2
Fore
SplineSet
499.5 105 m 2xe0
 525 105 l 1
 525 0 l 1
 496.5 0 l 2
 456.75 0 412.5 45.75 381 116.25 c 1
 357 58.5 303.75 0 221.25 0 c 2
 0 0 l 1
 0 105 l 1
 52.5 105 l 2
 152.25 105 276 98.25 322.5 123.75 c 1xd0
 382.5 188.25 120.75 317.25 99 312.75 c 1
 77.25 312.75 63 326.25 90.75 429 c 1
 154.5 528.75 345.75 636 431.25 667.5 c 1
 421.5 573 l 1
 134.25 402 l 1
 243.75 368.25 354.75 288 386.25 223.5 c 1
 407.25 187.5 414 153.75 437.25 132 c 0
 455.25 115.5 480 105 499.5 105 c 2xe0
EndSplineSet
EndChar

StartChar: uniFB90
Encoding: 64400 64400 136
Width: 525
VWidth: 750
GlyphClass: 2
Flags: HMW
HStem: 0 105<0 112.5 112.5 162.375 0 281.25 0 112.5> 652.5 15G<491.25 491.25>
VStem: 391.335 64.725
AnchorPoint: "Anchor-1" 262.5 727.5 basechar 0
AnchorPoint: "Anchor-0" 315 -82.5 basechar 0
LayerCount: 2
Fore
SplineSet
491.25 667.5 m 1
 481.5 573 l 1
 194.25 402 l 1
 316.5 364.5 440.25 268.5 454.5 201.75 c 0
 467.25 142.5 410.25 0 281.25 0 c 2
 0 0 l 1
 0 105 l 1
 112.5 105 l 2
 212.25 105 336 98.25 382.5 123.75 c 1
 442.5 188.25 180.75 317.25 159 312.75 c 1
 137.25 312.75 123 326.25 150.75 429 c 1
 214.5 528.75 405.75 636 491.25 667.5 c 1
EndSplineSet
EndChar

StartChar: uni06AF
Encoding: 1711 1711 137
Width: 525
VWidth: 750
GlyphClass: 2
Flags: HMW
HStem: 0 105<90.375 112.5 112.5 162.375 90.375 281.25> 652.5 15G<491.25 491.25>
VStem: 391.335 64.725
AnchorPoint: "Anchor-1" 262.5 802.5 basechar 0
AnchorPoint: "Anchor-0" 262.5 -82.5 basechar 0
LayerCount: 2
Fore
SplineSet
438 760.5 m 1
 310.5 697.5 205.5 625.5 144 562.5 c 1
 133.5 614.25 l 1
 207.75 678 314.25 750.75 427.5 813 c 1
 438 760.5 l 1
491.25 667.5 m 1
 481.5 573 l 1
 194.25 402 l 1
 316.5 364.5 440.25 268.5 454.5 201.75 c 0
 467.25 142.5 410.25 0 281.25 0 c 2
 112.5 0 l 2
 45 0 0 38.25 0 96 c 0
 0 150 17.25 201.75 42.75 225 c 1
 49.5 222 51 203.25 48 178.5 c 0
 42.75 134.25 68.25 105 112.5 105 c 0
 212.25 105 336 98.25 382.5 123.75 c 1
 442.5 188.25 180.75 317.25 159 312.75 c 1
 137.25 312.75 123 326.25 150.75 429 c 1
 214.5 528.75 405.75 636 491.25 667.5 c 1
EndSplineSet
Substitution2: "'fina' Terminal Forms lookup 31 subtable" uniFB93
Substitution2: "'medi' Medial Forms lookup 30 subtable" uniFB95
Substitution2: "'init' Initial Forms lookup 29 subtable" uniFB94
AlternateSubs2: "'aalt' Access All Alternates lookup 1 subtable" uniFB94 uniFB95 uniFB93
EndChar

StartChar: uniFB93
Encoding: 64403 64403 138
Width: 525
VWidth: 750
GlyphClass: 2
Flags: HMW
HStem: 0 105<90.375 112.5 112.5 162.375 90.375 281.25 516 525> 652.5 15G<491.25 491.25>
VStem: 391.335 133.665
AnchorPoint: "Anchor-1" 262.5 810 basechar 0
AnchorPoint: "Anchor-0" 300 -82.5 basechar 0
LayerCount: 2
Fore
SplineSet
430.5 752.25 m 1
 303 689.25 198 617.25 136.5 554.25 c 1
 126 606 l 1
 200.25 669.75 306.75 742.5 420 804.75 c 1
 430.5 752.25 l 1
516 105 m 2
 525 105 l 1
 525 0 l 1
 516 0 l 2
 493.5 0 468.75 45.75 441 115.5 c 1
 416.25 57.75 363.75 0 281.25 0 c 2
 112.5 0 l 2
 45 0 0 38.25 0 96 c 0
 0 150 17.25 201.75 42.75 225 c 1
 49.5 222 51 203.25 48 178.5 c 0
 42.75 134.25 68.25 105 112.5 105 c 0
 212.25 105 336 98.25 382.5 123.75 c 1
 442.5 188.25 180.75 317.25 159 312.75 c 1
 137.25 312.75 123 326.25 150.75 429 c 1
 214.5 528.75 405.75 636 491.25 667.5 c 1
 481.5 573 l 1
 194.25 402 l 1
 306 367.5 418.5 285 448.5 219.75 c 1
 479.25 168 503.25 105 516 105 c 2
EndSplineSet
EndChar

StartChar: uniFB95
Encoding: 64405 64405 139
Width: 525
VWidth: 750
GlyphClass: 2
Flags: HMW
HStem: 0 105<0 52.5 52.5 102.375 0 221.25 0 52.5 499.5 525> 652.5 15G<431.25 431.25>
VStem: 0 525<0 105 0 105> 331.335 193.665
AnchorPoint: "Anchor-1" 262.5 825 basechar 0
AnchorPoint: "Anchor-0" 315 -82.5 basechar 0
LayerCount: 2
Fore
SplineSet
385.5 760.5 m 1xe0
 258 697.5 153 625.5 91.5 562.5 c 1
 81 614.25 l 1
 155.25 678 261.75 750.75 375 813 c 1
 385.5 760.5 l 1xe0
499.5 105 m 2
 525 105 l 1
 525 0 l 1
 496.5 0 l 2
 456.75 0 412.5 45.75 381 116.25 c 1
 357 58.5 303.75 0 221.25 0 c 2
 0 0 l 1
 0 105 l 1
 52.5 105 l 2
 152.25 105 276 98.25 322.5 123.75 c 1xd0
 382.5 188.25 120.75 317.25 99 312.75 c 1
 77.25 312.75 63 326.25 90.75 429 c 1
 154.5 528.75 345.75 636 431.25 667.5 c 1
 421.5 573 l 1
 134.25 402 l 1
 243.75 368.25 354.75 288 386.25 223.5 c 1
 407.25 187.5 414 153.75 437.25 132 c 0
 455.25 115.5 480 105 499.5 105 c 2
EndSplineSet
EndChar

StartChar: uniFB94
Encoding: 64404 64404 140
Width: 525
VWidth: 750
GlyphClass: 2
Flags: HMW
HStem: 0 105<0 112.5 112.5 162.375 0 281.25 0 112.5> 652.5 15G<491.25 491.25>
VStem: 391.335 64.725
AnchorPoint: "Anchor-1" 262.5 825 basechar 0
AnchorPoint: "Anchor-0" 315 -82.5 basechar 0
LayerCount: 2
Fore
SplineSet
438 760.5 m 1
 310.5 697.5 205.5 625.5 144 562.5 c 1
 133.5 614.25 l 1
 207.75 678 314.25 750.75 427.5 813 c 1
 438 760.5 l 1
491.25 667.5 m 1
 481.5 573 l 1
 194.25 402 l 1
 316.5 364.5 440.25 268.5 454.5 201.75 c 0
 467.25 142.5 410.25 0 281.25 0 c 2
 0 0 l 1
 0 105 l 1
 112.5 105 l 2
 212.25 105 336 98.25 382.5 123.75 c 1
 442.5 188.25 180.75 317.25 159 312.75 c 1
 137.25 312.75 123 326.25 150.75 429 c 1
 214.5 528.75 405.75 636 491.25 667.5 c 1
EndSplineSet
EndChar

StartChar: uni0644
Encoding: 1604 1604 141
Width: 525
VWidth: 750
GlyphClass: 2
Flags: HMW
HStem: -197.25 105 652.5 15G<458.25 458.25>
VStem: 64.5 47.25 384.75 85.5
AnchorPoint: "Anchor-1" 345 712.5 basechar 0
AnchorPoint: "Anchor-0" 277.5 -277.5 basechar 0
LayerCount: 2
Fore
SplineSet
264.75 -197.25 m 0
 152.25 -201 68.25 -130.5 64.5 -10.5 c 0
 62.25 58.5 87 140.25 128.25 179.25 c 1
 147 162.75 l 1
 123 139.5 108 54.75 111.75 12 c 0
 117.75 -58.5 175.5 -94.5 259.5 -92.25 c 0
 334.5 -90 385.5 -52.5 384.75 4.5 c 0
 381 234.75 368.25 421.5 352.5 565.5 c 1
 458.25 667.5 l 1
 470.25 54 l 2
 473.25 -93 394.5 -192.75 264.75 -197.25 c 0
EndSplineSet
Substitution2: "'fina' Terminal Forms lookup 31 subtable" uniFEDE
Substitution2: "'medi' Medial Forms lookup 30 subtable" uniFEE0
Substitution2: "'init' Initial Forms lookup 29 subtable" uniFEDF
AlternateSubs2: "'aalt' Access All Alternates lookup 1 subtable" uniFEDF uniFEE0 uniFEDE
EndChar

StartChar: uniFEDE
Encoding: 65246 65246 142
Width: 525
VWidth: 750
GlyphClass: 2
Flags: HMW
HStem: -262.5 105<142.5 223.5 142.5 248.25> 0 105<483.375 525 496.5 525> 652.5 15G<393 393>
VStem: 0 48<-79.875 -24> 323.25 84<-43.5 40.5>
AnchorPoint: "Anchor-1" 345 712.5 basechar 0
AnchorPoint: "Anchor-0" 337.5 -300 basechar 0
LayerCount: 2
Fore
SplineSet
180 -262.5 m 0
 72 -262.5 0 -184.5 0 -68.25 c 0
 0 20.25 27 102 67.5 136.5 c 1
 78.75 120 l 1
 60 90.75 48 24 48 -46.5 c 0
 48 -113.25 102 -157.5 183 -157.5 c 0
 264 -157.5 323.25 -92.25 323.25 5.25 c 0
 323.25 75.75 303.75 493.5 294.75 578.25 c 1
 393 667.5 l 1
 399.75 504 396.75 142.5 408 129 c 0
 430.5 102.75 468 105 496.5 105 c 2
 525 105 l 1
 525 0 l 1
 496.5 0 l 2
 470.25 0 439.5 6 407.25 45.75 c 1
 407.25 -139.5 316.5 -262.5 180 -262.5 c 0
EndSplineSet
EndChar

StartChar: uniFEE0
Encoding: 65248 65248 143
Width: 525
VWidth: 750
GlyphClass: 2
Flags: HMW
HStem: 0 105<0 78.75 0 78.75 78.75 138.75 458.625 525> 652.5 15G<328.5 336 336 336>
VStem: 255.75 81<176.625 219.75 176.625 256.875>
AnchorPoint: "Anchor-1" 270 742.5 basechar 0
AnchorPoint: "Anchor-0" 318 -82.5 basechar 0
LayerCount: 2
Fore
SplineSet
0 0 m 1
 0 105 l 1
 78.75 105 l 2
 246 105 255.75 135.75 255.75 216.75 c 0
 255.75 297 246 452.25 231.75 578.25 c 1
 328.5 667.5 l 1
 336 667.5 l 1
 336.75 219.75 l 2
 336.75 133.5 372 105 525 105 c 1
 525 0 l 1
 392.25 0 311.25 21 294 186 c 1
 265.5 35.25 232.5 0 138.75 0 c 2
 0 0 l 1
EndSplineSet
Substitution2: "Single Substitution lookup 54 subtable" uniFEE0.LamHeh
Substitution2: "Single Substitution lookup 7 subtable" uniFEE0.LamLamInit
Substitution2: "Single Substitution lookup 6 subtable" uniFEE0.Lellah
Substitution2: "Single Substitution lookup 4 subtable" uniFEE0.FaLellah
Substitution2: "'aalt' Access All Alternates lookup 0 subtable" uniFEE0.LamHeh
EndChar

StartChar: uniFEE0.FaLellah
Encoding: 1114225 -1 144
Width: 525
VWidth: 750
GlyphClass: 2
Flags: HMW
HStem: -15 105<136.125 211.5> 0 105<491.25 525>
VStem: 306 69<177.75 177.75 177.75 226.5>
AnchorPoint: "Anchor-1" 336 817.5 basechar 0
AnchorPoint: "Anchor-0" 390 -74.25 basechar 0
LayerCount: 2
Fore
SplineSet
375 177.75 m 1x60
 378.75 123.75 399.75 105 525 105 c 1
 525 0 l 1x60
 457.5 0 397.5 10.5 362.25 74.25 c 1
 331.5 1.5 251.25 -15 171.75 -15 c 0
 100.5 -15 40.5 -1.5 0 28.5 c 1
 0 148.5 l 1
 26.25 117.75 79.5 90 171.75 90 c 0xa0
 288 90 306 134.25 306 192.75 c 0
 306 260.25 282 427.5 263.25 541.5 c 1
 354 627.75 l 1
 421.5 510.75 l 1
 387 474.75 375 442.5 375 297.75 c 2
 375 177.75 l 1x60
EndSplineSet
EndChar

StartChar: uniFEE0.LamHeh
Encoding: 1114226 -1 145
Width: 525
VWidth: 750
GlyphClass: 2
Flags: HMW
HStem: -204.75 105.75<66 129.375 66 136.5> 0 105<396.375 525 468.75 525 468.75 525> 652.5 15G<258.75 258.75>
VStem: 150.75 108<591.75 667.5> 196.5 53.7
AnchorPoint: "Anchor-1" 172.5 712.5 basechar 0
AnchorPoint: "Anchor-0" 247.5 -262.5 basechar 0
LayerCount: 2
Fore
SplineSet
84.75 -204.75 m 0xe8
 44.25 -204.75 30.75 -191.25 0 -162 c 1
 0 -53.25 l 1
 21.75 -85.5 43.5 -99 88.5 -99 c 0
 170.25 -99 204 -55.5 196.5 56.25 c 0xe8
 183.75 247.5 159 531 150.75 591.75 c 1
 258.75 667.5 l 1
 261.75 519 261.75 259.5 266.25 204 c 0xf0
 273 117.75 326.25 105 468.75 105 c 2
 525 105 l 1
 525 0 l 1
 443.25 0 l 2
 349.5 0 292.5 5.25 243.75 105 c 1
 275.25 -117 188.25 -204.75 84.75 -204.75 c 0xe8
EndSplineSet
EndChar

StartChar: uniFEE0.LamLamInit
Encoding: 1114227 -1 146
Width: 525
VWidth: 750
GlyphClass: 2
Flags: HMW
HStem: 0 105<0 153.75 0 153.75 153.75 213.75 496.125 525> 652.5 15G<403.5 411 411 411>
VStem: 330.75 81<176.625 219.75 176.625 256.875>
AnchorPoint: "Anchor-1" 334.5 742.5 basechar 0
AnchorPoint: "Anchor-0" 370.5 -82.5 basechar 0
LayerCount: 2
Fore
SplineSet
0 0 m 1
 0 105 l 1
 153.75 105 l 2
 321 105 330.75 135.75 330.75 216.75 c 0
 330.75 297 321 452.25 306.75 578.25 c 1
 403.5 667.5 l 1
 411 667.5 l 1
 411.75 219.75 l 2
 411.75 133.5 447 105 525 105 c 1
 525 0 l 1
 467.25 0 386.25 21 369 186 c 1
 340.5 35.25 307.5 0 213.75 0 c 2
 0 0 l 1
EndSplineSet
Substitution2: "Single Substitution lookup 54 subtable" uniFEE0.LamHeh
Substitution2: "'aalt' Access All Alternates lookup 0 subtable" uniFEE0.LamHeh
EndChar

StartChar: uniFEE0.Lellah
Encoding: 1114228 -1 147
Width: 525
VWidth: 750
GlyphClass: 2
Flags: HMW
HStem: -15 105<184.5 296.25>
VStem: 0 21<99.75 509.25 493.5 509.25> 424.5 79.755 471 54
AnchorPoint: "Anchor-1" 504.75 736.5 basechar 0
AnchorPoint: "Anchor-0" 507.75 -87 basechar 0
LayerCount: 2
Fore
SplineSet
225.75 -15 m 0xe0
 84 -15 30 40.5 0 99.75 c 1
 0 493.5 l 1
 21 509.25 l 1
 26.25 300.75 30.75 237.75 36.75 207.75 c 0
 54.75 114 117.75 90 251.25 90 c 0
 369 90 424.5 108.75 424.5 248.25 c 0
 424.5 321 409.5 441.75 399.75 526.5 c 1
 507 605.25 l 1
 513 603.75 l 1
 520.5 547.5 497.25 242.25 506.25 187.5 c 0xe0
 508.5 175.5 514.5 162 525 148.5 c 1
 525 28.5 l 1
 495.75 51 477 81.75 471 123 c 1xd0
 438 39.75 366.75 -15 225.75 -15 c 0xe0
EndSplineSet
MultipleSubs2: "Multiple Substitution lookup 3 subtable" uniFEE0.Lellah uni0651 uni0670
EndChar

StartChar: uniFEDF
Encoding: 65247 65247 148
Width: 525
VWidth: 750
GlyphClass: 2
Flags: HMW
HStem: 0 105<0 219 0 204.75> 652.5 15G<342 342>
VStem: 286.5 76.5<164.625 224.625>
AnchorPoint: "Anchor-1" 321.75 742.5 basechar 0
AnchorPoint: "Anchor-0" 338.25 -82.5 basechar 0
LayerCount: 2
Fore
SplineSet
0 0 m 1
 0 105 l 1
 219 105 l 2
 277.5 105 286.5 141.75 286.5 187.5 c 0
 286.5 261.75 263.25 461.25 243.75 581.25 c 1
 342 667.5 l 1
 409.5 550.5 l 1
 360.75 499.5 l 1
 360.75 456 363 411.75 363 297.75 c 2
 363 146.25 l 2
 363 42 322.5 0 204.75 0 c 2
 0 0 l 1
EndSplineSet
Substitution2: "Single Substitution lookup 7 subtable" uniFEDF.LamLamInit
Substitution2: "Single Substitution lookup 5 subtable" uniFEDF.Lellah
EndChar

StartChar: uniFEDF.LamLamInit
Encoding: 1114229 -1 149
Width: 525
VWidth: 750
GlyphClass: 2
Flags: HMW
HStem: 0 105<0 219 0 204.75> 652.5 15G<342 342>
VStem: 286.5 76.5<164.625 224.625>
AnchorPoint: "Anchor-1" 321.75 742.5 basechar 0
AnchorPoint: "Anchor-0" 338.25 -82.5 basechar 0
LayerCount: 2
Fore
SplineSet
0 0 m 1
 0 105 l 1
 219 105 l 2
 277.5 105 286.5 141.75 286.5 187.5 c 0
 286.5 261.75 263.25 461.25 243.75 581.25 c 1
 342 667.5 l 1
 409.5 550.5 l 1
 360.75 499.5 l 1
 360.75 456 363 411.75 363 297.75 c 2
 363 146.25 l 2
 363 42 322.5 0 204.75 0 c 2
 0 0 l 1
EndSplineSet
EndChar

StartChar: uniFEDF.Lellah
Encoding: 1114230 -1 150
Width: 525
VWidth: 750
GlyphClass: 2
Flags: HMW
HStem: -15 105<136.125 222>
VStem: 298.5 76.5<163.5 226.5>
AnchorPoint: "Anchor-1" 336 817.5 basechar 0
AnchorPoint: "Anchor-0" 390 -74.25 basechar 0
LayerCount: 2
Fore
SplineSet
0 148.5 m 1
 26.25 117.75 79.5 90 171.75 90 c 0
 280.5 90 298.5 134.25 298.5 192.75 c 0
 298.5 260.25 274.5 427.5 263.25 541.5 c 1
 354 627.75 l 1
 421.5 510.75 l 1
 387 474.75 375 442.5 375 297.75 c 2
 375 146.25 l 2
 375 11.25 272.25 -15 171.75 -15 c 0
 100.5 -15 40.5 -1.5 0 28.5 c 1
 0 148.5 l 1
EndSplineSet
EndChar

StartChar: uni0645
Encoding: 1605 1605 151
Width: 525
VWidth: 750
GlyphClass: 2
Flags: HMW
HStem: 0 105<212.25 244.5 244.5 431.25 191.25 444> 261.75 94.5<302.625 316.875>
VStem: 96.75 6.75<-370.5 -369>
AnchorPoint: "Anchor-1" 300 510 basechar 0
AnchorPoint: "Anchor-0" 285 -375 basechar 0
LayerCount: 2
Fore
SplineSet
323.25 356.25 m 0
 420 356.25 510 109.5 510 78.75 c 0
 510 60.75 478.5 0 444 0 c 2
 244.5 0 l 2
 180 0 135 -0.75 135 -35.25 c 0
 135 -57.75 154.5 -176.25 174 -294 c 1
 103.5 -370.5 l 1
 96.75 -369 l 1
 90.75 -305.25 89.25 -308.25 63 -91.5 c 0
 54.75 -23.25 93 90.75 191.25 105 c 1
 431.25 105 l 1
 402.75 151.5 330 261.75 303.75 261.75 c 0
 280.5 261.75 231 174 202.5 174 c 0
 193.5 174 189 183 189 196.5 c 0
 189 216 198.75 243.75 212.25 267.75 c 0
 237 312 282 356.25 323.25 356.25 c 0
EndSplineSet
Substitution2: "'fina' Terminal Forms lookup 31 subtable" uniFEE2
Substitution2: "'medi' Medial Forms lookup 30 subtable" uniFEE4
Substitution2: "'init' Initial Forms lookup 29 subtable" uniFEE3
AlternateSubs2: "'aalt' Access All Alternates lookup 1 subtable" uniFEE3 uniFEE4 uniFEE2
EndChar

StartChar: uniFEE2
Encoding: 65250 65250 152
Width: 525
VWidth: 750
GlyphClass: 2
Flags: HMW
HStem: 0 105<494.625 525 508.5 525 508.5 525> 79.5 9.75 279.75 60.75
VStem: 49.38 475.62
AnchorPoint: "Anchor-1" 277.5 510 basechar 0
AnchorPoint: "Anchor-0" 300 -375 basechar 0
LayerCount: 2
Fore
SplineSet
508.5 105 m 2xb0
 525 105 l 1
 525 0 l 1
 502.5 0 l 2
 486.75 0 470.25 5.25 438 33.75 c 0xb0
 420 49.5 406.5 63.75 397.5 79.5 c 1x70
 402.75 54 385.5 3.75 362.25 -18 c 1
 305.25 -7.5 232.5 12.75 162 47.25 c 1
 141.75 25.5 131.25 12.75 117.75 -14.25 c 1
 151.5 -297 l 1
 72.75 -368.25 l 1
 66.75 -366.75 l 1
 66.75 -297.75 55.5 -109.5 50.25 -21.75 c 0
 45.75 50.25 57 63 128.25 104.25 c 1
 152.25 114 243 315.75 279.75 333.75 c 0
 295.5 341.25 357 344.25 376.5 333.75 c 0
 423 309 435 105 508.5 105 c 2xb0
212.25 131.25 m 1x70
 274.5 105 320.25 94.5 387.75 89.25 c 1
 368.25 121.5 337.5 208.5 303.75 279.75 c 1
 257.25 224.25 219 150.75 212.25 131.25 c 1x70
EndSplineSet
EndChar

StartChar: uniFEE4
Encoding: 65252 65252 153
Width: 525
VWidth: 750
GlyphClass: 2
Flags: HMW
HStem: 0 105<0 42.75 0 68.25 508.5 525> 79.5 9.75 279.75 60.75
VStem: 0 525<0 105 0 105>
AnchorPoint: "Anchor-1" 262.5 510 basechar 0
AnchorPoint: "Anchor-0" 360 -82.5 basechar 0
LayerCount: 2
Fore
SplineSet
508.5 105 m 2xb0
 525 105 l 1
 525 0 l 1
 495 0 l 2
 449.25 0 432.75 5.25 400.5 33.75 c 0xb0
 382.5 49.5 369 63.75 360 79.5 c 1x70
 365.25 54 348 3.75 324.75 -18 c 1
 267.75 -7.5 195 12.75 124.5 47.25 c 1
 105.75 0 75.75 0 42.75 0 c 2
 0 0 l 1
 0 105 l 1
 68.25 105 l 2
 114.75 105 204.75 315 242.25 333.75 c 0
 257.25 341.25 319.5 344.25 339 333.75 c 0
 385.5 309 397.5 105 508.5 105 c 2xb0
175.5 131.25 m 1x70
 237 105 282.75 94.5 350.25 89.25 c 1
 331.5 120.75 307.5 193.5 266.25 279.75 c 1
 219 223.5 183.75 153 175.5 131.25 c 1x70
EndSplineSet
EndChar

StartChar: uniFEE3
Encoding: 65251 65251 154
Width: 525
VWidth: 750
GlyphClass: 2
Flags: HMW
HStem: 0 105<0 95.25 0 120.75> 279.75 60.75
VStem: 0 476.25
AnchorPoint: "Anchor-1" 300 510 basechar 0
AnchorPoint: "Anchor-0" 382.5 -82.5 basechar 0
LayerCount: 2
Fore
SplineSet
476.25 162 m 1
 481.5 136.5 400.5 3.75 377.25 -18 c 1
 320.25 -7.5 247.5 12.75 177 47.25 c 1
 158.25 0 128.25 0 95.25 0 c 2
 0 0 l 1
 0 105 l 1
 120.75 105 l 2
 167.25 105 257.25 315 294.75 333.75 c 0
 309.75 341.25 372 344.25 391.5 333.75 c 0
 422.25 317.25 447.75 234 476.25 162 c 1
229.5 130.5 m 1
 288.75 105.75 333.75 94.5 397.5 90 c 1
 379.5 133.5 356.25 207.75 318.75 279.75 c 1
 276.75 229.5 240.75 164.25 229.5 130.5 c 1
EndSplineSet
Substitution2: "'ss01' Style Set 1 lookup 36 subtable" uniFEE3.ss01
Substitution2: "'salt' Stylistic Alternatives lookup 35 subtable" uniFEE3.ss01
Substitution2: "'aalt' Access All Alternates lookup 0 subtable" uniFEE3.ss01
EndChar

StartChar: uniFEE3.ss01
Encoding: 1114231 -1 155
Width: 525
VWidth: 750
GlyphClass: 2
Flags: HMW
HStem: 0 105<0 166.5 0 61.5>
VStem: 0 470.25
AnchorPoint: "Anchor-1" 300 510 basechar 0
AnchorPoint: "Anchor-0" 382.5 -82.5 basechar 0
LayerCount: 2
Fore
SplineSet
0 0 m 1
 0 105 l 1
 166.5 105 l 2
 228 105 261 106.5 287.25 111.75 c 1
 255 132 219.75 177.75 219.75 216.75 c 0
 219.75 244.5 234.75 270.75 255 300 c 0
 279 334.5 294.75 348 315.75 348 c 0
 367.5 348 436.5 268.5 470.25 216.75 c 1
 468 150.75 458.25 96 426 63 c 0
 366 2.25 210.75 0 61.5 0 c 2
 0 0 l 1
EndSplineSet
EndChar

StartChar: uni0646
Encoding: 1606 1606 156
Width: 525
VWidth: 750
GlyphClass: 2
Flags: HMW
HStem: -139.5 105<160.875 268.875 160.875 302.25>
VStem: 20.25 55.5 436.5 57.75<50.625 87>
AnchorPoint: "Anchor-1" 226.5 600 basechar 0
AnchorPoint: "Anchor-0" 307.5 -240 basechar 0
LayerCount: 2
Fore
SplineSet
201.75 324 m 1
 136.5 394.5 l 1
 201.75 464.25 l 1
 266.25 394.5 l 1
 201.75 324 l 1
219.75 -139.5 m 0
 89.25 -139.5 9.75 -51 20.25 81.75 c 0
 24.75 138.75 43.5 195.75 66.75 223.5 c 1
 89.25 207 l 1
 81 186.75 75.75 149.25 75.75 113.25 c 0
 75.75 24.75 124.5 -34.5 197.25 -34.5 c 0
 340.5 -34.5 436.5 14.25 436.5 87 c 1
 432.75 133.5 402 211.5 360.75 282 c 1
 430.5 360.75 l 1
 462.75 291 488.25 199.5 494.25 132 c 1
 494.25 -30.75 384.75 -139.5 219.75 -139.5 c 0
EndSplineSet
Substitution2: "'fina' Terminal Forms lookup 31 subtable" uniFEE6
Substitution2: "'medi' Medial Forms lookup 30 subtable" uniFEE8
Substitution2: "'init' Initial Forms lookup 29 subtable" uniFEE7
AlternateSubs2: "'aalt' Access All Alternates lookup 1 subtable" uniFEE7 uniFEE8 uniFEE6
EndChar

StartChar: uniFEE6
Encoding: 65254 65254 157
Width: 525
VWidth: 750
GlyphClass: 2
Flags: HMW
HStem: 0 105<505.125 525 513 525>
VStem: 0.254997 55.245 413.16 48.84
AnchorPoint: "Anchor-1" 225 585.75 basechar 0
AnchorPoint: "Anchor-0" 307.5 -375 basechar 0
LayerCount: 2
Fore
SplineSet
172.5 270.75 m 1
 107.25 341.25 l 1
 172.5 411 l 1
 237 341.25 l 1
 172.5 270.75 l 1
189.75 -262.5 m 0
 11.25 -246 -9 -105 3 6 c 0
 11.25 81.75 21 117 45.75 154.5 c 1
 71.25 138 l 1
 63 119.25 55.5 83.25 55.5 33 c 0
 55.5 -84.75 93 -138 189 -153.75 c 0
 309.75 -173.25 435 -69.75 410.25 54.75 c 0
 399 111.75 344.25 210 333.75 227.25 c 1
 409.5 303 l 1
 433.5 255.75 466.5 105 513 105 c 2
 525 105 l 1
 525 0 l 1
 513 0 l 2
 497.25 0 489.75 0 462 34.5 c 1
 462 -204.75 309.75 -273.75 189.75 -262.5 c 0
EndSplineSet
EndChar

StartChar: uniFEE8
Encoding: 65256 65256 158
Width: 525
VWidth: 750
GlyphClass: 2
Flags: HMW
HStem: 0 105<0 172.5 172.5 179.25 0 172.5 483.75 525>
VStem: 303.75 89.25<151.125 205.5>
AnchorPoint: "Anchor-1" 225 675 basechar 0
AnchorPoint: "Anchor-0" 300 -82.5 basechar 0
LayerCount: 2
Fore
SplineSet
192.75 402 m 1
 127.5 472.5 l 1
 192.75 542.25 l 1
 257.25 472.5 l 1
 192.75 402 l 1
525 105 m 1
 525 0 l 1
 416.25 0 368.25 24.75 339 123 c 1
 310.5 35.25 273 0 179.25 0 c 2
 0 0 l 1
 0 105 l 1
 172.5 105 l 2
 258.75 105 303.75 108 303.75 194.25 c 0
 303.75 216.75 300.75 243.75 296.25 273.75 c 1
 393 336 l 1
 391.5 300 391.5 168 393 144.75 c 0
 396 106.5 442.5 105 525 105 c 1
EndSplineSet
EndChar

StartChar: uniFEE7
Encoding: 65255 65255 159
Width: 525
VWidth: 750
GlyphClass: 2
Flags: HMW
HStem: 0 105<0 364.5 0 342.75>
VStem: 418.5 87.75
AnchorPoint: "Anchor-1" 240 645 basechar 0
AnchorPoint: "Anchor-0" 337.5 -82.5 basechar 0
LayerCount: 2
Fore
SplineSet
237 402 m 1
 171.75 472.5 l 1
 237 542.25 l 1
 301.5 472.5 l 1
 237 402 l 1
0 0 m 1
 0 105 l 1
 364.5 105 l 2
 393 105 420 116.25 418.5 147 c 0
 417.75 172.5 393.75 270.75 379.5 306.75 c 1
 455.25 382.5 l 1
 469.5 345.75 506.25 222 506.25 166.5 c 0
 506.25 93 441.75 0 342.75 0 c 2
 0 0 l 1
EndSplineSet
EndChar

StartChar: uni06BA
Encoding: 1722 1722 160
Width: 525
VWidth: 750
GlyphClass: 2
Flags: HMW
HStem: -139.5 105<160.875 268.875 160.875 302.25>
VStem: 20.25 55.5 436.5 57.75<50.625 87>
AnchorPoint: "Anchor-1" 262.5 525 basechar 0
AnchorPoint: "Anchor-0" 307.5 -240 basechar 0
LayerCount: 2
Fore
SplineSet
219.75 -139.5 m 0
 89.25 -139.5 9.75 -51 20.25 81.75 c 0
 24.75 138.75 43.5 195.75 66.75 223.5 c 1
 89.25 207 l 1
 81 186.75 75.75 149.25 75.75 113.25 c 0
 75.75 24.75 124.5 -34.5 197.25 -34.5 c 0
 340.5 -34.5 436.5 14.25 436.5 87 c 1
 432.75 133.5 402 211.5 360.75 282 c 1
 430.5 360.75 l 1
 462.75 291 488.25 199.5 494.25 132 c 1
 494.25 -30.75 384.75 -139.5 219.75 -139.5 c 0
EndSplineSet
Substitution2: "'fina' Terminal Forms lookup 31 subtable" uniFB9F
Substitution2: "'aalt' Access All Alternates lookup 0 subtable" uniFB9F
EndChar

StartChar: uniFB9F
Encoding: 64415 64415 161
Width: 525
VWidth: 750
GlyphClass: 2
Flags: HMW
HStem: -262.5 106.523 0 105<505.125 525 513 525>
VStem: 0.254997 55.245 413.16 48.84
AnchorPoint: "Anchor-1" 262.5 450 basechar 0
AnchorPoint: "Anchor-0" 315 -375 basechar 0
LayerCount: 2
Fore
SplineSet
189.75 -262.5 m 0
 11.25 -246 -9 -105 3 6 c 0
 11.25 81.75 21 117 45.75 154.5 c 1
 71.25 138 l 1
 63 119.25 55.5 83.25 55.5 33 c 0
 55.5 -84.75 93 -138 189 -153.75 c 0
 309.75 -173.25 435 -69.75 410.25 54.75 c 0
 399 111.75 344.25 210 333.75 227.25 c 1
 409.5 303 l 1
 433.5 255.75 466.5 105 513 105 c 2
 525 105 l 1
 525 0 l 1
 513 0 l 2
 497.25 0 489.75 0 462 34.5 c 1
 462 -204.75 309.75 -273.75 189.75 -262.5 c 0
EndSplineSet
EndChar

StartChar: uni0647
Encoding: 1607 1607 162
Width: 525
VWidth: 750
GlyphClass: 2
Flags: HMW
HStem: -25.5 94.5<289.5 337.5 289.5 344.25>
VStem: 157.5 75<114.375 130.875> 420 59.25<114.75 145.5>
AnchorPoint: "Anchor-1" 280.5 510 basechar 0
AnchorPoint: "Anchor-0" 328.5 -90 basechar 0
LayerCount: 2
Fore
SplineSet
431.25 282.75 m 0
 473.25 240 479.25 200.25 479.25 170.25 c 0
 479.25 50.25 386.25 -25.5 302.25 -25.5 c 0
 214.5 -25.5 157.5 10.5 157.5 96.75 c 0
 157.5 165 202.5 229.5 272.25 270 c 1
 246 281.25 215.25 291.75 179.25 306.75 c 1
 252 379.5 l 1
 295.5 366 379.5 335.25 431.25 282.75 c 0
310.5 69 m 0
 364.5 69 420 99.75 420 129.75 c 0
 420 161.25 381.75 201.75 365.25 216.75 c 0
 346.5 234 325.5 246.75 300.75 258 c 1
 267 227.25 232.5 174.75 232.5 137.25 c 0
 232.5 91.5 268.5 69 310.5 69 c 0
EndSplineSet
Substitution2: "'fina' Terminal Forms lookup 31 subtable" uniFEEA
Substitution2: "'medi' Medial Forms lookup 30 subtable" uniFEEC
Substitution2: "'init' Initial Forms lookup 29 subtable" uniFEEB
AlternateSubs2: "'aalt' Access All Alternates lookup 1 subtable" uniFEEB uniFEEC uniFEEA
EndChar

StartChar: uniFEEA
Encoding: 65258 65258 163
Width: 525
VWidth: 750
GlyphClass: 2
Flags: HMW
HStem: 0 105<420 435.75 435.75 525> 72.675 105.075
VStem: 51.75 82.6425 278.25 51
AnchorPoint: "Anchor-1" 247.5 600 basechar 0
AnchorPoint: "Anchor-0" 300 -82.5 basechar 0
LayerCount: 2
Fore
SplineSet
420 105 m 2xb0
 525 105 l 1
 525 0 l 1
 435.75 0 l 2xb0
 350.25 0 308.25 60.75 294.75 132 c 1
 264 88.5 l 1
 222 60.75 129.75 73.5 84 94.5 c 0
 57.75 106.5 51.75 120 51.75 144 c 0x70
 51.75 168 57.75 216 125.25 288.75 c 0
 183.75 351.75 256.5 392.25 271.5 400.5 c 1
 256.5 457.5 l 1
 329.25 486 l 1
 336.75 288 336.75 278.25 345 207 c 0
 351 154.5 362.25 105 420 105 c 2xb0
187.5 177.75 m 0x70
 222 177.75 246 180.75 285 189.75 c 1
 287.25 234.75 285 262.5 278.25 326.25 c 1
 245.25 306 191.25 270.75 152.25 225.75 c 0
 117.75 186 135 177.75 187.5 177.75 c 0x70
EndSplineSet
Substitution2: "Single Substitution lookup 54 subtable" uniFEEA.LamHeh
Substitution2: "Single Substitution lookup 2 subtable" uniFEEA.Lellah
Substitution2: "'aalt' Access All Alternates lookup 0 subtable" uniFEEA.LamHeh
EndChar

StartChar: uniFEEA.LamHeh
Encoding: 1114232 -1 164
Width: 525
VWidth: 750
GlyphClass: 2
Flags: HMW
HStem: -49.575 105.075
VStem: 196.5 82.725 430.5 71.25
AnchorPoint: "Anchor-1" 300 495 basechar 0
AnchorPoint: "Anchor-0" 367.5 -199.5 basechar 0
LayerCount: 2
Fore
SplineSet
504.75 139.5 m 0
 507 38.25 509.25 -25.5 525 -53.25 c 1
 525 -162 l 1
 481.5 -128.25 453 -61.5 439.5 9.75 c 1
 408.75 -33.75 l 1
 366.75 -61.5 273.75 -48.75 228.75 -27.75 c 0
 202.5 -15.75 196.5 -2.25 196.5 21.75 c 0
 196.5 43.5 201.75 93.75 270 166.5 c 0
 327 227.25 390.75 264 416.25 278.25 c 1
 401.25 335.25 l 1
 501.75 369 l 1
 501.75 318.75 502.5 232.5 504.75 139.5 c 0
333.75 55.5 m 0
 366 55.5 398.25 58.5 437.25 67.5 c 1
 439.5 111.75 437.25 139.5 430.5 202.5 c 1
 397.5 185.25 336 149.25 297 103.5 c 0
 262.5 63.75 279.75 55.5 333.75 55.5 c 0
EndSplineSet
EndChar

StartChar: uniFEEA.Lellah
Encoding: 1114233 -1 165
Width: 525
VWidth: 750
GlyphClass: 2
Flags: HMW
HStem: 79.425 105.075
VStem: 264.75 82.725 491.25 33.75
AnchorPoint: "Anchor-1" 525 675 basechar 0
AnchorPoint: "Anchor-0" 515.25 -54 basechar 0
LayerCount: 2
Fore
SplineSet
484.5 464.25 m 1
 525 493.5 l 1
 525 99.75 l 1
 518.25 112.5 513 126 507.75 138.75 c 1
 477 95.25 l 1
 435 67.5 342.75 80.25 297 101.25 c 0
 270.75 113.25 264.75 126.75 264.75 150.75 c 0
 264.75 172.5 270 222.75 338.25 295.5 c 0
 396.75 357.75 462.75 395.25 484.5 407.25 c 1
 484.5 464.25 l 1
402 184.5 m 0
 435.75 184.5 462 187.5 498 198 c 1
 500.25 240.75 498 269.25 491.25 330 c 1
 465.75 319.5 410.25 285.75 365.25 232.5 c 0
 330.75 192.75 348 184.5 402 184.5 c 0
EndSplineSet
EndChar

StartChar: uniFEEC
Encoding: 65260 65260 166
Width: 525
VWidth: 750
GlyphClass: 2
Flags: HMW
HStem: -290.25 96.75<285.75 303.75> 0 104.25 269.25 93<331.875 332.625>
VStem: 116.25 44.25<-91.875 0> 341.25 47.25<-169.875 -140.25> 356.25 46.5<235.125 240>
AnchorPoint: "Anchor-1" 277.5 525 basechar 0
AnchorPoint: "Anchor-0" 292.5 -375 basechar 0
LayerCount: 2
Fore
SplineSet
525 105 m 1x58
 525 0 l 1
 330.75 0 l 1
 366 -42 388.5 -89.25 388.5 -137.25 c 0xd8
 388.5 -217.5 325.5 -290.25 282 -290.25 c 0
 255.75 -290.25 204 -264.75 171 -221.25 c 0
 161.25 -208.5 129 -162.75 120 -75.75 c 0
 117.75 -53.25 116.25 -28.5 116.25 0 c 1
 0 0 l 1
 0 105 l 1
 140.25 105 l 1
 183 204 189.75 234.75 234 286.5 c 0
 273.75 333 313.5 362.25 350.25 362.25 c 0
 388.5 362.25 402.75 331.5 402.75 274.5 c 0xf4
 402.75 195.75 375.75 147 309.75 103.5 c 1
 525 105 l 1x58
261.75 243 m 0x74
 245.25 225.75 218.25 182.25 189.75 105 c 1
 219.75 105 240 105.75 255 108.75 c 0
 306 119.25 356.25 185.25 356.25 229.5 c 0
 356.25 250.5 345 269.25 320.25 269.25 c 0
 306.75 269.25 282 264 261.75 243 c 0x74
341.25 -158.25 m 0xd8
 341.25 -122.25 293.25 -66.75 279 -51 c 0
 239.25 -6.75 217.5 0 201.75 0 c 0
 185.25 0 160.5 -7.5 160.5 -60 c 0
 160.5 -123.75 262.5 -193.5 309 -193.5 c 0
 322.5 -193.5 341.25 -181.5 341.25 -158.25 c 0xd8
EndSplineSet
EndChar

StartChar: uniFEEB
Encoding: 65259 65259 167
Width: 525
VWidth: 750
GlyphClass: 2
Flags: HMW
HStem: 0 99<0 368.625> 0 105<0 72.75 0 316.5 0 72.75> 407.25 101.25<331.875 362.625>
VStem: 72.75 63<140.625 171> 268.5 57<162 162.375> 430.5 79.5<151.125 189.375>
AnchorPoint: "Anchor-1" 285 645 basechar 0
AnchorPoint: "Anchor-0" 307.5 -82.5 basechar 0
LayerCount: 2
Fore
SplineSet
363.75 508.5 m 0x7c
 450 508.5 510 270 510 198.75 c 0
 510 103.5 404.25 0 316.5 0 c 2
 0 0 l 1
 0 105 l 1
 72.75 105 l 1
 72.75 237 177 279.75 229.5 282 c 1
 255.75 377.25 300 508.5 363.75 508.5 c 0x7c
344.25 99 m 0xbc
 393 99 430.5 114 430.5 163.5 c 0
 430.5 215.25 388.5 407.25 336.75 407.25 c 0
 306 407.25 283.5 339 251.25 280.5 c 1
 295.5 271.5 325.5 230.25 325.5 177 c 0
 325.5 147 315.75 129 288 104.25 c 1
 300 100.5 328.5 99 344.25 99 c 0xbc
202.5 105.75 m 0x7c
 240.75 105.75 268.5 120.75 268.5 147 c 0
 268.5 177.75 229.5 239.25 195.75 239.25 c 0
 168.75 239.25 135.75 198 135.75 158.25 c 0
 135.75 123 162 105.75 202.5 105.75 c 0x7c
EndSplineSet
EndChar

StartChar: uni06C1
Encoding: 1729 1729 168
Width: 525
VWidth: 750
GlyphClass: 2
Flags: HMW
HStem: -25.5 94.5<289.5 337.5 289.5 344.25>
VStem: 157.5 75<114.375 130.875> 420 59.25<114.75 145.5>
AnchorPoint: "Anchor-1" 280.5 510 basechar 0
AnchorPoint: "Anchor-0" 328.5 -90 basechar 0
LayerCount: 2
Fore
SplineSet
431.25 282.75 m 0
 473.25 240 479.25 200.25 479.25 170.25 c 0
 479.25 50.25 386.25 -25.5 302.25 -25.5 c 0
 214.5 -25.5 157.5 10.5 157.5 96.75 c 0
 157.5 165 202.5 229.5 272.25 270 c 1
 246 281.25 215.25 291.75 179.25 306.75 c 1
 252 379.5 l 1
 295.5 366 379.5 335.25 431.25 282.75 c 0
310.5 69 m 0
 364.5 69 420 99.75 420 129.75 c 0
 420 161.25 381.75 201.75 365.25 216.75 c 0
 346.5 234 325.5 246.75 300.75 258 c 1
 267 227.25 232.5 174.75 232.5 137.25 c 0
 232.5 91.5 268.5 69 310.5 69 c 0
EndSplineSet
Substitution2: "'fina' Terminal Forms lookup 31 subtable" uniFBA7
Substitution2: "'medi' Medial Forms lookup 30 subtable" uniFBA9
Substitution2: "'init' Initial Forms lookup 29 subtable" uniFBA8
AlternateSubs2: "'aalt' Access All Alternates lookup 1 subtable" uniFBA8 uniFBA9 uniFBA7
EndChar

StartChar: uniFBA7
Encoding: 64423 64423 169
Width: 525
VWidth: 750
GlyphClass: 2
Flags: HMW
HStem: 0 105<376.5 525 486 525 486 525>
VStem: 90.21 434.79
AnchorPoint: "Anchor-1" 262.5 525 basechar 0
AnchorPoint: "Anchor-0" 330 -82.5 basechar 0
LayerCount: 2
Fore
SplineSet
108 -30.75 m 0
 97.5 -31.5 92.25 -19.5 90.75 -0.75 c 0
 83.25 80.25 151.5 295.5 223.5 302.25 c 0
 252 304.5 283.5 275.25 297 252.75 c 0
 307.5 235.5 329.25 186 350.25 153 c 0
 379.5 107.25 414.75 105 486 105 c 2
 525 105 l 1
 525 0 l 1
 437.25 0 l 2
 315.75 0 270.75 88.5 243.75 138.75 c 0
 237.75 150 231.75 162.75 213.75 161.25 c 0
 199.5 159.75 194.25 150.75 189.75 141.75 c 0
 174 108 143.25 -27 108 -30.75 c 0
EndSplineSet
Substitution2: "Single Substitution lookup 2 subtable" uniFEEA.Lellah
EndChar

StartChar: uniFBA9
Encoding: 64425 64425 170
Width: 525
VWidth: 750
GlyphClass: 2
Flags: HMW
HStem: 0 105<0 28.5 28.5 39 0 28.5 420 480.75 480.75 525>
VStem: 0 525<0 105 0 105>
AnchorPoint: "Anchor-1" 262.5 450 basechar 0
AnchorPoint: "Anchor-0" 375 -285 basechar 0
LayerCount: 2
Fore
SplineSet
166.5 -290.25 m 0
 153 -290.25 142.5 -284.25 133.5 -234.75 c 0
 125.25 -189.75 120.75 -129.75 120.75 -84.75 c 0
 120.75 -9 138 38.25 138 53.25 c 0
 138 57 136.5 59.25 134.25 59.25 c 0
 129 59.25 84 0 39 0 c 2
 0 0 l 1
 0 105 l 1
 28.5 105 l 2
 120 105 143.25 207 204 207 c 0
 219.75 207 229.5 200.25 229.5 174 c 0
 229.5 138.75 212.25 51.75 186 -121.5 c 1
 272.25 59.25 369 105 412.5 105 c 2
 525 105 l 1
 525 0 l 1
 480.75 0 l 2
 359.25 0 265.5 -72 233.25 -178.5 c 0
 219.75 -224.25 211.5 -290.25 166.5 -290.25 c 0
EndSplineSet
EndChar

StartChar: uniFBA8
Encoding: 64424 64424 171
Width: 525
VWidth: 750
GlyphClass: 2
Flags: HMW
HStem: 0 105<0 342.75 0 364.5>
VStem: 287.978 54.0225 418.5 87.75
AnchorPoint: "Anchor-1" 262.5 487.5 basechar 0
AnchorPoint: "Anchor-0" 375 -330 basechar 0
LayerCount: 2
Fore
SplineSet
506.25 166.5 m 0
 506.25 112.5 471 47.25 412.5 17.25 c 1
 375 -24 342 -66 342 -95.25 c 0
 342 -114.75 356.25 -123 366.75 -126.75 c 0
 401.25 -138.75 441 -153 436.5 -204 c 0
 432.75 -248.25 399 -270.75 361.5 -267 c 0
 291 -260.25 283.5 -171 289.5 -131.25 c 0
 295.5 -88.5 326.25 -40.5 363 1.5 c 1
 356.25 0.75 349.5 0 342.75 0 c 2
 0 0 l 1
 0 105 l 1
 364.5 105 l 2
 393 105 420 116.25 418.5 147 c 0
 417.75 172.5 393.75 270.75 379.5 306.75 c 1
 455.25 382.5 l 1
 469.5 345.75 506.25 222 506.25 166.5 c 0
EndSplineSet
EndChar

StartChar: uni06C2
Encoding: 1730 1730 172
Width: 525
VWidth: 750
GlyphClass: 2
Flags: HMW
HStem: -25.5 94.5<289.5 337.5 289.5 344.25> 658.5 52.5<246 258>
VStem: 157.5 75<114.375 130.875> 184.5 35.25<626.25 629.25> 420 59.25<114.75 145.5>
AnchorPoint: "Anchor-1" 276.75 795 basechar 0
AnchorPoint: "Anchor-0" 330 -90 basechar 0
LayerCount: 2
Fore
SplineSet
188.25 481.5 m 0xe8
 182.25 478.5 180.75 487.5 180 491.25 c 0
 175.5 504.75 174.75 507.75 174.75 511.5 c 0
 174.75 517.5 179.25 522 186.75 526.5 c 2
 228 550.5 l 1
 195.75 561.75 184.5 582.75 184.5 606.75 c 0
 184.5 651.75 222 711 270 711 c 0
 297.75 711 309 690.75 310.5 655.5 c 0
 311.25 645.75 306.75 640.5 301.5 640.5 c 0
 297.75 640.5 268.5 658.5 247.5 658.5 c 0
 226.5 658.5 219.75 649.5 219.75 636.75 c 0
 219.75 615.75 231.75 571.5 277.5 571.5 c 0xd8
 286.5 571.5 306 572.25 319.5 572.25 c 0
 336.75 572.25 341.25 570.75 347.25 561 c 2
 354.75 548.25 l 2
 359.25 539.25 348.75 533.25 341.25 531.75 c 0
 240 508.5 234 507 188.25 481.5 c 0xe8
431.25 282.75 m 0
 473.25 240 479.25 200.25 479.25 170.25 c 0
 479.25 50.25 386.25 -25.5 302.25 -25.5 c 0
 214.5 -25.5 157.5 10.5 157.5 96.75 c 0
 157.5 165 202.5 229.5 272.25 270 c 1
 246 281.25 215.25 291.75 179.25 306.75 c 1
 252 379.5 l 1
 295.5 366 379.5 335.25 431.25 282.75 c 0
310.5 69 m 0
 364.5 69 420 99.75 420 129.75 c 0
 420 161.25 381.75 201.75 365.25 216.75 c 0
 346.5 234 325.5 246.75 300.75 258 c 1
 267 227.25 232.5 174.75 232.5 137.25 c 0
 232.5 91.5 268.5 69 310.5 69 c 0
EndSplineSet
Substitution2: "'fina' Terminal Forms lookup 31 subtable" uni06C2.fina
Substitution2: "'aalt' Access All Alternates lookup 0 subtable" uni06C2.fina
EndChar

StartChar: uni06C2.fina
Encoding: 1114234 -1 173
Width: 525
VWidth: 750
GlyphClass: 2
Flags: HMW
HStem: 0 105<376.5 525 486 525 486 525> 584.25 52.5<204.75 216.75>
VStem: 143.25 35.25<552 555>
AnchorPoint: "Anchor-1" 276.75 780 basechar 0
AnchorPoint: "Anchor-0" 330 -82.5 basechar 0
LayerCount: 2
Fore
SplineSet
147 407.25 m 0
 141 404.25 139.5 413.25 138.75 417 c 0
 134.25 430.5 133.5 433.5 133.5 437.25 c 0
 133.5 443.25 138 447.75 145.5 452.25 c 2
 186.75 476.25 l 1
 154.5 487.5 143.25 508.5 143.25 532.5 c 0
 143.25 577.5 180.75 636.75 228.75 636.75 c 0
 256.5 636.75 267.75 616.5 269.25 581.25 c 0
 270 571.5 265.5 566.25 260.25 566.25 c 0
 256.5 566.25 227.25 584.25 206.25 584.25 c 0
 185.25 584.25 178.5 575.25 178.5 562.5 c 0
 178.5 541.5 190.5 497.25 236.25 497.25 c 0
 245.25 497.25 264.75 498 278.25 498 c 0
 295.5 498 300 496.5 306 486.75 c 2
 313.5 474 l 2
 318 465 307.5 459 300 457.5 c 0
 198.75 434.25 192.75 432.75 147 407.25 c 0
108 -30.75 m 0
 97.5 -31.5 92.25 -19.5 90.75 -0.75 c 0
 83.25 80.25 151.5 295.5 223.5 302.25 c 0
 252 304.5 283.5 275.25 297 252.75 c 0
 307.5 235.5 329.25 186 350.25 153 c 0
 379.5 107.25 414.75 105 486 105 c 2
 525 105 l 1
 525 0 l 1
 437.25 0 l 2
 315.75 0 270.75 88.5 243.75 138.75 c 0
 237.75 150 231.75 162.75 213.75 161.25 c 0
 199.5 159.75 194.25 150.75 189.75 141.75 c 0
 174 108 143.25 -27 108 -30.75 c 0
EndSplineSet
EndChar

StartChar: uni06BE
Encoding: 1726 1726 174
Width: 525
VWidth: 750
GlyphClass: 2
Flags: HMW
HStem: -2.25 101.25<336.375 368.625 336.375 376.125> 407.25 101.25<331.875 362.625>
VStem: 72.75 63<140.625 169.875> 268.5 57<162 162.375> 430.5 79.5<154.5 189.375>
AnchorPoint: "Anchor-1" 285 645 basechar 0
AnchorPoint: "Anchor-0" 307.5 -82.5 basechar 0
LayerCount: 2
Fore
SplineSet
363.75 508.5 m 0
 450 508.5 510 270 510 198.75 c 0
 510 110.25 417 -2.25 335.25 -2.25 c 0
 315 -2.25 246 0 216 29.25 c 1
 42 -80.25 l 2
 33.75 -85.5 25.5 -87 21.75 -87 c 0
 7.5 -87 0 -62.25 0 -48.75 c 0
 0 -28.5 15.75 -11.25 87.75 31.5 c 2
 115.5 48 l 1
 81 58.5 72.75 82.5 72.75 114.75 c 0
 72.75 225 169.5 279.75 229.5 282 c 1
 255.75 377.25 300 508.5 363.75 508.5 c 0
344.25 99 m 0
 393 99 430.5 114 430.5 163.5 c 0
 430.5 215.25 388.5 407.25 336.75 407.25 c 0
 306 407.25 283.5 339 251.25 279.75 c 1
 295.5 270.75 325.5 229.5 325.5 177 c 0
 325.5 147 315.75 129 288 104.25 c 1
 300 100.5 328.5 99 344.25 99 c 0
202.5 105.75 m 0
 240.75 105.75 268.5 120.75 268.5 147 c 0
 268.5 177.75 229.5 239.25 195.75 239.25 c 0
 168.75 239.25 135.75 198 135.75 158.25 c 0
 135.75 123 162 105.75 202.5 105.75 c 0
EndSplineSet
Substitution2: "'fina' Terminal Forms lookup 31 subtable" uniFBAB
Substitution2: "'medi' Medial Forms lookup 30 subtable" uniFBAD
Substitution2: "'init' Initial Forms lookup 29 subtable" uniFBAC
AlternateSubs2: "'aalt' Access All Alternates lookup 1 subtable" uniFBAC uniFBAD uniFBAB
EndChar

StartChar: uniFBAB
Encoding: 64427 64427 175
Width: 525
VWidth: 750
GlyphClass: 2
Flags: HMW
HStem: -2.25 101.25<336.375 338.625> 0 99<355.5 368.625 336.375 525 355.5 355.5> 0 105<481.5 525 481.5 525> 407.25 101.25<331.875 362.625>
VStem: 72.75 63<140.625 169.875> 268.5 57<162 162.375> 430.5 94.5<0 189.375>
AnchorPoint: "Anchor-1" 285 645 basechar 0
AnchorPoint: "Anchor-0" 307.5 -82.5 basechar 0
LayerCount: 2
Fore
SplineSet
525 105 m 1x3e
 525 0 l 1
 355.5 0 l 2x3e
 348.75 -1.5 342 -2.25 335.25 -2.25 c 0
 315 -2.25 246 0 216 29.25 c 1x9e
 42 -80.25 l 2
 33.75 -85.5 25.5 -87 21.75 -87 c 0
 7.5 -87 0 -62.25 0 -48.75 c 0
 0 -28.5 15.75 -11.25 87.75 31.5 c 2
 115.5 48 l 1
 81 58.5 72.75 82.5 72.75 114.75 c 0
 72.75 225 169.5 279.75 229.5 282 c 1
 255.75 377.25 300 508.5 363.75 508.5 c 0
 450 508.5 510 270 510 198.75 c 0
 510 168.75 499.5 135.75 481.5 105 c 1
 525 105 l 1x3e
288 104.25 m 1x5e
 300 100.5 328.5 99 344.25 99 c 0
 393 99 430.5 114 430.5 163.5 c 0
 430.5 215.25 388.5 407.25 336.75 407.25 c 0
 306 407.25 283.5 339 251.25 279.75 c 1
 295.5 270.75 325.5 229.5 325.5 177 c 0
 325.5 147 315.75 129 288 104.25 c 1x5e
202.5 105.75 m 0
 240.75 105.75 268.5 120.75 268.5 147 c 0
 268.5 177.75 229.5 239.25 195.75 239.25 c 0
 168.75 239.25 135.75 198 135.75 158.25 c 0
 135.75 123 162 105.75 202.5 105.75 c 0
EndSplineSet
EndChar

StartChar: uniFBAD
Encoding: 64429 64429 176
Width: 525
VWidth: 750
GlyphClass: 2
Flags: HMW
HStem: 0 99<0 368.625 316.5 368.625 336.375 368.625 336.375 525> 0 105<0 72.75 0 316.5 0 72.75 479.25 525> 407.25 101.25<331.875 362.625>
VStem: 72.75 63<140.625 171> 268.5 57<162 162.375> 430.5 79.5<183 189.375>
AnchorPoint: "Anchor-1" 285 645 basechar 0
AnchorPoint: "Anchor-0" 307.5 -82.5 basechar 0
LayerCount: 2
Fore
SplineSet
479.25 105 m 1x7c
 525 105 l 1
 525 0 l 1
 318 0 l 1
 316.5 0 l 1
 0 0 l 1
 0 105 l 1
 72.75 105 l 1
 72.75 237 177 279.75 229.5 282 c 1
 255.75 377.25 300 508.5 363.75 508.5 c 0
 450 508.5 510 270 510 198.75 c 0
 510 167.25 498 134.25 479.25 105 c 1x7c
288 104.25 m 1xbc
 300 100.5 328.5 99 344.25 99 c 0
 393 99 430.5 114 430.5 163.5 c 0
 430.5 215.25 388.5 407.25 336.75 407.25 c 0
 306 407.25 283.5 339 251.25 280.5 c 1
 295.5 271.5 325.5 230.25 325.5 177 c 0
 325.5 147 315.75 129 288 104.25 c 1xbc
202.5 105.75 m 0x7c
 240.75 105.75 268.5 120.75 268.5 147 c 0
 268.5 177.75 229.5 239.25 195.75 239.25 c 0
 168.75 239.25 135.75 198 135.75 158.25 c 0
 135.75 123 162 105.75 202.5 105.75 c 0x7c
EndSplineSet
EndChar

StartChar: uniFBAC
Encoding: 64428 64428 177
Width: 525
VWidth: 750
GlyphClass: 2
Flags: HMW
HStem: 0 99<0 368.625> 0 105<0 72.75 0 316.5 0 72.75> 407.25 101.25<331.875 362.625>
VStem: 72.75 63<140.625 171> 268.5 57<162 162.375> 430.5 79.5<151.125 189.375>
AnchorPoint: "Anchor-1" 285 645 basechar 0
AnchorPoint: "Anchor-0" 307.5 -82.5 basechar 0
LayerCount: 2
Fore
SplineSet
363.75 508.5 m 0x7c
 450 508.5 510 270 510 198.75 c 0
 510 103.5 404.25 0 316.5 0 c 2
 0 0 l 1
 0 105 l 1
 72.75 105 l 1
 72.75 237 177 279.75 229.5 282 c 1
 255.75 377.25 300 508.5 363.75 508.5 c 0x7c
344.25 99 m 0xbc
 393 99 430.5 114 430.5 163.5 c 0
 430.5 215.25 388.5 407.25 336.75 407.25 c 0
 306 407.25 283.5 339 251.25 280.5 c 1
 295.5 271.5 325.5 230.25 325.5 177 c 0
 325.5 147 315.75 129 288 104.25 c 1
 300 100.5 328.5 99 344.25 99 c 0xbc
202.5 105.75 m 0x7c
 240.75 105.75 268.5 120.75 268.5 147 c 0
 268.5 177.75 229.5 239.25 195.75 239.25 c 0
 168.75 239.25 135.75 198 135.75 158.25 c 0
 135.75 123 162 105.75 202.5 105.75 c 0x7c
EndSplineSet
EndChar

StartChar: uni0629
Encoding: 1577 1577 178
Width: 525
VWidth: 750
GlyphClass: 2
Flags: HMW
HStem: -25.5 94.5<289.5 337.5 289.5 344.25>
VStem: 157.5 75<114.375 130.875> 420 59.25<114.75 145.5>
AnchorPoint: "Anchor-1" 276.75 675 basechar 0
AnchorPoint: "Anchor-0" 330 -90 basechar 0
LayerCount: 2
Fore
SplineSet
435.75 512.25 m 1
 372.75 441.75 l 1
 306.75 510.75 l 1
 370.5 580.5 l 1
 435.75 512.25 l 1
267 510.75 m 1
 204.75 439.5 l 1
 138.75 508.5 l 1
 201.75 578.25 l 1
 267 510.75 l 1
431.25 282.75 m 0
 473.25 240 479.25 200.25 479.25 170.25 c 0
 479.25 50.25 386.25 -25.5 302.25 -25.5 c 0
 214.5 -25.5 157.5 10.5 157.5 96.75 c 0
 157.5 165 202.5 229.5 272.25 270 c 1
 246 281.25 215.25 291.75 179.25 306.75 c 1
 252 379.5 l 1
 295.5 366 379.5 335.25 431.25 282.75 c 0
310.5 69 m 0
 364.5 69 420 99.75 420 129.75 c 0
 420 161.25 381.75 201.75 365.25 216.75 c 0
 346.5 234 325.5 246.75 300.75 258 c 1
 267 227.25 232.5 174.75 232.5 137.25 c 0
 232.5 91.5 268.5 69 310.5 69 c 0
EndSplineSet
Substitution2: "'fina' Terminal Forms lookup 31 subtable" uniFE94
Substitution2: "'aalt' Access All Alternates lookup 0 subtable" uniFE94
EndChar

StartChar: uniFE94
Encoding: 65172 65172 179
Width: 525
VWidth: 750
GlyphClass: 2
Flags: HMW
HStem: 0 105<420 435.75 435.75 525> 72.675 105.075 663 15G<167.25 167.25>
VStem: 51.75 82.6425 278.25 51
AnchorPoint: "Anchor-1" 240 822 basechar 0
AnchorPoint: "Anchor-0" 300 -82.5 basechar 0
LayerCount: 2
Fore
SplineSet
401.25 612 m 1xb8
 338.25 541.5 l 1
 272.25 610.5 l 1
 336 680.25 l 1
 401.25 612 l 1xb8
232.5 610.5 m 1
 170.25 539.25 l 1
 104.25 608.25 l 1
 167.25 678 l 1
 232.5 610.5 l 1
420 105 m 2
 525 105 l 1
 525 0 l 1
 435.75 0 l 2xb8
 350.25 0 308.25 60.75 294.75 132 c 1
 264 88.5 l 1
 222 60.75 129.75 73.5 84 94.5 c 0
 57.75 106.5 51.75 120 51.75 144 c 0x78
 51.75 168 57.75 216 125.25 288.75 c 0
 183.75 351.75 256.5 392.25 271.5 400.5 c 1
 256.5 457.5 l 1
 329.25 486 l 1
 336.75 288 336.75 278.25 345 207 c 0
 351 154.5 362.25 105 420 105 c 2
187.5 177.75 m 0x78
 222 177.75 246 180.75 285 189.75 c 1
 287.25 234.75 285 262.5 278.25 326.25 c 1
 245.25 306 191.25 270.75 152.25 225.75 c 0
 117.75 186 135 177.75 187.5 177.75 c 0x78
EndSplineSet
Substitution2: "Single Substitution lookup 54 subtable" uniFE94.LamHeh
Substitution2: "'aalt' Access All Alternates lookup 0 subtable" uniFE94.LamHeh
EndChar

StartChar: uniFE94.LamHeh
Encoding: 1114235 -1 180
Width: 525
VWidth: 750
GlyphClass: 2
Flags: HMW
HStem: -49.575 105.075
VStem: 196.5 82.725 430.5 71.25
AnchorPoint: "Anchor-1" 339 717 basechar 0
AnchorPoint: "Anchor-0" 367.5 -202.5 basechar 0
LayerCount: 2
Fore
SplineSet
537.75 519.75 m 1
 474.75 449.25 l 1
 408.75 518.25 l 1
 472.5 588 l 1
 537.75 519.75 l 1
369 518.25 m 1
 306.75 447 l 1
 240.75 516 l 1
 303.75 585.75 l 1
 369 518.25 l 1
501.75 369 m 1
 501.75 318.75 502.5 232.5 504.75 139.5 c 0
 507 38.25 509.25 -25.5 525 -53.25 c 1
 525 -162 l 1
 481.5 -128.25 453 -61.5 439.5 9.75 c 1
 408.75 -33.75 l 1
 366.75 -61.5 273.75 -48.75 228.75 -27.75 c 0
 202.5 -15.75 196.5 -2.25 196.5 21.75 c 0
 196.5 43.5 201.75 93.75 270 166.5 c 0
 327 227.25 390.75 264 416.25 278.25 c 1
 401.25 335.25 l 1
 501.75 369 l 1
333.75 55.5 m 0
 366 55.5 398.25 58.5 437.25 67.5 c 1
 439.5 111.75 437.25 139.5 430.5 202.5 c 1
 397.5 185.25 336 149.25 297 103.5 c 0
 262.5 63.75 279.75 55.5 333.75 55.5 c 0
EndSplineSet
EndChar

StartChar: uni06C3
Encoding: 1731 1731 181
Width: 525
VWidth: 750
GlyphClass: 2
Flags: HMW
HStem: -25.5 94.5<289.5 337.5 289.5 344.25>
VStem: 157.5 75<114.375 130.875> 420 59.25<114.75 145.5>
AnchorPoint: "Anchor-1" 276.75 720 basechar 0
AnchorPoint: "Anchor-0" 328.5 -90 basechar 0
LayerCount: 2
Fore
SplineSet
429 518.25 m 1
 366 447.75 l 1
 300 516.75 l 1
 363.75 586.5 l 1
 429 518.25 l 1
260.25 516.75 m 1
 198 445.5 l 1
 132 514.5 l 1
 195 584.25 l 1
 260.25 516.75 l 1
431.25 282.75 m 0
 473.25 240 479.25 200.25 479.25 170.25 c 0
 479.25 50.25 386.25 -25.5 302.25 -25.5 c 0
 214.5 -25.5 157.5 10.5 157.5 96.75 c 0
 157.5 165 202.5 229.5 272.25 270 c 1
 246 281.25 215.25 291.75 179.25 306.75 c 1
 252 379.5 l 1
 295.5 366 379.5 335.25 431.25 282.75 c 0
310.5 69 m 0
 364.5 69 420 99.75 420 129.75 c 0
 420 161.25 381.75 201.75 365.25 216.75 c 0
 346.5 234 325.5 246.75 300.75 258 c 1
 267 227.25 232.5 174.75 232.5 137.25 c 0
 232.5 91.5 268.5 69 310.5 69 c 0
EndSplineSet
Substitution2: "'fina' Terminal Forms lookup 31 subtable" uni06C3.fina
Substitution2: "'aalt' Access All Alternates lookup 0 subtable" uni06C3.fina
EndChar

StartChar: uni06C3.fina
Encoding: 1114236 -1 182
Width: 525
VWidth: 750
GlyphClass: 2
Flags: HMW
HStem: 0 105<376.5 525 486 525 486 525>
VStem: 85.5 439.5<0 492>
AnchorPoint: "Anchor-1" 276 690 basechar 0
AnchorPoint: "Anchor-0" 330 -82.5 basechar 0
LayerCount: 2
Fore
SplineSet
319.5 425.25 m 1
 253.5 494.25 l 1
 317.25 564 l 1
 382.5 495.75 l 1
 319.5 425.25 l 1
151.5 423 m 1
 85.5 492 l 1
 148.5 561.75 l 1
 213.75 494.25 l 1
 151.5 423 l 1
108 -30.75 m 0
 97.5 -31.5 92.25 -19.5 90.75 -0.75 c 0
 83.25 80.25 151.5 295.5 223.5 302.25 c 0
 252 304.5 283.5 275.25 297 252.75 c 0
 307.5 235.5 329.25 186 350.25 153 c 0
 379.5 107.25 414.75 105 486 105 c 2
 525 105 l 1
 525 0 l 1
 437.25 0 l 2
 315.75 0 270.75 88.5 243.75 138.75 c 0
 237.75 150 231.75 162.75 213.75 161.25 c 0
 199.5 159.75 194.25 150.75 189.75 141.75 c 0
 174 108 143.25 -27 108 -30.75 c 0
EndSplineSet
EndChar

StartChar: uni0648
Encoding: 1608 1608 183
Width: 525
VWidth: 750
GlyphClass: 2
Flags: HMW
HStem: -267 67.5<79.5 270.75> 32.25 98.25<268.5 315 268.5 319.125> 289.5 90
VStem: 160.5 66.75<174.375 197.25> 377.25 68.25
AnchorPoint: "Anchor-1" 262.5 532.5 basechar 0
AnchorPoint: "Anchor-0" 367.5 -277.5 basechar 0
LayerCount: 2
Fore
SplineSet
298.5 379.5 m 0
 378.75 379.5 445.5 204 445.5 63.75 c 0
 445.5 -95.25 360.75 -267 180.75 -267 c 0
 159.75 -267 138.75 -264.75 79.5 -237.75 c 1
 79.5 -199.5 l 1
 125.25 -199.5 l 2
 151.5 -199.5 203.25 -192 262.5 -149.25 c 0
 348 -87.75 371.25 -9.75 377.25 37.5 c 1
 342.75 33.75 330 32.25 308.25 32.25 c 0
 198.75 32.25 160.5 76.5 160.5 149.25 c 0
 160.5 245.25 228 379.5 298.5 379.5 c 0
305.25 130.5 m 0
 324.75 130.5 344.25 132 369 134.25 c 1
 353.25 204 318 282.75 273.75 289.5 c 0
 235.5 294.75 227.25 240 227.25 192 c 0
 227.25 156.75 231.75 130.5 305.25 130.5 c 0
EndSplineSet
Substitution2: "'fina' Terminal Forms lookup 31 subtable" uniFEEE
Substitution2: "'aalt' Access All Alternates lookup 0 subtable" uniFEEE
EndChar

StartChar: uniFEEE
Encoding: 65262 65262 184
Width: 525
VWidth: 750
GlyphClass: 2
Flags: HMW
HStem: -267 67.5<62.25 244.125> -1.5 106.5<241.5 348 333.75 348 333.75 349.5> 0 105<515.25 525>
VStem: 143.25 61.5<137.25 171.75>
AnchorPoint: "Anchor-1" 277.5 510 basechar 0
AnchorPoint: "Anchor-0" 352.5 -322.5 basechar 0
LayerCount: 2
Fore
SplineSet
525 105 m 1xd0
 525 0 l 1xb0
 505.5 0 466.5 0 427.5 -0.75 c 1
 410.25 -153.75 323.25 -267 165 -267 c 0
 142.5 -267 121.5 -264.75 62.25 -237.75 c 1
 62.25 -199.5 l 1
 108 -199.5 l 2
 126 -199.5 189.75 -188.25 246.75 -152.25 c 0
 311.25 -111.75 339.75 -57.75 349.5 -1.5 c 1
 310.5 -1.5 l 2
 172.5 -1.5 143.25 48 143.25 117.75 c 0
 143.25 225.75 212.25 357 271.5 357 c 0
 307.5 357 354.75 309 388.5 240 c 0
 412.5 191.25 423 144 427.5 105 c 1
 525 105 l 1xd0
204.75 169.5 m 0
 204.75 105 231.75 105 333.75 105 c 2
 348 105 l 1
 331.5 198 276.75 252.75 251.25 259.5 c 0
 220.5 268.5 204.75 218.25 204.75 169.5 c 0
EndSplineSet
Substitution2: "Single Substitution lookup 54 subtable" uniFEEE.wawAlef
Substitution2: "'aalt' Access All Alternates lookup 0 subtable" uniFEEE.wawAlef
EndChar

StartChar: uniFEEE.wawAlef
Encoding: 1114237 -1 185
Width: 525
VWidth: 750
GlyphClass: 2
Flags: HMW
HStem: -267 67.5<-54.75 127.125> -1.5 106.5<124.5 231 216.75 231 216.75 232.5> 0 105<398.25 408 408 525>
VStem: 26.25 61.5<137.25 171.75>
AnchorPoint: "Anchor-1" 180 510 basechar 0
AnchorPoint: "Anchor-0" 232.5 -322.5 basechar 0
LayerCount: 2
Fore
SplineSet
408 105 m 1xb0
 525 105 l 1
 525 0 l 1
 408 0 l 2xb0
 388.5 0 349.5 0 310.5 -0.75 c 1
 293.25 -153.75 206.25 -267 48 -267 c 0
 25.5 -267 4.5 -264.75 -54.75 -237.75 c 1
 -54.75 -199.5 l 1
 -9 -199.5 l 2
 9 -199.5 72.75 -188.25 129.75 -152.25 c 0
 194.25 -111.75 222.75 -57.75 232.5 -1.5 c 1
 193.5 -1.5 l 2xd0
 55.5 -1.5 26.25 48 26.25 117.75 c 0
 26.25 225.75 95.25 357 154.5 357 c 0
 190.5 357 237.75 309 271.5 240 c 0
 295.5 191.25 306 144 310.5 105 c 1
 408 105 l 1xb0
87.75 169.5 m 0
 87.75 105 114.75 105 216.75 105 c 2
 231 105 l 1
 214.5 198 159.75 252.75 134.25 259.5 c 0
 103.5 268.5 87.75 218.25 87.75 169.5 c 0
EndSplineSet
EndChar

StartChar: uni0624
Encoding: 1572 1572 186
Width: 525
VWidth: 750
GlyphClass: 2
Flags: HMW
HStem: -267 67.5<79.5 270.75> 32.25 98.25<268.5 315 268.5 319.125> 289.5 90 642 54<234.75 247.125>
VStem: 160.5 66.75<174.375 197.25> 171.75 36<608.625 611.25> 377.25 68.25
AnchorPoint: "Anchor-1" 285 810 basechar 0
AnchorPoint: "Anchor-0" 360 -300 basechar 0
LayerCount: 2
Fore
SplineSet
175.5 459 m 0xfa
 168.75 456 167.25 465.75 166.5 469.5 c 0
 162 483 161.25 486 161.25 489.75 c 0
 161.25 496.5 165.75 501 174 505.5 c 2
 216 530.25 l 1
 183 541.5 171.75 563.25 171.75 588 c 0
 171.75 634.5 210 696 259.5 696 c 0
 288.75 696 300 675 301.5 638.25 c 0
 302.25 628.5 297 623.25 292.5 623.25 c 0
 288.75 623.25 258 642 236.25 642 c 0
 215.25 642 207.75 632.25 207.75 619.5 c 0
 207.75 597.75 220.5 552 267.75 552 c 0xf6
 276.75 552 297 552.75 311.25 552.75 c 0
 329.25 552.75 333 551.25 339.75 541.5 c 2
 347.25 528 l 2
 351.75 519 341.25 513 333 510.75 c 0
 228.75 486.75 222 485.25 175.5 459 c 0xfa
298.5 379.5 m 0
 378.75 379.5 445.5 204 445.5 63.75 c 0
 445.5 -95.25 360.75 -267 180.75 -267 c 0
 159.75 -267 138.75 -264.75 79.5 -237.75 c 1
 79.5 -199.5 l 1
 125.25 -199.5 l 2
 151.5 -199.5 203.25 -192 262.5 -149.25 c 0
 348 -87.75 371.25 -9.75 377.25 37.5 c 1
 342.75 33.75 330 32.25 308.25 32.25 c 0
 198.75 32.25 160.5 76.5 160.5 149.25 c 0
 160.5 245.25 228 379.5 298.5 379.5 c 0
305.25 130.5 m 0
 324.75 130.5 344.25 132 369 134.25 c 1
 353.25 204 318 282.75 273.75 289.5 c 0
 235.5 294.75 227.25 240 227.25 192 c 0
 227.25 156.75 231.75 130.5 305.25 130.5 c 0
EndSplineSet
Substitution2: "'fina' Terminal Forms lookup 31 subtable" uniFE86
Substitution2: "'aalt' Access All Alternates lookup 0 subtable" uniFE86
EndChar

StartChar: uniFE86
Encoding: 65158 65158 187
Width: 525
VWidth: 750
GlyphClass: 2
Flags: HMW
HStem: -267 67.5<62.25 244.125> -1.5 106.5<241.5 348 333.75 348 333.75 349.5> 0 105<515.25 525> 627 54<219.75 232.125>
VStem: 143.25 61.5<137.25 171.75> 156.75 36<593.625 596.25>
AnchorPoint: "Anchor-1" 262.5 750 basechar 0
AnchorPoint: "Anchor-0" 352.5 -322.5 basechar 0
LayerCount: 2
Fore
SplineSet
160.5 444 m 0xd8
 153.75 441 152.25 450.75 151.5 454.5 c 0
 147 468 146.25 471 146.25 474.75 c 0
 146.25 481.5 150.75 486 159 490.5 c 2
 201 515.25 l 1
 168 526.5 156.75 548.25 156.75 573 c 0
 156.75 619.5 195 681 244.5 681 c 0
 273.75 681 285 660 286.5 623.25 c 0
 287.25 613.5 282 608.25 277.5 608.25 c 0
 273.75 608.25 243 627 221.25 627 c 0
 200.25 627 192.75 617.25 192.75 604.5 c 0
 192.75 582.75 205.5 537 252.75 537 c 0xd4
 261.75 537 282 537.75 296.25 537.75 c 0
 314.25 537.75 318 536.25 324.75 526.5 c 2
 332.25 513 l 2
 336.75 504 326.25 498 318 495.75 c 0
 213.75 471.75 207 470.25 160.5 444 c 0xd8
525 105 m 1
 525 0 l 1xb8
 505.5 0 466.5 0 427.5 -0.75 c 1
 410.25 -153.75 323.25 -267 165 -267 c 0
 142.5 -267 121.5 -264.75 62.25 -237.75 c 1
 62.25 -199.5 l 1
 108 -199.5 l 2
 126 -199.5 189.75 -188.25 246.75 -152.25 c 0
 311.25 -111.75 339.75 -57.75 349.5 -1.5 c 1
 310.5 -1.5 l 2
 172.5 -1.5 143.25 48 143.25 117.75 c 0
 143.25 225.75 212.25 357 271.5 357 c 0
 307.5 357 354.75 309 388.5 240 c 0
 412.5 191.25 423 144 427.5 105 c 1
 525 105 l 1
204.75 169.5 m 0
 204.75 105 231.75 105 333.75 105 c 2
 348 105 l 1
 331.5 198 276.75 252.75 251.25 259.5 c 0
 220.5 268.5 204.75 218.25 204.75 169.5 c 0
EndSplineSet
Substitution2: "Single Substitution lookup 54 subtable" uniFE86.wawAlef
Substitution2: "'aalt' Access All Alternates lookup 0 subtable" uniFE86.wawAlef
EndChar

StartChar: uniFE86.wawAlef
Encoding: 1114238 -1 188
Width: 525
VWidth: 750
GlyphClass: 2
Flags: HMW
HStem: -267 67.5<-54.75 127.125> -1.5 106.5<124.5 231 216.75 231 216.75 232.5> 0 105<398.25 408 408 525> 613.5 54<78.75 91.125>
VStem: 15.75 36<580.125 582.75> 26.25 61.5<137.25 171.75>
AnchorPoint: "Anchor-1" 150 750 basechar 0
AnchorPoint: "Anchor-0" 232.5 -322.5 basechar 0
LayerCount: 2
Fore
SplineSet
19.5 430.5 m 0xb4
 12.75 427.5 11.25 437.25 10.5 441 c 0
 6 454.5 5.25 457.5 5.25 461.25 c 0
 5.25 468 9.75 472.5 18 477 c 2
 60 501.75 l 1
 27 513 15.75 534.75 15.75 559.5 c 0
 15.75 606 54 667.5 103.5 667.5 c 0
 132.75 667.5 144 646.5 145.5 609.75 c 0
 146.25 600 141 594.75 136.5 594.75 c 0
 132.75 594.75 102 613.5 80.25 613.5 c 0
 59.25 613.5 51.75 603.75 51.75 591 c 0
 51.75 569.25 64.5 523.5 111.75 523.5 c 0xb8
 120.75 523.5 141 524.25 155.25 524.25 c 0
 173.25 524.25 177 522.75 183.75 513 c 2
 191.25 499.5 l 2
 195.75 490.5 185.25 484.5 177 482.25 c 0
 72.75 458.25 66 456.75 19.5 430.5 c 0xb4
408 105 m 1
 525 105 l 1
 525 0 l 1
 408 0 l 2xb4
 388.5 0 349.5 0 310.5 -0.75 c 1
 293.25 -153.75 206.25 -267 48 -267 c 0
 25.5 -267 4.5 -264.75 -54.75 -237.75 c 1
 -54.75 -199.5 l 1
 -9 -199.5 l 2
 9 -199.5 72.75 -188.25 129.75 -152.25 c 0
 194.25 -111.75 222.75 -57.75 232.5 -1.5 c 1
 193.5 -1.5 l 2xd4
 55.5 -1.5 26.25 48 26.25 117.75 c 0
 26.25 225.75 95.25 357 154.5 357 c 0
 190.5 357 237.75 309 271.5 240 c 0
 295.5 191.25 306 144 310.5 105 c 1
 408 105 l 1
87.75 169.5 m 0
 87.75 105 114.75 105 216.75 105 c 2
 231 105 l 1
 214.5 198 159.75 252.75 134.25 259.5 c 0
 103.5 268.5 87.75 218.25 87.75 169.5 c 0
EndSplineSet
EndChar

StartChar: uni0649
Encoding: 1609 1609 189
Width: 525
VWidth: 750
GlyphClass: 2
Flags: HMW
HStem: -150.75 105<157.875 242.625 157.125 285.75> 341.25 95.25
VStem: 15 47.25<31.125 49.125> 241.5 61.5<226.875 253.875> 435 67.5<-3 52.5>
AnchorPoint: "Anchor-1" 296.25 600 basechar 0
AnchorPoint: "Anchor-0" 324.75 -202.5 basechar 0
LayerCount: 2
Fore
SplineSet
210 -150.75 m 0
 105.75 -150.75 15 -111 15 13.5 c 0
 15 84.75 44.25 177 82.5 230.25 c 1
 93.75 215.25 l 1
 81.75 171.75 62.25 127.5 62.25 72.75 c 0
 62.25 -10.5 106.5 -45.75 207.75 -45.75 c 0
 277.5 -45.75 435 -29.25 435 23.25 c 0
 435 81.75 241.5 84.75 241.5 215.25 c 0
 241.5 292.5 309 436.5 413.25 436.5 c 0
 456 436.5 487.5 412.5 513.75 372.75 c 1
 487.5 281.25 l 1
 452.25 325.5 416.25 346.5 369.75 341.25 c 0
 325.5 336 303 309 303 276 c 0
 303 177.75 502.5 175.5 502.5 43.5 c 0
 502.5 -67.5 361.5 -150.75 210 -150.75 c 0
EndSplineSet
Substitution2: "'fina' Terminal Forms lookup 31 subtable" uniFEF0
Substitution2: "'aalt' Access All Alternates lookup 0 subtable" uniFEF0
EndChar

